SplineFontDB: 3.0
FontName: HighTowerText-Reg
FullName: High Tower Text
FamilyName: High Tower Text
Weight: Book
Copyright: Copyright (c) 1996, Tobias Frere-Jones. Designed by Tobias Frere-Jones. Produced by The Font Bureau, Inc. All rights reserved.
Version: 1.00
ItalicAngle: 0
UnderlinePosition: -221
UnderlineWidth: 102
Ascent: 1516
Descent: 532
sfntRevision: 0x00010000
LayerCount: 2
Layer: 0 1 "Back"  1
Layer: 1 1 "Fore"  0
NeedsXUIDChange: 1
XUID: [1021 839 3915 23466]
FSType: 8
OS2Version: 1
OS2_WeightWidthSlopeOnly: 0
OS2_UseTypoMetrics: 1
CreationTime: 897222701
ModificationTime: 1413398695
PfmFamily: 17
TTFWeight: 400
TTFWidth: 5
LineGap: 335
VLineGap: 0
Panose: 2 4 5 2 5 5 6 3 3 3
OS2TypoAscent: 0
OS2TypoAOffset: 1
OS2TypoDescent: 0
OS2TypoDOffset: 1
OS2TypoLinegap: 174
OS2WinAscent: 0
OS2WinAOffset: 1
OS2WinDescent: 10
OS2WinDOffset: 1
HheadAscent: -324
HheadAOffset: 1
HheadDescent: 0
HheadDOffset: 1
OS2SubXSize: 1434
OS2SubYSize: 1331
OS2SubXOff: 0
OS2SubYOff: 293
OS2SupXSize: 1434
OS2SupYSize: 1331
OS2SupXOff: 0
OS2SupYOff: 928
OS2StrikeYSize: 102
OS2StrikeYPos: 530
OS2FamilyClass: 259
OS2Vendor: 'FBI '
OS2CodePages: 20000001.00000000
OS2UnicodeRanges: 00000003.00000000.00000000.00000000
DEI: 91125
TtTable: prep
NPUSHB
 18
 128
 89
 1
 112
 89
 1
 96
 89
 1
 111
 75
 1
 127
 75
 1
 143
 75
 1
PUSHW_1
 -64
NPUSHB
 255
 98
 10
 13
 70
 98
 92
 38
 31
 91
 92
 38
 31
 79
 78
 54
 31
 126
 66
 22
 31
 124
 66
 22
 31
 119
 66
 8
 31
 118
 66
 8
 31
 117
 67
 8
 31
 116
 67
 8
 31
 115
 67
 8
 31
 114
 67
 8
 31
 113
 66
 8
 31
 112
 66
 50
 31
 111
 66
 8
 31
 110
 66
 50
 31
 106
 66
 8
 31
 105
 66
 50
 31
 104
 67
 8
 31
 103
 67
 8
 31
 102
 67
 8
 31
 101
 67
 8
 31
 100
 66
 50
 31
 99
 66
 50
 31
 98
 66
 50
 31
 97
 66
 50
 31
 94
 66
 50
 31
 90
 66
 8
 31
 89
 66
 50
 31
 88
 67
 8
 31
 87
 67
 8
 31
 86
 67
 8
 31
 85
 67
 8
 31
 84
 66
 50
 31
 83
 66
 50
 31
 82
 66
 50
 31
 81
 66
 50
 31
 77
 66
 8
 31
 76
 66
 50
 31
 75
 67
 8
 31
 74
 67

StartChar: .notdef
Encoding: 65536 -1 0
Width: 818
Flags: HW
LayerCount: 2
Fore
SplineSet
25 0 m 1,0,-1
 25 1516 l 1,1,-1
 793 1516 l 1,2,-1
 793 0 l 1,3,-1
 25 0 l 1,0,-1
153 128 m 1,4,-1
 665 128 l 1,5,-1
 665 1388 l 1,6,-1
 153 1388 l 1,7,-1
 153 128 l 1,4,-1
EndSplineSet
EndChar

StartChar: exclam
Encoding: 33 33 4
Width: 271
Flags: HW
LayerCount: 2
Fore
SplineSet
236 1188 m 0,0,1
 189 887 189 887 189 535 c 0,2,3
 189 472 189 472 183 453 c 0,4,5
 173 417 173 417 131 395 c 0,6,7
 119 389 119 389 111 389 c 0,8,9
 97 389 97 389 97 420 c 0,10,11
 97 866 97 866 43 1174 c 0,12,13
 37 1209 37 1209 37 1229 c 0,14,15
 37 1296 37 1296 152 1323 c 0,16,17
 179 1329 179 1329 195 1329 c 0,18,19
 243 1329 243 1329 243 1264 c 0,20,21
 243 1236 243 1236 236 1188 c 0,0,1
246 109 m 0,22,23
 246 52 246 52 211.5 12.5 c 128,-1,24
 177 -27 177 -27 129 -27 c 0,25,26
 25 -27 25 -27 25 90 c 0,27,28
 25 145 25 145 61.5 182 c 128,-1,29
 98 219 98 219 148 219 c 0,30,31
 246 219 246 219 246 109 c 0,22,23
EndSplineSet
EndChar

StartChar: quotedbl
Encoding: 34 34 5
Width: 606
Flags: HW
LayerCount: 2
Fore
SplineSet
579 1255 m 0,0,1
 579 1094 579 1094 514 858 c 0,2,3
 507 835 507 835 471 827 c 0,4,5
 450 823 450 823 443 832 c 128,-1,6
 436 841 436 841 438 868 c 0,7,8
 450 1054 450 1054 399 1247 c 0,9,10
 394 1267 394 1267 394 1280 c 0,11,12
 394 1322 394 1322 487 1333 c 0,13,14
 512 1336 512 1336 526 1336 c 0,15,16
 562 1336 562 1336 573 1312 c 0,17,18
 579 1298 579 1298 579 1255 c 0,0,1
215 1255 m 0,19,20
 215 1083 215 1083 149 858 c 0,21,22
 142 835 142 835 106 827 c 0,23,24
 85 823 85 823 78.5 832 c 128,-1,25
 72 841 72 841 73 868 c 0,26,27
 74 886 74 886 74 907 c 0,28,29
 74 1079 74 1079 32 1247 c 0,30,31
 27 1267 27 1267 27 1280 c 0,32,33
 27 1321 27 1321 122 1333 c 0,34,35
 147 1336 147 1336 161 1336 c 0,36,37
 215 1336 215 1336 215 1255 c 0,19,20
EndSplineSet
EndChar

StartChar: numbersign
Encoding: 35 35 6
Width: 970
Flags: HW
LayerCount: 2
Fore
SplineSet
940.941 563 m 0,0,1
 923.941 480 923.941 480 877.941 485 c 0,2,3
 780.941 496 780.941 496 707.941 502 c 1,4,5
 697.941 441 697.941 441 674.941 281 c 1,6,7
 745.941 273 745.941 273 889.941 256 c 0,8,9
 907.941 253 907.941 253 897.941 211 c 0,10,11
 878.941 127 878.941 127 832.941 131 c 0,12,13
 774.941 136 774.941 136 652.941 150 c 1,14,15
 639.941 74 639.941 74 615.941 -74 c 0,16,17
 612.941 -88 612.941 -88 590.941 -80 c 1,18,19
 546.941 -56 546.941 -56 551.941 -16 c 1,20,21
 560.941 43 560.941 43 578.941 160 c 1,22,23
 510.941 166 510.941 166 293.941 190 c 1,24,25
 279.941 100 279.941 100 250.941 -74 c 0,26,27
 248.941 -88 248.941 -88 223.941 -80 c 1,28,29
 181.941 -55 181.941 -55 187.941 -16 c 0,30,31
 198.941 57 198.941 57 219.941 199 c 1,32,33
 161.941 205 161.941 205 41.9414 217 c 0,34,35
 17.9414 219 17.9414 219 27.9414 281 c 1,36,37
 47.9414 358 47.9414 358 88.9414 352 c 0,38,39
 141.941 345 141.941 345 240.941 334 c 1,40,41
 251.941 404 251.941 404 273.941 553 c 1,42,43
 214.941 558 214.941 558 84.9414 571 c 0,44,45
 59.9414 574 59.9414 574 72.9414 635 c 0,46,47
 88.9414 712 88.9414 712 133.941 707 c 1,48,49
 189.941 699 189.941 699 295.941 686 c 1,50,51
 304.941 743 304.941 743 322.941 864 c 1,52,53
 328.941 888 328.941 888 357.941 879 c 1,54,55
 395.941 860 395.941 860 389.941 817 c 0,56,57
 383.941 769 383.941 769 369.941 676 c 1,58,59
 467.941 665 467.941 665 654.941 641 c 1,60,61
 665.941 712 665.941 712 686.941 864 c 1,62,63
 692.941 888 692.941 888 721.941 879 c 1,64,65
 763.941 860 763.941 860 756.941 817 c 0,66,67
 747.941 755 747.941 755 725.941 633 c 1,68,69
 801.941 626 801.941 626 934.941 610 c 0,70,71
 950.941 608 950.941 608 940.941 563 c 0,0,1
633.941 510 m 1,72,73
 521.941 525 521.941 525 348.941 545 c 1,74,75
 343.941 509 343.941 509 316.941 326 c 1,76,77
 413.941 313 413.941 313 600.941 289 c 1,78,79
 612.941 361 612.941 361 633.941 510 c 1,72,73
EndSplineSet
EndChar

StartChar: dollar
Encoding: 36 36 7
Width: 716
Flags: HW
LayerCount: 2
Fore
SplineSet
691 215 m 0,0,1
 691 111 691 111 607 49 c 128,-1,2
 523 -13 523 -13 371 -16 c 1,3,4
 367 -88 367 -88 359 -213 c 1,5,6
 357 -228 357 -228 341 -223 c 0,7,8
 286 -204 286 -204 289 -156 c 0,9,10
 292 -100 292 -100 299 -14 c 1,11,12
 164 -7 164 -7 91 38 c 0,13,14
 25 79 25 79 25 137 c 0,15,16
 25 219 25 219 90 219 c 0,17,18
 149 219 149 219 179 145 c 0,19,20
 211 64 211 64 303 53 c 1,21,22
 315 228 315 228 320 344 c 1,23,24
 167 399 167 399 112.5 450.5 c 128,-1,25
 58 502 58 502 58 590 c 0,26,27
 58 695 58 695 140 757 c 0,28,29
 219 816 219 816 349 821 c 1,30,31
 351 872 351 872 357 971 c 0,32,33
 358 998 358 998 389 985 c 0,34,35
 434 967 434 967 430 924 c 1,36,37
 429 902 429 902 424 819 c 1,38,39
 534 811 534 811 603 774 c 0,40,41
 676 734 676 734 676 676 c 0,42,43
 676 598 676 598 611 598 c 0,44,45
 553 598 553 598 518 674 c 1,46,47
 492 733 492 733 420 748 c 1,48,-1
 402 479 l 1,49,50
 566 422 566 422 626 369 c 0,51,52
 691 313 691 313 691 215 c 0,0,1
344 754 m 1,53,54
 183 751 183 751 183 639 c 0,55,56
 183 567 183 567 330 508 c 1,57,58
 336 581 336 581 344 754 c 1,53,54
555 166 m 0,59,60
 555 216 555 216 521 248.5 c 128,-1,61
 487 281 487 281 392 317 c 1,62,63
 386 224 386 224 375 47 c 1,64,65
 555 53 555 53 555 166 c 0,59,60
EndSplineSet
EndChar

StartChar: percent
Encoding: 37 37 8
Width: 1531
Flags: HW
LayerCount: 2
Fore
SplineSet
1506 268 m 0,0,1
 1506 136 1506 136 1428 52 c 0,2,3
 1347 -35 1347 -35 1215 -35 c 0,4,5
 1094 -35 1094 -35 1013 46.5 c 128,-1,6
 932 128 932 128 932 250 c 0,7,8
 932 385 932 385 1019 469 c 0,9,10
 1102 549 1102 549 1225 549 c 0,11,12
 1349 549 1349 549 1427.5 471 c 128,-1,13
 1506 393 1506 393 1506 268 c 0,0,1
1082 815 m 0,14,15
 875 497 875 497 510 -80 c 1,16,17
 500 -101 500 -101 464.5 -74.5 c 128,-1,18
 429 -48 429 -48 439 -33 c 0,19,20
 596 214 596 214 1010 860 c 0,21,22
 1023 880 1023 880 1055 856 c 0,23,24
 1091 829 1091 829 1082 815 c 0,14,15
598 555 m 0,25,26
 598 423 598 423 520 339 c 0,27,28
 440 252 440 252 307 252 c 0,29,30
 186 252 186 252 105.5 333.5 c 128,-1,31
 25 415 25 415 25 537 c 0,32,33
 25 672 25 672 112 756 c 0,34,35
 195 836 195 836 318 836 c 0,36,37
 442 836 442 836 520 757.5 c 128,-1,38
 598 679 598 679 598 555 c 0,25,26
1350 256 m 0,39,40
 1350 481 1350 481 1223 481 c 0,41,42
 1088 481 1088 481 1088 264 c 0,43,44
 1088 33 1088 33 1223 33 c 0,45,46
 1350 33 1350 33 1350 256 c 0,39,40
443 543 m 0,47,48
 443 768 443 768 316 768 c 0,49,50
 181 768 181 768 181 551 c 0,51,52
 181 319 181 319 316 319 c 0,53,54
 443 319 443 319 443 543 c 0,47,48
EndSplineSet
EndChar

StartChar: ampersand
Encoding: 38 38 9
Width: 1488
Flags: HW
LayerCount: 2
Fore
SplineSet
1460 104 m 256,0,1
 1471 77 1471 77 1434 53 c 0,2,3
 1330 -12 1330 -12 1231 -12 c 0,4,5
 1125 -12 1125 -12 1067 29 c 0,6,7
 1014 67 1014 67 965 168 c 0,8,9
 950 198 950 198 940 215 c 1,10,11
 750 -12 750 -12 487 -12 c 0,12,13
 275 -12 275 -12 152 79 c 0,14,15
 25 173 25 173 25 338 c 0,16,17
 25 626 25 626 393 784 c 1,18,19
 244 912 244 912 244 1059 c 0,20,21
 244 1189 244 1189 337 1268 c 0,22,23
 426 1343 426 1343 563 1343 c 0,24,25
 688 1343 688 1343 769 1280 c 0,26,27
 854 1213 854 1213 854 1104 c 0,28,29
 854 898 854 898 625 793 c 1,30,31
 696 743 696 743 817 645 c 1,32,33
 919 543 919 543 995 438 c 1,34,35
 1068 572 1068 572 1128 758 c 0,36,37
 1139 789 1139 789 1139 815 c 0,38,39
 1139 873 1139 873 1063 903 c 0,40,41
 1028 917 1028 917 1028 940 c 0,42,43
 1028 968 1028 968 1079 956 c 0,44,45
 1116 948 1116 948 1218 943 c 0,46,47
 1312 939 1312 939 1346 942 c 0,48,49
 1401 947 1401 947 1401 918 c 0,50,51
 1401 895 1401 895 1321 883 c 0,52,53
 1279 876 1279 876 1262 861 c 128,-1,54
 1245 846 1245 846 1231 801 c 0,55,56
 1149 540 1149 540 1044 365 c 1,57,58
 1059 341 1059 341 1090 283 c 0,59,60
 1148 171 1148 171 1189 130 c 0,61,62
 1236 82 1236 82 1300 82 c 0,63,64
 1352 82 1352 82 1429 121 c 0,65,66
 1449 131 1449 131 1460 104 c 256,0,1
702 1087 m 0,67,68
 702 1270 702 1270 555 1270 c 0,69,70
 397 1270 397 1270 397 1094 c 0,71,72
 397 970 397 970 553 844 c 1,73,74
 702 915 702 915 702 1087 c 0,67,68
899 287 m 1,75,76
 819 417 819 417 668 573 c 0,77,78
 649 593 649 593 465 727 c 1,79,80
 203 608 203 608 203 383 c 0,81,82
 203 239 203 239 298 157 c 0,83,84
 387 80 387 80 532 80 c 0,85,86
 737 80 737 80 899 287 c 1,75,76
EndSplineSet
EndChar

StartChar: quotesingle
Encoding: 39 39 10
Width: 242
Flags: HW
LayerCount: 2
Fore
SplineSet
215 1255 m 0,0,1
 215 1083 215 1083 149 858 c 0,2,3
 142 835 142 835 106 827 c 0,4,5
 85 823 85 823 78.5 832 c 128,-1,6
 72 841 72 841 73 868 c 0,7,8
 74 886 74 886 74 907 c 0,9,10
 74 1079 74 1079 32 1247 c 0,11,12
 27 1267 27 1267 27 1280 c 0,13,14
 27 1321 27 1321 122 1333 c 0,15,16
 147 1336 147 1336 161 1336 c 0,17,18
 215 1336 215 1336 215 1255 c 0,0,1
EndSplineSet
EndChar

StartChar: parenleft
Encoding: 40 40 11
Width: 655
Flags: HW
LayerCount: 2
Fore
SplineSet
621 -342 m 0,0,1
 612 -359 612 -359 597 -359 c 0,2,3
 583 -359 583 -359 560 -342 c 0,4,5
 317 -163 317 -163 178 63 c 0,6,7
 25 310 25 310 25 573 c 256,8,9
 25 836 25 836 178 1084 c 0,10,11
 317 1310 317 1310 560 1489 c 0,12,13
 583 1506 583 1506 597 1506 c 0,14,15
 612 1506 612 1506 621 1489 c 0,16,17
 640 1454 640 1454 619 1436 c 0,18,19
 405 1243 405 1243 309 1062 c 0,20,21
 197 851 197 851 197 573 c 0,22,23
 197 296 197 296 309 85 c 0,24,25
 405 -96 405 -96 619 -289 c 0,26,27
 640 -307 640 -307 621 -342 c 0,0,1
EndSplineSet
EndChar

StartChar: parenright
Encoding: 41 41 12
Width: 655
Flags: HW
LayerCount: 2
Fore
SplineSet
629.526 573 m 256,0,1
 629.526 310 629.526 310 477.526 63 c 0,2,3
 337.526 -163 337.526 -163 95.5264 -342 c 0,4,5
 71.5264 -359 71.5264 -359 57.5264 -359 c 256,6,7
 43.5264 -359 43.5264 -359 33.5264 -342 c 1,8,9
 15.5264 -307 15.5264 -307 35.5264 -289 c 0,10,11
 250.526 -96 250.526 -96 346.526 85 c 0,12,13
 457.526 296 457.526 296 457.526 573 c 0,14,15
 457.526 851 457.526 851 346.526 1062 c 0,16,17
 250.526 1243 250.526 1243 35.5264 1436 c 0,18,19
 15.5264 1454 15.5264 1454 33.5264 1489 c 1,20,21
 43.5264 1506 43.5264 1506 57.5264 1506 c 256,22,23
 71.5264 1506 71.5264 1506 95.5264 1489 c 0,24,25
 337.526 1310 337.526 1310 477.526 1084 c 1,26,27
 629.526 836 629.526 836 629.526 573 c 256,0,1
EndSplineSet
EndChar

StartChar: asterisk
Encoding: 42 42 13
Width: 884
Flags: HW
LayerCount: 2
Fore
SplineSet
846 1053 m 0,0,1
 859 1013 859 1013 859 987 c 0,2,3
 859 944 859 944 817 940 c 0,4,5
 520 915 520 915 491 887 c 1,6,7
 488 882 488 882 488 877 c 0,8,9
 488 823 488 823 727 686 c 0,10,11
 756 670 756 670 756 653 c 0,12,13
 756 627 756 627 688 580 c 0,14,15
 636 543 636 543 607 543 c 0,16,17
 583 543 583 543 571 571 c 0,18,19
 456 852 456 852 422 860 c 0,20,21
 400 865 400 865 369 796 c 0,22,23
 334 718 334 718 305 578 c 0,24,25
 297 538 297 538 275 538 c 0,26,27
 251 538 251 538 191.5 582 c 128,-1,28
 132 626 132 626 132 657 c 0,29,30
 132 674 132 674 152 688 c 1,31,32
 373 889 373 889 373 918 c 1,33,34
 368 949 368 949 235 949 c 0,35,36
 169 949 169 949 68 942 c 0,37,38
 25 939 25 939 25 988 c 0,39,40
 25 1014 25 1014 37 1053 c 0,41,42
 62 1135 62 1135 101 1135 c 0,43,44
 113 1135 113 1135 127 1126 c 0,45,46
 390 964 390 964 416 977 c 0,47,48
 426 982 426 982 426 1005 c 0,49,50
 426 1069 426 1069 344 1278 c 0,51,52
 335 1300 335 1300 335 1311 c 0,53,54
 335 1343 335 1343 438 1343 c 0,55,56
 538 1343 538 1343 538 1291 c 0,57,58
 538 1285 538 1285 537 1278 c 0,59,60
 472 1003 472 1003 494 961 c 0,61,62
 498 954 498 954 509 954 c 0,63,64
 590 954 590 954 756 1124 c 0,65,66
 768 1137 768 1137 783 1137 c 0,67,68
 819 1137 819 1137 846 1053 c 0,0,1
EndSplineSet
EndChar

StartChar: plus
Encoding: 43 43 14
Width: 931
Flags: HW
LayerCount: 2
Fore
SplineSet
906 418 m 0,0,1
 906 398 906 398 888 380 c 128,-1,2
 870 362 870 362 847 362 c 2,3,-1
 527 362 l 1,4,-1
 527 10 l 2,5,6
 527 -39 527 -39 447 -39 c 0,7,8
 402 -39 402 -39 402 -18 c 2,9,-1
 402 362 l 1,10,-1
 44 362 l 2,11,12
 25 362 25 362 25 389 c 0,13,14
 25 434 25 434 83 434 c 2,15,-1
 402 434 l 1,16,-1
 402 791 l 2,17,18
 402 840 402 840 498 840 c 0,19,20
 527 840 527 840 527 825 c 2,21,-1
 527 434 l 1,22,-1
 888 434 l 2,23,24
 906 434 906 434 906 418 c 0,0,1
EndSplineSet
EndChar

StartChar: comma
Encoding: 44 44 15
Width: 332
Flags: HW
LayerCount: 2
Fore
SplineSet
305 49 m 0,0,1
 305 -211 305 -211 86 -342 c 0,2,3
 66 -354 66 -354 57 -354 c 0,4,5
 43 -354 43 -354 31 -322 c 0,6,7
 27 -311 27 -311 27 -304 c 0,8,9
 27 -287 27 -287 84 -248 c 0,10,11
 182 -180 182 -180 182 -94 c 0,12,13
 182 -50 182 -50 125 -14 c 0,14,15
 45 36 45 36 45 109 c 0,16,17
 45 158 45 158 78 190.5 c 128,-1,18
 111 223 111 223 166 223 c 0,19,20
 232 223 232 223 268.5 175 c 128,-1,21
 305 127 305 127 305 49 c 0,0,1
EndSplineSet
EndChar

StartChar: hyphen
Encoding: 45 45 16
AltUni2: 002010.ffffffff.0
Width: 550
Flags: HW
LayerCount: 2
Fore
SplineSet
472 633 m 0,0,1
 472 534 472 534 413 524 c 0,2,3
 228 495 228 495 66 449 c 0,4,5
 20 435 20 435 2 435 c 0,6,7
 -26 435 -26 435 -26 473 c 0,8,9
 -26 585 -26 585 24 591.5 c 128,-1,10
 74 598 74 598 406 659 c 0,11,12
 443 666 443 666 452 665 c 0,13,14
 472 661 472 661 472 633 c 0,0,1
EndSplineSet
EndChar

StartChar: period
Encoding: 46 46 17
Width: 298
Flags: HW
LayerCount: 2
Fore
SplineSet
271 119 m 0,0,1
 271 57 271 57 233 14 c 128,-1,2
 195 -29 195 -29 142 -29 c 0,3,4
 27 -29 27 -29 27 102 c 0,5,6
 27 161 27 161 67 201.5 c 128,-1,7
 107 242 107 242 160 242 c 0,8,9
 271 242 271 242 271 119 c 0,0,1
EndSplineSet
EndChar

StartChar: slash
Encoding: 47 47 18
Width: 1080
Flags: HW
LayerCount: 2
Fore
SplineSet
1053 1438 m 1,0,1
 617 621 617 621 115 -340 c 0,2,3
 103 -363 103 -363 60 -338 c 0,4,5
 25 -318 25 -318 25 -305 c 0,6,7
 25 -300 25 -300 29 -293 c 0,8,9
 339 297 339 297 967 1487 c 0,10,11
 978 1508 978 1508 1022 1485 c 0,12,13
 1063 1464 1063 1464 1053 1438 c 1,0,1
EndSplineSet
EndChar

StartChar: zero
Encoding: 48 48 19
Width: 873
Flags: HW
LayerCount: 2
Fore
SplineSet
847 418 m 0,0,1
 847 230 847 230 735 111 c 0,2,3
 620 -12 620 -12 431 -12 c 0,4,5
 256 -12 256 -12 141 102.5 c 128,-1,6
 26 217 26 217 26 391 c 0,7,8
 26 586 26 586 150 706 c 0,9,10
 268 819 268 819 444 819 c 0,11,12
 622 819 622 819 734.5 707.5 c 128,-1,13
 847 596 847 596 847 418 c 0,0,1
669 399 m 0,14,15
 669 551 669 551 607.5 640 c 128,-1,16
 546 729 546 729 440 729 c 0,17,18
 324 729 324 729 261 639 c 0,19,20
 202 555 202 555 202 412 c 0,21,22
 202 250 202 250 265.5 164 c 128,-1,23
 329 78 329 78 440 78 c 0,24,25
 547 78 547 78 608 160.5 c 128,-1,26
 669 243 669 243 669 399 c 0,14,15
EndSplineSet
EndChar

StartChar: one
Encoding: 49 49 20
Width: 494
Flags: HW
LayerCount: 2
Fore
SplineSet
468 31 m 0,0,1
 464 3 464 3 445 -1 c 0,2,3
 438 -3 438 -3 398 0 c 0,4,5
 263 10 263 10 107 -4 c 0,6,7
 71 -7 71 -7 64 -4 c 0,8,9
 52 1 52 1 52 31 c 0,10,11
 52 56 52 56 101 72 c 0,12,13
 167 93 167 93 167 182 c 2,14,-1
 167 586 l 2,15,16
 167 649 167 649 156 673 c 0,17,18
 140 710 140 710 85 723 c 0,19,20
 47 732 47 732 42 734 c 0,21,22
 22 745 22 745 27 770 c 0,23,24
 33 798 33 798 51 802 c 0,25,26
 57 804 57 804 97 801 c 0,27,28
 231 791 231 791 388 805 c 0,29,30
 427 808 427 808 436 802.5 c 128,-1,31
 445 797 445 797 445 770 c 0,32,33
 445 745 445 745 394 729 c 0,34,35
 316 705 316 705 316 618 c 2,36,-1
 316 215 l 2,37,38
 316 151 316 151 335 123 c 1,39,40
 355 91 355 91 412 78 c 0,41,42
 448 70 448 70 454 66 c 0,43,44
 471 56 471 56 468 31 c 0,0,1
EndSplineSet
EndChar

StartChar: two
Encoding: 50 50 21
Width: 774
Flags: HW
LayerCount: 2
Fore
SplineSet
740.562 135 m 1,0,1
 691.562 57 691.562 57 652.562 -88 c 0,2,3
 645.562 -115 645.562 -115 611.562 -106 c 1,4,5
 582.562 -100 582.562 -100 592.562 -58 c 128,-1,6
 602.562 -16 602.562 -16 543.562 -8 c 0,7,8
 439.562 6 439.562 6 44.5625 6 c 0,9,10
 31.5625 6 31.5625 6 27.5625 23 c 0,11,12
 22.5625 40 22.5625 40 33.5625 49 c 0,13,14
 283.562 253 283.562 253 374.562 371 c 0,15,16
 453.562 472 453.562 472 453.562 567 c 0,17,18
 453.562 702 453.562 702 312.562 702 c 0,19,20
 216.562 702 216.562 702 87.5625 612 c 0,21,22
 62.5625 595 62.5625 595 39.5625 623 c 0,23,24
 27.5625 638 27.5625 638 27.5625 650 c 0,25,26
 27.5625 666 27.5625 666 48.5625 686 c 0,27,28
 184.562 819 184.562 819 361.562 819 c 0,29,30
 640.562 819 640.562 819 640.562 608 c 0,31,32
 640.562 512 640.562 512 543.562 398 c 0,33,34
 469.562 310 469.562 310 287.562 160 c 0,35,36
 272.562 147 272.562 147 272.562 139 c 0,37,38
 272.562 129 272.562 129 302.562 129 c 0,39,40
 495.562 129 495.562 129 543.562 131 c 0,41,42
 628.562 135 628.562 135 691.562 164 c 0,43,44
 710.562 173 710.562 173 732.562 166 c 0,45,46
 758.562 157 758.562 157 740.562 135 c 1,0,1
EndSplineSet
EndChar

StartChar: three
Encoding: 51 51 22
Width: 666
Flags: HW
LayerCount: 2
Fore
SplineSet
640.6 117 m 0,0,1
 640.6 -251 640.6 -251 66.5996 -344 c 0,2,3
 30.5996 -350 30.5996 -350 25.5996 -315 c 0,4,5
 22.5996 -290 22.5996 -290 34.5996 -281 c 0,6,7
 43.5996 -273 43.5996 -273 80.5996 -264 c 0,8,9
 271.6 -220 271.6 -220 361.6 -149 c 0,10,11
 463.6 -68 463.6 -68 463.6 68 c 0,12,13
 463.6 158 463.6 158 399.6 210 c 0,14,15
 341.6 258 341.6 258 253.6 258 c 0,16,17
 204.6 258 204.6 258 185.6 254 c 0,18,19
 157.6 248 157.6 248 146.6 283 c 0,20,21
 136.6 314 136.6 314 171.6 330 c 0,22,23
 457.6 462 457.6 462 457.6 604 c 0,24,25
 457.6 729 457.6 729 324.6 729 c 0,26,27
 217.6 729 217.6 729 119.6 674 c 0,28,29
 89.5996 657 89.5996 657 64.5996 686 c 0,30,31
 54.5996 698 54.5996 698 54.5996 706 c 0,32,33
 54.5996 720 54.5996 720 83.5996 741 c 0,34,35
 212.6 838 212.6 838 367.6 838 c 0,36,37
 638.6 838 638.6 838 638.6 637 c 0,38,39
 638.6 470 638.6 470 373.6 350 c 1,40,41
 492.6 355 492.6 355 566.6 292 c 128,-1,42
 640.6 229 640.6 229 640.6 117 c 0,0,1
EndSplineSet
EndChar

StartChar: four
Encoding: 52 52 23
Width: 946
Flags: HW
LayerCount: 2
Fore
SplineSet
905.529 53 m 1,0,1
 890.529 -5 890.529 -5 856.529 -2 c 0,2,3
 831.529 0 831.529 0 768.529 3 c 2,4,-1
 716.529 6 l 1,5,6
 716.529 -86 716.529 -86 720.529 -283 c 0,7,8
 721.529 -305 721.529 -305 687.529 -318 c 1,9,10
 661.529 -325 661.529 -325 634.529 -332 c 0,11,12
 590.529 -344 590.529 -344 573.529 -341 c 256,13,14
 556.529 -338 556.529 -338 557.529 -319 c 1,15,16
 557.529 -266 557.529 -266 561.529 -136 c 0,17,18
 565.529 -21 565.529 -21 565.529 8 c 1,19,20
 556.529 9 556.529 9 45.5293 27 c 0,21,22
 28.5293 27 28.5293 27 25.5293 51 c 0,23,24
 22.5293 76 22.5293 76 36.5293 92 c 0,25,26
 537.529 666 537.529 666 624.529 834 c 0,27,28
 630.529 845 630.529 845 651.529 845 c 0,29,30
 671.529 845 671.529 845 714.529 831 c 0,31,32
 741.529 823 741.529 823 727.529 772 c 1,33,34
 718.529 715 718.529 715 718.529 629 c 2,35,-1
 718.529 113 l 1,36,37
 772.529 113 772.529 113 811.529 121 c 0,38,39
 844.529 128 844.529 128 864.029 153 c 128,-1,40
 883.529 178 883.529 178 903.529 174 c 0,41,42
 920.529 170 920.529 170 920.529 143 c 256,43,44
 920.529 116 920.529 116 905.529 53 c 1,0,1
561.529 119 m 1,45,-1
 561.529 590 l 1,46,47
 471.529 452 471.529 452 204.529 127 c 1,48,-1
 561.529 119 l 1,45,-1
EndSplineSet
EndChar

StartChar: five
Encoding: 53 53 24
Width: 691
Flags: HW
LayerCount: 2
Fore
SplineSet
662.392 842 m 1,0,1
 652.392 823 652.392 823 630.392 743 c 1,2,3
 610.392 675 610.392 675 568.392 675 c 0,4,5
 552.392 675 552.392 675 527.392 684 c 0,6,7
 445.392 715 445.392 715 263.392 715 c 0,8,9
 234.392 715 234.392 715 228.392 688 c 1,10,11
 215.392 614 215.392 614 191.392 504 c 1,12,13
 402.392 433 402.392 433 503.392 348 c 0,14,15
 617.392 251 617.392 251 617.392 115 c 0,16,17
 617.392 -88 617.392 -88 445.392 -213 c 0,18,19
 327.392 -299 327.392 -299 89.3916 -365 c 0,20,21
 63.3916 -372 63.3916 -372 52.3916 -336 c 0,22,23
 40.3916 -297 40.3916 -297 77.3916 -285 c 0,24,25
 431.392 -162 431.392 -162 431.392 72 c 0,26,27
 431.392 202 431.392 202 340.892 292 c 128,-1,28
 250.392 382 250.392 382 42.3916 461 c 0,29,30
 22.3916 468 22.3916 468 25.3916 489 c 0,31,32
 43.3916 615 43.3916 615 60.3916 756 c 0,33,34
 65.3916 798 65.3916 798 126.392 799 c 0,35,36
 277.392 801 277.392 801 437.392 809 c 0,37,38
 550.392 815 550.392 815 574.392 840 c 0,39,40
 607.392 874 607.392 874 644.392 874 c 0,41,42
 675.392 874 675.392 874 662.392 842 c 1,0,1
EndSplineSet
EndChar

StartChar: six
Encoding: 54 54 25
Width: 869
Flags: HW
LayerCount: 2
Fore
SplineSet
844 395 m 0,0,1
 844 213 844 213 727.5 97.5 c 128,-1,2
 611 -18 611 -18 431 -18 c 256,3,4
 251 -18 251 -18 141 101 c 0,5,6
 25 228 25 228 25 453 c 0,7,8
 25 754 25 754 225 984 c 0,9,10
 405 1191 405 1191 689 1282 c 0,11,12
 717 1291 717 1291 725 1268 c 0,13,14
 738 1232 738 1232 693 1208 c 0,15,16
 304 1006 304 1006 232 684 c 1,17,18
 323 778 323 778 486 778 c 0,19,20
 642 778 642 778 742 674 c 0,21,22
 844 567 844 567 844 395 c 0,0,1
666 377 m 0,23,24
 666 513 666 513 607 599 c 0,25,26
 544 690 544 690 435 690 c 0,27,28
 325 690 325 690 261 608 c 128,-1,29
 197 526 197 526 197 385 c 0,30,31
 197 243 197 243 261.5 157.5 c 128,-1,32
 326 72 326 72 435 72 c 0,33,34
 546 72 546 72 606 154 c 128,-1,35
 666 236 666 236 666 377 c 0,23,24
EndSplineSet
EndChar

StartChar: seven
Encoding: 55 55 26
Width: 812
Flags: HW
LayerCount: 2
Fore
SplineSet
781 756 m 0,0,1
 734 697 734 697 572 315 c 0,2,3
 435 -6 435 -6 318 -313 c 0,4,5
 314 -325 314 -325 221 -345 c 1,6,7
 137 -362 137 -362 111 -362 c 0,8,9
 83 -362 83 -362 103 -334 c 0,10,11
 348 21 348 21 605 655 c 0,12,13
 616 682 616 682 597 682 c 0,14,15
 541 682 541 682 352 667 c 0,16,17
 150 652 150 652 66 639 c 0,18,19
 25 633 25 633 25 662 c 0,20,21
 25 687 25 687 64 758 c 0,22,23
 79 787 79 787 103 834 c 0,24,25
 116 858 116 858 132 858 c 0,26,27
 162 858 162 858 177 836 c 1,28,29
 200 810 200 810 269 807 c 0,30,31
 347 803 347 803 754 799 c 0,32,33
 776 798 776 798 784 784 c 0,34,35
 791 770 791 770 781 756 c 0,0,1
EndSplineSet
EndChar

StartChar: eight
Encoding: 56 56 27
Width: 820
Flags: HW
LayerCount: 2
Fore
SplineSet
795 334 m 0,0,1
 795 173 795 173 675 76 c 0,2,3
 565 -12 565 -12 406 -12 c 0,4,5
 241 -12 241 -12 137 70 c 0,6,7
 25 159 25 159 25 311 c 0,8,9
 25 519 25 519 277 651 c 1,10,11
 79 757 79 757 79 946 c 0,12,13
 79 1078 79 1078 186 1165 c 1,14,15
 286 1245 286 1245 421 1245 c 0,16,17
 561 1245 561 1245 650 1174 c 1,18,19
 742 1099 742 1099 742 973 c 0,20,21
 742 788 742 788 542 680 c 1,22,23
 795 557 795 557 795 334 c 0,0,1
607 958 m 0,24,25
 607 1043 607 1043 555 1098 c 128,-1,26
 503 1153 503 1153 417 1153 c 0,27,28
 333 1153 333 1153 277.5 1101 c 128,-1,29
 222 1049 222 1049 222 975 c 0,30,31
 222 814 222 814 441 725 c 1,32,33
 607 802 607 802 607 958 c 0,24,25
632 305 m 0,34,35
 632 405 632 405 578 472 c 1,36,37
 520 546 520 546 378 608 c 1,38,39
 185 513 185 513 185 330 c 0,40,41
 185 211 185 211 249 145.5 c 128,-1,42
 313 80 313 80 417 80 c 0,43,44
 504 80 504 80 563 131 c 0,45,46
 632 192 632 192 632 305 c 0,34,35
EndSplineSet
EndChar

StartChar: nine
Encoding: 57 57 28
Width: 822
Flags: HW
LayerCount: 2
Fore
SplineSet
797 408 m 0,0,1
 797 137 797 137 599 -88 c 0,2,3
 423 -288 423 -288 160 -383 c 0,4,5
 148 -387 148 -387 131 -344 c 1,6,7
 126 -321 126 -321 193 -285 c 0,8,9
 330 -211 330 -211 434 -102 c 0,10,11
 543 12 543 12 582 129 c 1,12,13
 506 61 506 61 357 61 c 0,14,15
 220 61 220 61 127 151 c 0,16,17
 25 250 25 250 25 418 c 0,18,19
 25 598 25 598 142 713 c 0,20,21
 253 823 253 823 414 823 c 0,22,23
 582 823 582 823 686 718 c 0,24,25
 797 606 797 606 797 408 c 0,0,1
635 455 m 0,26,27
 635 729 635 729 414 729 c 0,28,29
 314 729 314 729 257.5 655 c 128,-1,30
 201 581 201 581 201 455 c 0,31,32
 201 154 201 154 408 154 c 0,33,34
 512 154 512 154 573.5 234.5 c 128,-1,35
 635 315 635 315 635 455 c 0,26,27
EndSplineSet
EndChar

StartChar: colon
Encoding: 58 58 29
Width: 306
Flags: HW
LayerCount: 2
Fore
SplineSet
280 664 m 0,0,1
 280 602 280 602 242.5 559 c 128,-1,2
 205 516 205 516 153 516 c 0,3,4
 36 516 36 516 36 645 c 0,5,6
 36 703 36 703 77 745 c 0,7,8
 116 784 116 784 167 784 c 0,9,10
 280 784 280 784 280 664 c 0,0,1
270 119 m 0,11,12
 270 57 270 57 232 14 c 128,-1,13
 194 -29 194 -29 141 -29 c 0,14,15
 26 -29 26 -29 26 102 c 0,16,17
 26 161 26 161 66 201.5 c 128,-1,18
 106 242 106 242 159 242 c 0,19,20
 270 242 270 242 270 119 c 0,11,12
EndSplineSet
EndChar

StartChar: semicolon
Encoding: 59 59 30
Width: 330
Flags: HW
LayerCount: 2
Fore
SplineSet
292 664 m 0,0,1
 292 602 292 602 254.5 559 c 128,-1,2
 217 516 217 516 165 516 c 0,3,4
 48 516 48 516 48 645 c 0,5,6
 48 703 48 703 89 745 c 0,7,8
 128 784 128 784 179 784 c 0,9,10
 292 784 292 784 292 664 c 0,0,1
304 49 m 0,11,12
 304 -211 304 -211 85 -342 c 0,13,14
 65 -354 65 -354 56 -354 c 0,15,16
 42 -354 42 -354 30 -322 c 0,17,18
 26 -311 26 -311 26 -304 c 0,19,20
 26 -287 26 -287 83 -248 c 0,21,22
 181 -180 181 -180 181 -94 c 0,23,24
 181 -50 181 -50 124 -14 c 0,25,26
 44 36 44 36 44 109 c 0,27,28
 44 158 44 158 77 190.5 c 128,-1,29
 110 223 110 223 165 223 c 0,30,31
 231 223 231 223 267.5 175 c 128,-1,32
 304 127 304 127 304 49 c 0,11,12
EndSplineSet
EndChar

StartChar: less
Encoding: 60 60 31
Width: 650
Flags: HW
LayerCount: 2
Fore
SplineSet
619 -12 m 0,0,1
 606 -32 606 -32 572 -8 c 2,2,-1
 54 348 l 2,3,4
 26 367 26 367 26 381 c 256,5,6
 26 395 26 395 54 414 c 2,7,-1
 566 766 l 2,8,9
 605 793 605 793 617 776 c 0,10,11
 624 766 624 766 624 759 c 0,12,13
 624 747 624 747 591 717 c 2,14,-1
 216 381 l 1,15,-1
 597 39 l 2,16,17
 632 7 632 7 619 -12 c 0,0,1
EndSplineSet
EndChar

StartChar: equal
Encoding: 61 61 32
Width: 757
Flags: HW
LayerCount: 2
Fore
SplineSet
731 602 m 0,0,1
 731 576 731 576 712.5 552 c 128,-1,2
 694 528 694 528 670 528 c 2,3,-1
 45 528 l 2,4,5
 26 528 26 528 26 563 c 0,6,7
 26 621 26 621 84 621 c 2,8,-1
 713 621 l 2,9,10
 731 621 731 621 731 602 c 0,0,1
731 248 m 0,11,12
 731 222 731 222 712.5 198 c 128,-1,13
 694 174 694 174 670 174 c 2,14,-1
 45 174 l 2,15,16
 26 174 26 174 26 211 c 0,17,18
 26 268 26 268 84 268 c 2,19,-1
 713 268 l 2,20,21
 731 268 731 268 731 248 c 0,11,12
EndSplineSet
EndChar

StartChar: greater
Encoding: 62 62 33
Width: 649
Flags: HW
LayerCount: 2
Fore
SplineSet
596 348 m 2,0,-1
 84 -4 l 2,1,2
 44 -31 44 -31 33 -14 c 0,3,4
 26 -4 26 -4 26 3 c 0,5,6
 26 15 26 15 59 45 c 2,7,-1
 434 381 l 1,8,-1
 53 723 l 2,9,10
 18 755 18 755 30 774 c 0,11,12
 43 794 43 794 78 770 c 2,13,-1
 596 414 l 2,14,15
 623 395 623 395 623 381 c 256,16,17
 623 367 623 367 596 348 c 2,0,-1
EndSplineSet
EndChar

StartChar: question
Encoding: 63 63 34
Width: 679
Flags: HW
LayerCount: 2
Fore
SplineSet
654 928 m 0,0,1
 654 779 654 779 563 708 c 0,2,3
 497 657 497 657 298 602 c 0,4,5
 260 592 260 592 253 551 c 0,6,7
 247 518 247 518 230 442 c 0,8,9
 222 410 222 410 183 395 c 0,10,11
 170 391 170 391 162 391 c 0,12,13
 144 392 144 392 144 420 c 0,14,15
 144 603 144 603 134 688 c 0,16,17
 126 756 126 756 183 756 c 0,18,19
 404 756 404 756 483 799 c 1,20,21
 548 836 548 836 548 928 c 0,22,23
 548 1054 548 1054 474 1134 c 0,24,25
 403 1210 403 1210 296 1210 c 0,26,27
 239 1210 239 1210 185 1137 c 0,28,29
 155 1096 155 1096 113 1096 c 0,30,31
 76 1096 76 1096 50.5 1135 c 128,-1,32
 25 1174 25 1174 25 1239 c 0,33,34
 25 1280 25 1280 78 1308 c 0,35,36
 135 1339 135 1339 226 1339 c 0,37,38
 407 1339 407 1339 532 1214 c 0,39,40
 654 1093 654 1093 654 928 c 0,0,1
304 109 m 0,41,42
 304 52 304 52 269.5 12.5 c 128,-1,43
 235 -27 235 -27 187 -27 c 0,44,45
 83 -27 83 -27 83 90 c 0,46,47
 83 144 83 144 119 181.5 c 128,-1,48
 155 219 155 219 204 219 c 0,49,50
 304 219 304 219 304 109 c 0,41,42
EndSplineSet
EndChar

StartChar: at
Encoding: 64 64 35
Width: 1799
Flags: HW
LayerCount: 2
Fore
SplineSet
1774 610 m 0,0,1
 1774 345 1774 345 1645 193 c 0,2,3
 1529 57 1529 57 1356 57 c 0,4,5
 1231 57 1231 57 1159 122 c 1,6,7
 1084 188 1084 188 1082 307 c 0,8,9
 1081 327 1081 327 1063 327 c 0,10,11
 1051 327 1051 327 1043 313 c 0,12,13
 883 57 883 57 727 57 c 0,14,15
 630 57 630 57 574.5 128.5 c 128,-1,16
 519 200 519 200 519 328 c 0,17,18
 519 571 519 571 670 748 c 1,19,20
 827 930 827 930 977 930 c 0,21,22
 1070 930 1070 930 1145 903 c 0,23,24
 1209 880 1209 880 1229 903 c 1,25,26
 1275 947 1275 947 1286 947 c 0,27,28
 1293 947 1293 947 1303 940 c 1,29,30
 1323 931 1323 931 1297 854 c 0,31,32
 1261 745 1261 745 1234 591 c 1,33,34
 1211 453 1211 453 1211 379 c 0,35,36
 1211 143 1211 143 1401 143 c 0,37,38
 1515 143 1515 143 1596 251 c 0,39,40
 1690 375 1690 375 1690 588 c 0,41,42
 1690 935 1690 935 1494 1111 c 0,43,44
 1307 1280 1307 1280 953 1280 c 0,45,46
 620 1280 620 1280 401.5 1046 c 128,-1,47
 183 812 183 812 183 457 c 0,48,49
 183 92 183 92 395.5 -124 c 128,-1,50
 608 -340 608 -340 973 -340 c 0,51,52
 1242 -340 1242 -340 1553 -172 c 0,53,54
 1566 -165 1566 -165 1587 -200 c 128,-1,55
 1608 -235 1608 -235 1608 -256 c 0,56,57
 1608 -263 1608 -263 1604 -264 c 0,58,59
 1265 -401 1265 -401 955 -401 c 0,60,61
 527 -401 527 -401 279 -184 c 0,62,63
 25 39 25 39 25 440 c 0,64,65
 25 827 25 827 297 1085 c 128,-1,66
 569 1343 569 1343 969 1343 c 0,67,68
 1336 1343 1336 1343 1550 1159 c 1,69,70
 1774 965 1774 965 1774 610 c 0,0,1
1115 709 m 0,71,72
 1115 831 1115 831 930 831 c 0,73,74
 824 831 824 831 752 711 c 0,75,76
 674 581 674 581 674 369 c 0,77,78
 674 182 674 182 801 182 c 0,79,80
 905 182 905 182 1013 380 c 0,81,82
 1115 566 1115 566 1115 709 c 0,71,72
EndSplineSet
EndChar

StartChar: A
Encoding: 65 65 36
Width: 1480
Flags: HW
LayerCount: 2
Fore
SplineSet
1454.22 20 m 0,0,1
 1448.22 -7 1448.22 -7 1441.22 -12 c 0,2,3
 1435.22 -16 1435.22 -16 1413.22 -10 c 1,4,5
 1270.22 16 1270.22 16 995.219 -4 c 0,6,7
 943.219 -8 943.219 -8 938.219 16 c 0,8,9
 933.219 44 933.219 44 971.219 59 c 0,10,11
 1079.22 103 1079.22 103 1079.22 141 c 0,12,13
 1079.22 156 1079.22 156 1067.22 184 c 0,14,15
 993.219 361 993.219 361 944.219 469 c 1,16,17
 873.219 465 873.219 465 694.219 465 c 0,18,19
 546.219 465 546.219 465 442.219 473 c 1,20,21
 407.219 387 407.219 387 344.219 233 c 0,22,23
 330.219 198 330.219 198 330.219 170 c 0,24,25
 330.219 114 330.219 114 391.219 88 c 0,26,27
 485.219 48 485.219 48 483.219 27 c 0,28,29
 481.219 -7 481.219 -7 420.219 0 c 0,30,31
 232.219 20 232.219 20 72.2188 -12 c 0,32,33
 30.2188 -21 30.2188 -21 25.2188 18 c 0,34,35
 21.2188 44 21.2188 44 90.2188 74 c 1,36,37
 164.219 105 164.219 105 215.219 217 c 0,38,39
 410.219 640 410.219 640 467.219 773 c 0,40,41
 605.219 1092 605.219 1092 662.219 1294 c 0,42,43
 670.219 1325 670.219 1325 741.219 1352 c 0,44,45
 758.219 1358 758.219 1358 784.219 1294 c 0,46,47
 1000.22 774 1000.22 774 1268.22 182 c 0,48,49
 1311.22 88 1311.22 88 1413.22 57 c 0,50,51
 1459.22 44 1459.22 44 1454.22 20 c 0,0,1
911.219 547 m 1,52,53
 845.219 697 845.219 697 705.219 1012 c 0,54,55
 697.219 1029 697.219 1029 687.219 1029 c 256,56,57
 677.219 1029 677.219 1029 670.219 1012 c 2,58,-1
 479.219 551 l 1,59,60
 586.219 543 586.219 543 719.219 543 c 0,61,62
 801.219 543 801.219 543 911.219 547 c 1,52,53
EndSplineSet
EndChar

StartChar: B
Encoding: 66 66 37
Width: 1101
Flags: HW
LayerCount: 2
Fore
SplineSet
1076 371 m 0,0,1
 1076 178 1076 178 927 81 c 0,2,3
 791 -8 791 -8 547 -8 c 0,4,5
 520 -8 520 -8 418.5 -2 c 128,-1,6
 317 4 317 4 254 4 c 0,7,8
 152 4 152 4 93 -8 c 0,9,10
 56 -16 56 -16 50 12 c 0,11,12
 44 37 44 37 93 57 c 0,13,14
 149 81 149 81 166 100 c 0,15,16
 191 126 191 126 191 184 c 2,17,-1
 191 1122 l 2,18,19
 191 1217 191 1217 80 1239 c 0,20,21
 25 1250 25 1250 25 1274 c 0,22,23
 25 1304 25 1304 40 1310 c 0,24,25
 50 1314 50 1314 86 1309 c 0,26,27
 130 1303 130 1303 230 1303 c 0,28,29
 285 1303 285 1303 408.5 1306 c 128,-1,30
 532 1309 532 1309 562 1309 c 0,31,32
 748 1309 748 1309 855 1239 c 0,33,34
 975 1161 975 1161 975 1008 c 0,35,36
 975 804 975 804 727 725 c 0,37,38
 699 716 699 716 729 711 c 0,39,40
 1076 651 1076 651 1076 371 c 0,0,1
772 991 m 0,41,42
 772 1122 772 1122 706 1180.5 c 128,-1,43
 640 1239 640 1239 494 1239 c 0,44,45
 378 1239 378 1239 369 1205 c 0,46,47
 367 1197 367 1197 367 1184 c 2,48,-1
 367 750 l 1,49,-1
 455 750 l 2,50,51
 621 750 621 750 696.5 806 c 128,-1,52
 772 862 772 862 772 991 c 0,41,42
871 348 m 0,53,54
 871 514 871 514 760 598 c 0,55,56
 665 670 665 670 512 670 c 0,57,58
 423 670 423 670 367 659 c 1,59,-1
 367 164 l 2,60,61
 367 68 367 68 566 68 c 0,62,63
 871 68 871 68 871 348 c 0,53,54
EndSplineSet
EndChar

StartChar: C
Encoding: 67 67 38
Width: 1318
Flags: HW
LayerCount: 2
Fore
SplineSet
1293 326 m 0,0,1
 1280 193 1280 193 1250 111 c 0,2,3
 1230 58 1230 58 1096 16 c 0,4,5
 950 -29 950 -29 760 -29 c 0,6,7
 446 -29 446 -29 237 158 c 0,8,9
 25 348 25 348 25 645 c 0,10,11
 25 948 25 948 244 1149 c 0,12,13
 455 1343 455 1343 754 1343 c 0,14,15
 966 1343 966 1343 1110 1292 c 0,16,17
 1238 1247 1238 1247 1243 1208 c 0,18,19
 1254 1132 1254 1132 1254 961 c 0,20,21
 1254 933 1254 933 1203 928 c 0,22,23
 1164 924 1164 924 1155 952 c 0,24,25
 1102 1123 1102 1123 1013.5 1189 c 128,-1,26
 925 1255 925 1255 748 1255 c 0,27,28
 526 1255 526 1255 386 1108 c 0,29,30
 234 948 234 948 234 670 c 0,31,32
 234 394 234 394 394 224 c 0,33,34
 550 57 550 57 793 57 c 0,35,36
 951 57 951 57 1042 125 c 0,37,38
 1129 190 1129 190 1184 338 c 0,39,40
 1200 381 1200 381 1256 369 c 0,41,42
 1296 360 1296 360 1293 326 c 0,0,1
EndSplineSet
EndChar

StartChar: D
Encoding: 68 68 39
Width: 1457
Flags: HW
LayerCount: 2
Fore
SplineSet
1432.33 682 m 0,0,1
 1432.33 334 1432.33 334 1202.33 154 c 1,2,3
 987.333 -12 987.333 -12 604.333 -12 c 0,4,5
 572.333 -12 572.333 -12 459.333 -6 c 128,-1,6
 346.333 0 346.333 0 285.333 0 c 0,7,8
 203.333 0 203.333 0 103.333 -8 c 0,9,10
 60.333 -12 60.333 -12 60.333 27 c 0,11,12
 60.333 53 60.333 53 103.333 57 c 0,13,14
 201.333 67 201.333 67 201.333 164 c 2,15,-1
 201.333 1122 l 2,16,17
 201.333 1176 201.333 1176 179.333 1195 c 0,18,19
 161.333 1210 161.333 1210 100.333 1223 c 0,20,21
 49.333 1233 49.333 1233 38.333 1240 c 128,-1,22
 27.333 1247 27.333 1247 25.333 1270 c 0,23,24
 22.333 1294 22.333 1294 46.333 1301 c 0,25,26
 51.333 1302 51.333 1302 90.333 1305 c 0,27,28
 305.333 1319 305.333 1319 660.333 1319 c 0,29,30
 1005.33 1319 1005.33 1319 1215.33 1153 c 0,31,32
 1432.33 981 1432.33 981 1432.33 682 c 0,0,1
1223.33 655 m 0,33,34
 1223.33 1235 1223.33 1235 627.333 1235 c 0,35,36
 487.333 1235 487.333 1235 487.333 1235 c 1,37,38
 377.333 1225 377.333 1225 377.333 1174 c 2,39,-1
 377.333 246 l 2,40,41
 377.333 148 377.333 148 429.333 115 c 128,-1,42
 481.333 82 481.333 82 637.333 82 c 0,43,44
 1223.33 82 1223.33 82 1223.33 655 c 0,33,34
EndSplineSet
EndChar

StartChar: E
Encoding: 69 69 40
Width: 1051
Flags: HW
LayerCount: 2
Fore
SplineSet
1024.33 250 m 0,0,1
 996.327 131 996.327 131 987.327 10 c 0,2,3
 986.327 -9 986.327 -9 926.327 -6 c 0,4,5
 770.327 2 770.327 2 528.327 2 c 0,6,7
 262.327 2 262.327 2 70.3271 -8 c 0,8,9
 27.3271 -10 27.3271 -10 27.3271 27 c 0,10,11
 27.3271 53 27.3271 53 70.3271 57 c 1,12,13
 130.327 64 130.327 64 147.327 80 c 0,14,15
 168.327 100 168.327 100 168.327 164 c 2,16,-1
 168.327 1085 l 2,17,18
 168.327 1178 168.327 1178 151.327 1202.5 c 128,-1,19
 134.327 1227 134.327 1227 57.3271 1251 c 0,20,21
 16.3271 1264 16.3271 1264 27.3271 1300 c 0,22,23
 32.3271 1319 32.3271 1319 43.3271 1321 c 1,24,25
 53.3271 1324 53.3271 1324 96.3271 1317 c 0,26,27
 160.327 1307 160.327 1307 430.327 1307 c 0,28,29
 699.327 1307 699.327 1307 893.327 1319 c 0,30,31
 958.327 1323 958.327 1323 958.327 1310 c 0,32,33
 958.327 1305 958.327 1305 956.327 1300 c 0,34,35
 935.327 1202 935.327 1202 938.327 1075 c 0,36,37
 939.327 1044 939.327 1044 909.327 1044 c 0,38,39
 881.327 1044 881.327 1044 870.327 1071 c 0,40,41
 842.327 1141 842.327 1141 821.327 1166 c 0,42,43
 789.327 1204 789.327 1204 729.327 1214 c 0,44,45
 681.327 1223 681.327 1223 391.327 1223 c 0,46,47
 358.327 1223 358.327 1223 349.327 1212 c 0,48,49
 344.327 1206 344.327 1206 344.327 1182 c 2,50,-1
 344.327 764 l 2,51,52
 344.327 739 344.327 739 373.327 739 c 0,53,54
 465.327 741 465.327 741 637.327 752 c 1,55,56
 667.327 755 667.327 755 681.327 781 c 0,57,58
 692.327 801 692.327 801 704.327 864 c 0,59,60
 713.327 907 713.327 907 751.327 895 c 1,61,62
 785.327 889 785.327 889 780.327 864 c 0,63,64
 752.327 728 752.327 728 762.327 510 c 0,65,66
 763.327 486 763.327 486 729.327 481 c 0,67,68
 699.327 477 699.327 477 694.327 514 c 0,69,70
 684.327 591 684.327 591 668.827 615.5 c 128,-1,71
 653.327 640 653.327 640 610.327 645 c 0,72,73
 528.327 655 528.327 655 362.327 655 c 0,74,75
 344.327 655 344.327 655 344.327 641 c 2,76,-1
 344.327 205 l 2,77,78
 344.327 112 344.327 112 452.327 91 c 0,79,80
 479.327 86 479.327 86 639.327 86 c 0,81,82
 888.327 86 888.327 86 950.327 260 c 0,83,84
 965.327 301 965.327 301 999.327 287 c 1,85,86
 1031.33 279 1031.33 279 1024.33 250 c 0,0,1
EndSplineSet
EndChar

StartChar: F
Encoding: 70 70 41
Width: 962
Flags: HW
LayerCount: 2
Fore
SplineSet
936 1300 m 0,0,1
 919 1233 919 1233 915 1075 c 0,2,3
 915 1044 915 1044 887 1044 c 256,4,5
 859 1044 859 1044 848 1071 c 0,6,7
 818 1144 818 1144 791 1173 c 0,8,9
 759 1207 759 1207 706 1214 c 1,10,11
 649 1223 649 1223 422 1223 c 0,12,13
 370 1223 370 1223 354 1212 c 0,14,15
 344 1205 344 1205 344 1182 c 2,16,-1
 344 729 l 2,17,18
 344 706 344 706 373 707 c 0,19,20
 462 708 462 708 631 719 c 1,21,22
 664 723 664 723 675.5 740.5 c 128,-1,23
 687 758 687 758 698 831 c 0,24,25
 705 871 705 871 745 862 c 0,26,27
 779 855 779 855 774 831 c 0,28,29
 746 695 746 695 756 477 c 0,30,31
 757 451 757 451 723 449 c 1,32,33
 695 446 695 446 688 479 c 0,34,35
 662 604 662 604 591.5 612.5 c 128,-1,36
 521 621 521 621 362 621 c 0,37,38
 344 621 344 621 344 608 c 2,39,-1
 344 158 l 2,40,41
 344 108 344 108 381 90 c 0,42,43
 410 75 410 75 506 63 c 1,44,45
 555 58 555 58 549 20 c 0,46,47
 543 -13 543 -13 461 -6 c 0,48,49
 224 13 224 13 70 -8 c 0,50,51
 27 -14 27 -14 27 27 c 0,52,53
 27 53 27 53 70 57 c 0,54,55
 168 68 168 68 168 229 c 2,56,-1
 168 1085 l 2,57,58
 168 1151 168 1151 144.5 1186.5 c 128,-1,59
 121 1222 121 1222 57 1251 c 0,60,61
 17 1269 17 1269 27 1300 c 1,62,63
 32 1319 32 1319 43 1321 c 1,64,65
 53 1324 53 1324 96 1317 c 0,66,67
 159 1307 159 1307 393 1307 c 0,68,69
 669 1307 669 1307 870 1319 c 0,70,71
 937 1323 937 1323 937 1308 c 0,72,73
 937 1304 937 1304 936 1300 c 0,0,1
EndSplineSet
EndChar

StartChar: G
Encoding: 71 71 42
Width: 1488
Flags: HW
LayerCount: 2
Fore
SplineSet
1463 596 m 0,0,1
 1463 564 1463 564 1416 557 c 0,2,3
 1350 547 1350 547 1339 543 c 0,4,5
 1303 528 1303 528 1303 485 c 2,6,-1
 1303 172 l 2,7,8
 1303 113 1303 113 1149 46 c 0,9,10
 976 -29 976 -29 760 -29 c 0,11,12
 446 -29 446 -29 237 158 c 0,13,14
 25 348 25 348 25 645 c 0,15,16
 25 948 25 948 244 1149 c 0,17,18
 456 1343 456 1343 754 1343 c 0,19,20
 983 1343 983 1343 1143 1288 c 0,21,22
 1261 1248 1261 1248 1266 1208 c 0,23,24
 1276 1132 1276 1132 1276 983 c 0,25,26
 1276 950 1276 950 1235 948 c 0,27,28
 1187 946 1187 946 1176 975 c 0,29,30
 1121 1124 1121 1124 1021.5 1189.5 c 128,-1,31
 922 1255 922 1255 748 1255 c 0,32,33
 508 1255 508 1255 373 1108 c 1,34,35
 234 955 234 955 234 670 c 0,36,37
 234 395 234 395 394 227 c 0,38,39
 549 63 549 63 793 63 c 0,40,41
 918 63 918 63 1026 108 c 0,42,43
 1129 151 1129 151 1129 195 c 2,44,-1
 1129 403 l 2,45,46
 1129 477 1129 477 1099 510 c 0,47,48
 1073 540 1073 540 996 563 c 0,49,50
 939 580 939 580 942 604 c 0,51,52
 946 630 946 630 955.5 636 c 128,-1,53
 965 642 965 642 1004 637 c 0,54,55
 1217 611 1217 611 1418 633 c 0,56,57
 1429 634 1429 634 1436 634 c 0,58,59
 1463 634 1463 634 1463 596 c 0,0,1
EndSplineSet
EndChar

StartChar: H
Encoding: 72 72 43
Width: 1582
Flags: HW
LayerCount: 2
Fore
SplineSet
1557 27 m 0,0,1
 1557 1 1557 1 1550.5 -5 c 128,-1,2
 1544 -11 1544 -11 1514 -8 c 0,3,4
 1318 9 1318 9 1119 0 c 0,5,6
 1080 -2 1080 -2 1069.5 4.5 c 128,-1,7
 1059 11 1059 11 1059 35 c 0,8,9
 1059 67 1059 67 1112 74 c 0,10,11
 1196 85 1196 85 1196 164 c 2,12,-1
 1196 557 l 2,13,14
 1196 600 1196 600 1186 614.5 c 128,-1,15
 1176 629 1176 629 1139 629 c 2,16,-1
 432 629 l 2,17,18
 388 629 388 629 377.5 618 c 128,-1,19
 367 607 367 607 367 561 c 2,20,-1
 367 164 l 2,21,22
 367 107 367 107 492 74 c 0,23,24
 547 59 547 59 547 35 c 0,25,26
 547 10 547 10 538 4 c 128,-1,27
 529 -2 529 -2 488 0 c 0,28,29
 289 9 289 9 93 -8 c 0,30,31
 63 -11 63 -11 56.5 -5 c 128,-1,32
 50 1 50 1 50 27 c 256,33,34
 50 53 50 53 93 57 c 0,35,36
 191 67 191 67 191 164 c 2,37,-1
 191 1124 l 2,38,39
 191 1217 191 1217 80 1241 c 0,40,41
 40 1250 40 1250 32.5 1254.5 c 128,-1,42
 25 1259 25 1259 25 1276 c 0,43,44
 25 1289 25 1289 27 1295 c 0,45,46
 33 1314 33 1314 86 1311 c 0,47,48
 339 1297 339 1297 494 1311 c 0,49,50
 522 1313 522 1313 530.5 1307 c 128,-1,51
 539 1301 539 1301 539 1276 c 0,52,53
 539 1257 539 1257 494 1247 c 0,54,55
 414 1230 414 1230 398 1220 c 0,56,57
 367 1200 367 1200 367 1139 c 2,58,-1
 367 801 l 2,59,60
 367 731 367 731 435 731 c 2,61,-1
 1131 731 l 2,62,63
 1172 731 1172 731 1182 740 c 0,64,65
 1196 753 1196 753 1196 805 c 2,66,-1
 1196 1149 l 2,67,68
 1196 1203 1196 1203 1168 1221 c 0,69,70
 1152 1232 1152 1232 1084 1245 c 0,71,72
 1028 1256 1028 1256 1028 1280 c 0,73,74
 1028 1307 1028 1307 1038 1314 c 128,-1,75
 1048 1321 1048 1321 1090 1317 c 0,76,77
 1201 1306 1201 1306 1318 1312 c 0,78,79
 1401 1316 1401 1316 1485 1321 c 1,80,81
 1513 1321 1513 1321 1520.5 1316 c 128,-1,82
 1528 1311 1528 1311 1528 1284 c 0,83,84
 1528 1258 1528 1258 1485 1253 c 0,85,86
 1375 1241 1375 1241 1375 1149 c 2,87,-1
 1375 164 l 2,88,89
 1375 115 1375 115 1410 92 c 0,90,91
 1438 74 1438 74 1514 57 c 0,92,93
 1557 48 1557 48 1557 27 c 0,0,1
EndSplineSet
EndChar

StartChar: I
Encoding: 73 73 44
Width: 573
Flags: HW
LayerCount: 2
Fore
SplineSet
548 1294 m 0,0,1
 548 1269 548 1269 494 1253 c 0,2,3
 373 1217 373 1217 373 1159 c 2,4,-1
 373 186 l 2,5,6
 373 92 373 92 484 72 c 0,7,8
 539 62 539 62 539 33 c 0,9,10
 539 8 539 8 529.5 2 c 128,-1,11
 520 -4 520 -4 478 -2 c 0,12,13
 214 9 214 9 70 -2 c 0,14,15
 33 -5 33 -5 27 12 c 0,16,17
 25 19 25 19 25 33 c 0,18,19
 25 53 25 53 70 63 c 0,20,21
 154 82 154 82 167 90 c 0,22,23
 199 110 199 110 199 172 c 2,24,-1
 199 1153 l 2,25,26
 199 1236 199 1236 87 1255 c 0,27,28
 40 1263 40 1263 40 1284 c 0,29,30
 40 1313 40 1313 47.5 1319.5 c 128,-1,31
 55 1326 55 1326 83 1323 c 0,32,33
 278 1302 278 1302 486 1327 c 0,34,35
 525 1332 525 1332 532 1330 c 0,36,37
 548 1325 548 1325 548 1294 c 0,0,1
EndSplineSet
EndChar

StartChar: J
Encoding: 74 74 45
Width: 851
Flags: HW
LayerCount: 2
Fore
SplineSet
826 1294 m 0,0,1
 830 1268 830 1268 779 1253 c 0,2,3
 715 1235 715 1235 694 1220 c 0,4,5
 666 1199 666 1199 666 1153 c 2,6,-1
 666 98 l 2,7,8
 666 -129 666 -129 539 -253 c 0,9,10
 424 -365 424 -365 238 -365 c 0,11,12
 116 -365 116 -365 46 -322 c 0,13,14
 25 -309 25 -309 25 -286 c 256,15,16
 25 -263 25 -263 44 -223 c 0,17,18
 72 -164 72 -164 105 -164 c 0,19,20
 125 -164 125 -164 185 -203 c 0,21,22
 264 -254 264 -254 328 -254 c 0,23,24
 418 -254 418 -254 452 -198 c 0,25,26
 490 -136 490 -136 490 39 c 2,27,-1
 490 1163 l 2,28,29
 490 1206 490 1206 465 1223 c 0,30,31
 447 1235 447 1235 371 1255 c 0,32,33
 328 1267 328 1267 330 1294 c 0,34,35
 333 1325 333 1325 376 1321 c 0,36,37
 591 1301 591 1301 779 1329 c 0,38,39
 807 1333 807 1333 814.5 1327 c 128,-1,40
 822 1321 822 1321 826 1294 c 0,0,1
EndSplineSet
EndChar

StartChar: K
Encoding: 75 75 46
Width: 1326
Flags: HW
LayerCount: 2
Fore
SplineSet
1301 35 m 0,0,1
 1301 11 1301 11 1294.5 5 c 128,-1,2
 1288 -1 1288 -1 1262 0 c 0,3,4
 1003 11 1003 11 850 -10 c 0,5,6
 813 -15 813 -15 807 6 c 0,7,8
 801 30 801 30 848 51 c 0,9,10
 876 63 876 63 876 98 c 256,11,12
 876 133 876 133 844 166 c 0,13,14
 704 310 704 310 363 635 c 1,15,-1
 363 164 l 2,16,17
 363 107 363 107 482 74 c 0,18,19
 535 59 535 59 535 35 c 0,20,21
 535 10 535 10 526 4 c 128,-1,22
 517 -2 517 -2 480 0 c 0,23,24
 303 8 303 8 89 -8 c 0,25,26
 48 -11 48 -11 48 27 c 0,27,28
 48 53 48 53 89 57 c 0,29,30
 183 68 183 68 183 164 c 2,31,-1
 183 1124 l 2,32,33
 183 1217 183 1217 78 1241 c 0,34,35
 41 1250 41 1250 33 1254.5 c 128,-1,36
 25 1259 25 1259 25 1276 c 0,37,38
 25 1300 25 1300 34 1306.5 c 128,-1,39
 43 1313 43 1313 85 1311 c 0,40,41
 336 1297 336 1297 484 1311 c 0,42,43
 527 1315 527 1315 527 1276 c 0,44,45
 527 1257 527 1257 484 1247 c 0,46,47
 407 1230 407 1230 392 1219 c 0,48,49
 363 1199 363 1199 363 1139 c 2,50,-1
 363 702 l 1,51,52
 645 938 645 938 818 1094 c 0,53,54
 869 1139 869 1139 869 1179 c 256,55,56
 869 1219 869 1219 814 1239 c 0,57,58
 782 1250 782 1250 780 1252 c 0,59,60
 765 1261 765 1261 769 1282 c 1,61,62
 772 1305 772 1305 781 1309 c 0,63,64
 791 1314 791 1314 828 1307 c 1,65,66
 1022 1287 1022 1287 1184 1303 c 0,67,68
 1209 1305 1209 1305 1216 1300 c 128,-1,69
 1223 1295 1223 1295 1227 1272 c 0,70,71
 1231 1252 1231 1252 1222 1244.5 c 128,-1,72
 1213 1237 1213 1237 1178 1227 c 0,73,74
 1084 1198 1084 1198 941 1081 c 0,75,76
 835 995 835 995 496 711 c 1,77,78
 862 362 862 362 1070 176 c 0,79,80
 1161 94 1161 94 1256 68 c 0,81,82
 1301 55 1301 55 1301 35 c 0,0,1
EndSplineSet
EndChar

StartChar: L
Encoding: 76 76 47
Width: 1026
Flags: HW
LayerCount: 2
Fore
SplineSet
999.568 250 m 0,0,1
 965.568 122 965.568 122 965.568 10 c 0,2,3
 965.568 -9 965.568 -9 901.568 -6 c 0,4,5
 743.568 2 743.568 2 510.568 2 c 0,6,7
 262.568 2 262.568 2 68.5684 -8 c 0,8,9
 39.5684 -10 39.5684 -10 32.5684 -3.5 c 128,-1,10
 25.5684 3 25.5684 3 25.5684 27 c 0,11,12
 25.5684 53 25.5684 53 68.5684 57 c 0,13,14
 166.568 67 166.568 67 166.568 162 c 2,15,-1
 166.568 1085 l 2,16,17
 166.568 1155 166.568 1155 147.568 1189 c 0,18,19
 124.568 1229 124.568 1229 59.5684 1251 c 0,20,21
 20.5684 1265 20.5684 1265 25.5684 1296 c 0,22,23
 28.5684 1318 28.5684 1318 38.5684 1322 c 256,24,25
 48.5684 1326 48.5684 1326 90.5684 1321 c 0,26,27
 236.568 1305 236.568 1305 438.568 1323 c 0,28,29
 474.568 1326 474.568 1326 479.568 1325 c 0,30,31
 499.568 1322 499.568 1322 502.568 1298 c 0,32,33
 505.568 1271 505.568 1271 489.568 1261 c 0,34,35
 483.568 1257 483.568 1257 448.568 1249 c 0,36,37
 378.568 1233 378.568 1233 360.568 1212.5 c 128,-1,38
 342.568 1192 342.568 1192 342.568 1126 c 2,39,-1
 342.568 231 l 2,40,41
 342.568 147 342.568 147 399.068 116.5 c 128,-1,42
 455.568 86 455.568 86 604.568 86 c 0,43,44
 746.568 86 746.568 86 815.068 122.5 c 128,-1,45
 883.568 159 883.568 159 926.568 260 c 0,46,47
 942.568 300 942.568 300 975.568 287 c 1,48,49
 1007.57 279 1007.57 279 999.568 250 c 0,0,1
EndSplineSet
EndChar

StartChar: M
Encoding: 77 77 48
Width: 1810
Flags: HW
LayerCount: 2
Fore
SplineSet
1785 33 m 0,0,1
 1785 8 1785 8 1774.5 2 c 128,-1,2
 1764 -4 1764 -4 1721 -2 c 0,3,4
 1460 9 1460 9 1316 -2 c 0,5,6
 1271 -5 1271 -5 1271 33 c 0,7,8
 1271 54 1271 54 1316 63 c 1,9,10
 1405 83 1405 83 1423 96 c 0,11,12
 1445 113 1445 113 1443 172 c 2,13,-1
 1408 1026 l 2,14,15
 1407 1052 1407 1052 1394 1052 c 0,16,17
 1384 1052 1384 1052 1375 1034 c 0,18,19
 1197 676 1197 676 1125 525 c 0,20,21
 980 224 980 224 920 68 c 1,22,23
 893 -5 893 -5 892 -7 c 0,24,25
 882 -25 882 -25 863 -31 c 0,26,27
 853 -34 853 -34 846 -34 c 0,28,29
 826 -34 826 -34 810 25 c 0,30,31
 747 251 747 251 376 1028 c 0,32,33
 365 1051 365 1051 352 1051 c 0,34,35
 336 1051 336 1051 335 1020 c 0,36,37
 321 723 321 723 302 229 c 0,38,39
 296 97 296 97 435 72 c 0,40,41
 490 62 490 62 490 33 c 0,42,43
 490 8 490 8 479.5 2 c 128,-1,44
 469 -4 469 -4 427 -2 c 0,45,46
 197 7 197 7 70 -2 c 0,47,48
 25 -5 25 -5 25 33 c 0,49,50
 25 54 25 54 70 63 c 0,51,52
 150 80 150 80 175 116 c 0,53,54
 195 144 195 144 197 217 c 2,55,-1
 232 1102 l 2,56,57
 234 1160 234 1160 209 1191 c 0,58,59
 187 1218 187 1218 120 1249 c 0,60,61
 72 1271 72 1271 75 1296 c 1,62,63
 77 1323 77 1323 118 1317 c 0,64,65
 271 1295 271 1295 386 1309 c 0,66,67
 430 1314 430 1314 446 1307 c 128,-1,68
 462 1300 462 1300 474 1272 c 2,69,-1
 892 315 l 2,70,71
 900 295 900 295 906 295 c 256,72,73
 912 295 912 295 924 322 c 0,74,75
 964 408 964 408 1371 1249 c 0,76,77
 1396 1300 1396 1300 1434 1300 c 0,78,79
 1527 1300 1527 1300 1694 1327 c 0,80,81
 1732 1333 1732 1333 1741 1331 c 0,82,83
 1758 1326 1758 1326 1758 1294 c 0,84,85
 1758 1270 1758 1270 1705 1253 c 0,86,87
 1580 1214 1580 1214 1582 1159 c 2,88,-1
 1619 186 l 2,89,90
 1621 128 1621 128 1648 104 c 1,91,92
 1670 83 1670 83 1729 72 c 0,93,94
 1785 61 1785 61 1785 33 c 0,0,1
EndSplineSet
EndChar

StartChar: N
Encoding: 78 78 49
Width: 1580
Flags: HW
LayerCount: 2
Fore
SplineSet
1555 1296 m 0,0,1
 1555 1271 1555 1271 1501 1255 c 0,2,3
 1381 1221 1381 1221 1381 1116 c 2,4,-1
 1381 397 l 2,5,6
 1381 170 1381 170 1387 31 c 0,7,8
 1389 -22 1389 -22 1362 -29 c 0,9,10
 1317 -40 1317 -40 1286 18 c 0,11,12
 1236 113 1236 113 894 486 c 0,13,14
 608 797 608 797 340 1067 c 0,15,16
 331 1076 331 1076 322 1072 c 0,17,18
 312 1067 312 1067 312 1049 c 2,19,-1
 312 229 l 2,20,21
 312 97 312 97 445 72 c 0,22,23
 500 61 500 61 500 33 c 0,24,25
 500 -5 500 -5 438 -2 c 0,26,27
 200 8 200 8 68 -2 c 0,28,29
 25 -5 25 -5 25 33 c 0,30,31
 25 54 25 54 68 63 c 1,32,33
 145 81 145 81 171 112 c 128,-1,34
 197 143 197 143 197 217 c 2,35,-1
 197 1102 l 2,36,37
 197 1160 197 1160 173 1191 c 1,38,39
 150 1219 150 1219 84 1249 c 0,40,41
 35 1272 35 1272 37 1296 c 0,42,43
 40 1323 40 1323 82 1317 c 0,44,45
 212 1299 212 1299 307 1309 c 0,46,47
 356 1314 356 1314 395 1272 c 2,48,-1
 1233 379 l 2,49,50
 1250 360 1250 360 1256 360 c 0,51,52
 1264 360 1264 360 1264 387 c 2,53,-1
 1264 1110 l 2,54,55
 1264 1237 1264 1237 1131 1260 c 0,56,57
 1084 1268 1084 1268 1084 1288 c 0,58,59
 1084 1330 1084 1330 1127 1325 c 0,60,61
 1291 1307 1291 1307 1493 1329 c 0,62,63
 1528 1333 1528 1333 1538 1330 c 0,64,65
 1555 1325 1555 1325 1555 1296 c 0,0,1
EndSplineSet
EndChar

StartChar: O
Encoding: 79 79 50
Width: 1494
Flags: HW
LayerCount: 2
Fore
SplineSet
1469 659 m 0,0,1
 1469 370 1469 370 1255 169 c 0,2,3
 1045 -29 1045 -29 750 -29 c 0,4,5
 440 -29 440 -29 235 157 c 1,6,7
 25 349 25 349 25 653 c 0,8,9
 25 947 25 947 238 1147 c 0,10,11
 448 1343 448 1343 750 1343 c 0,12,13
 1058 1343 1058 1343 1262 1152 c 0,14,15
 1469 958 1469 958 1469 659 c 0,0,1
1266 625 m 0,16,17
 1266 916 1266 916 1107 1085 c 0,18,19
 954 1247 954 1247 703 1247 c 0,20,21
 495 1247 495 1247 361.5 1093.5 c 128,-1,22
 228 940 228 940 228 694 c 0,23,24
 228 399 228 399 383 230 c 0,25,26
 534 66 534 66 793 66 c 0,27,28
 1002 66 1002 66 1134 220 c 128,-1,29
 1266 374 1266 374 1266 625 c 0,16,17
EndSplineSet
EndChar

StartChar: P
Encoding: 80 80 51
Width: 1055
Flags: HW
LayerCount: 2
Fore
SplineSet
1030 950 m 0,0,1
 1030 760 1030 760 875 650 c 1,2,3
 727 547 727 547 490 547 c 0,4,5
 471 547 471 547 426.5 550 c 128,-1,6
 382 553 382 553 377 553 c 0,7,8
 367 553 367 553 367 522 c 2,9,-1
 367 164 l 2,10,11
 367 117 367 117 386.5 103 c 128,-1,12
 406 89 406 89 492 74 c 0,13,14
 547 64 547 64 547 35 c 0,15,16
 547 10 547 10 538 4 c 128,-1,17
 529 -2 529 -2 488 0 c 0,18,19
 307 8 307 8 93 -8 c 0,20,21
 50 -11 50 -11 50 27 c 0,22,23
 50 53 50 53 93 57 c 0,24,25
 191 67 191 67 191 164 c 2,26,-1
 191 1122 l 2,27,28
 191 1217 191 1217 80 1239 c 0,29,30
 25 1250 25 1250 25 1274 c 0,31,32
 25 1305 25 1305 40 1311 c 0,33,34
 50 1315 50 1315 86 1309 c 1,35,36
 132 1300 132 1300 219 1300 c 0,37,38
 263 1300 263 1300 377.5 1304.5 c 128,-1,39
 492 1309 492 1309 562 1309 c 0,40,41
 776 1309 776 1309 900 1219 c 0,42,43
 1030 1125 1030 1125 1030 950 c 0,0,1
836 928 m 0,44,45
 836 1103 836 1103 754 1173 c 0,46,47
 677 1239 677 1239 494 1239 c 0,48,49
 419 1239 419 1239 393 1218.5 c 128,-1,50
 367 1198 367 1198 367 1130 c 2,51,-1
 367 651 l 2,52,53
 367 623 367 623 500 623 c 0,54,55
 655 623 655 623 745.5 702 c 128,-1,56
 836 781 836 781 836 928 c 0,44,45
EndSplineSet
EndChar

StartChar: Q
Encoding: 81 81 52
Width: 2146
Flags: HW
LayerCount: 2
Fore
SplineSet
2120 -258 m 1,0,1
 2126 -297 2126 -297 2106 -303 c 0,2,3
 1889 -365 1889 -365 1649 -365 c 0,4,5
 1406 -365 1406 -365 1190 -282 c 0,6,7
 953 -192 953 -192 815 -27 c 1,8,9
 805 -27 805 -27 783 -28 c 128,-1,10
 761 -29 761 -29 750 -29 c 0,11,12
 440 -29 440 -29 235 157 c 1,13,14
 25 349 25 349 25 653 c 0,15,16
 25 947 25 947 238 1147 c 0,17,18
 448 1343 448 1343 750 1343 c 0,19,20
 1058 1343 1058 1343 1262 1152 c 0,21,22
 1469 958 1469 958 1469 659 c 0,23,24
 1469 447 1469 447 1346 273 c 0,25,26
 1227 105 1227 105 1033 27 c 1,27,28
 1151 -117 1151 -117 1336 -198 c 0,29,30
 1512 -274 1512 -274 1700 -274 c 0,31,32
 1892 -274 1892 -274 2089 -236 c 0,33,34
 2111 -231 2111 -231 2120 -258 c 1,0,1
1266 625 m 0,35,36
 1266 916 1266 916 1107 1085 c 0,37,38
 954 1247 954 1247 703 1247 c 0,39,40
 495 1247 495 1247 361.5 1093.5 c 128,-1,41
 228 940 228 940 228 694 c 0,42,43
 228 399 228 399 383 230 c 0,44,45
 534 66 534 66 793 66 c 0,46,47
 1002 66 1002 66 1134 220 c 128,-1,48
 1266 374 1266 374 1266 625 c 0,35,36
EndSplineSet
EndChar

StartChar: R
Encoding: 82 82 53
Width: 1240
Flags: HW
LayerCount: 2
Fore
SplineSet
1215 -2 m 0,0,1
 1216 -25 1216 -25 1176 -25 c 0,2,3
 817 -25 817 -25 498 590 c 1,4,5
 375 584 375 584 367 584 c 1,6,-1
 367 164 l 2,7,8
 367 117 367 117 390 101.5 c 128,-1,9
 413 86 413 86 492 74 c 0,10,11
 547 65 547 65 547 35 c 0,12,13
 547 10 547 10 538 4 c 128,-1,14
 529 -2 529 -2 488 0 c 0,15,16
 307 8 307 8 93 -8 c 0,17,18
 50 -11 50 -11 50 27 c 0,19,20
 50 53 50 53 93 57 c 0,21,22
 191 67 191 67 191 164 c 2,23,-1
 191 1122 l 2,24,25
 191 1217 191 1217 80 1239 c 0,26,27
 25 1250 25 1250 25 1274 c 0,28,29
 25 1311 25 1311 62 1311 c 0,30,31
 73 1311 73 1311 86 1309 c 0,32,33
 127 1303 127 1303 211 1303 c 0,34,35
 239 1303 239 1303 352 1306 c 128,-1,36
 465 1309 465 1309 562 1309 c 0,37,38
 762 1309 762 1309 878 1234 c 0,39,40
 1008 1151 1008 1151 1008 989 c 0,41,42
 1008 712 1008 712 688 623 c 1,43,44
 790 391 790 391 928 225 c 0,45,46
 1069 55 1069 55 1182 37 c 0,47,48
 1213 32 1213 32 1215 -2 c 0,0,1
813 965 m 0,49,50
 813 1113 813 1113 737 1176 c 128,-1,51
 661 1239 661 1239 494 1239 c 0,52,53
 419 1239 419 1239 393 1218.5 c 128,-1,54
 367 1198 367 1198 367 1130 c 2,55,-1
 367 659 l 1,56,57
 609 667 609 667 715 744 c 0,58,59
 813 815 813 815 813 965 c 0,49,50
EndSplineSet
EndChar

StartChar: S
Encoding: 83 83 54
Width: 939
Flags: HW
LayerCount: 2
Fore
SplineSet
913.756 348 m 0,0,1
 913.756 179 913.756 179 789.756 77 c 0,2,3
 660.756 -29 660.756 -29 436.756 -29 c 0,4,5
 141.756 -29 141.756 -29 90.7559 80 c 0,6,7
 59.7559 146 59.7559 146 28.7559 248 c 1,8,9
 15.7559 295 15.7559 295 47.7559 309 c 0,10,11
 87.7559 327 87.7559 327 110.756 293 c 0,12,13
 195.756 167 195.756 167 281.756 114 c 0,14,15
 364.756 63 364.756 63 475.756 63 c 0,16,17
 753.756 63 753.756 63 753.756 285 c 0,18,19
 753.756 372 753.756 372 692.756 433 c 1,20,21
 633.756 490 633.756 490 448.756 590 c 0,22,23
 214.756 716 214.756 716 140.756 788 c 0,24,25
 49.7559 877 49.7559 877 49.7559 1008 c 0,26,27
 49.7559 1147 49.7559 1147 166.256 1245 c 128,-1,28
 282.756 1343 282.756 1343 463.756 1343 c 0,29,30
 591.756 1343 591.756 1343 712.756 1311 c 0,31,32
 805.756 1286 805.756 1286 817.756 1247 c 0,33,34
 842.756 1166 842.756 1166 850.756 1047 c 0,35,36
 852.756 1004 852.756 1004 821.756 999 c 0,37,38
 782.756 993 782.756 993 766.756 1026 c 0,39,40
 704.756 1151 704.756 1151 625.756 1202 c 0,41,42
 552.756 1249 552.756 1249 434.756 1249 c 0,43,44
 329.756 1249 329.756 1249 268.756 1200 c 128,-1,45
 207.756 1151 207.756 1151 207.756 1061 c 0,46,47
 207.756 977 207.756 977 267.756 916 c 0,48,49
 324.756 859 324.756 859 477.756 782 c 0,50,51
 713.756 664 713.756 664 802.756 582 c 0,52,53
 913.756 481 913.756 481 913.756 348 c 0,0,1
EndSplineSet
EndChar

StartChar: T
Encoding: 84 84 55
Width: 1355
Flags: HW
LayerCount: 2
Fore
SplineSet
1329.88 997 m 0,0,1
 1328.88 979 1328.88 979 1325.38 972.5 c 128,-1,2
 1321.88 966 1321.88 966 1304.88 963 c 0,3,4
 1267.88 955 1267.88 955 1255.88 991 c 0,5,6
 1212.88 1124 1212.88 1124 1153.88 1168 c 0,7,8
 1071.88 1229 1071.88 1229 866.884 1229 c 0,9,10
 783.884 1229 783.884 1229 775.884 1211 c 0,11,12
 772.884 1205 772.884 1205 772.884 1194 c 2,13,-1
 772.884 197 l 2,14,15
 772.884 133 772.884 133 802.884 107.5 c 128,-1,16
 832.884 82 832.884 82 921.884 61 c 0,17,18
 959.884 53 959.884 53 964.884 50 c 0,19,20
 978.884 41 978.884 41 974.884 12 c 0,21,22
 971.884 -11 971.884 -11 952.884 -13 c 0,23,24
 950.884 -14 950.884 -14 911.884 -10 c 0,25,26
 647.884 13 647.884 13 475.884 -8 c 0,27,28
 434.884 -13 434.884 -13 422.884 -8 c 0,29,30
 412.884 -3 412.884 -3 409.884 16 c 1,31,32
 401.884 48 401.884 48 444.884 59 c 0,33,34
 530.884 81 530.884 81 560.884 112 c 0,35,36
 594.884 147 594.884 147 594.884 225 c 2,37,-1
 594.884 1194 l 2,38,39
 594.884 1223 594.884 1223 558.884 1228 c 0,40,41
 554.884 1229 554.884 1229 499.884 1229 c 0,42,43
 309.884 1229 309.884 1229 219.884 1163 c 0,44,45
 151.884 1114 151.884 1114 98.8838 983 c 0,46,47
 81.8838 942 81.8838 942 51.8838 956 c 1,48,49
 17.8838 964 17.8838 964 26.8838 993 c 0,50,51
 61.8838 1101 61.8838 1101 61.8838 1298 c 0,52,53
 61.8838 1321 61.8838 1321 122.884 1317 c 0,54,55
 338.884 1303 338.884 1303 600.884 1303 c 0,56,57
 1096.88 1303 1096.88 1303 1243.88 1323 c 0,58,59
 1299.88 1331 1299.88 1331 1304.88 1305 c 0,60,61
 1332.88 1172 1332.88 1172 1329.88 997 c 0,0,1
EndSplineSet
EndChar

StartChar: U
Encoding: 85 85 56
Width: 1547
Flags: HW
LayerCount: 2
Fore
SplineSet
1522 1282 m 0,0,1
 1522 1262 1522 1262 1477 1251 c 0,2,3
 1399 1233 1399 1233 1378 1215 c 0,4,5
 1350 1190 1350 1190 1350 1122 c 2,6,-1
 1350 549 l 2,7,8
 1350 274 1350 274 1207 125 c 0,9,10
 1060 -29 1060 -29 781 -29 c 0,11,12
 191 -29 191 -29 191 526 c 2,13,-1
 191 1126 l 2,14,15
 191 1221 191 1221 80 1241 c 0,16,17
 42 1248 42 1248 33.5 1254 c 128,-1,18
 25 1260 25 1260 25 1278 c 0,19,20
 25 1309 25 1309 40 1314 c 0,21,22
 47 1317 47 1317 87 1315 c 0,23,24
 356 1301 356 1301 498 1315 c 0,25,26
 528 1318 528 1318 534.5 1312 c 128,-1,27
 541 1306 541 1306 541 1278 c 0,28,29
 541 1257 541 1257 498 1247 c 0,30,31
 414 1229 414 1229 401 1221 c 0,32,33
 369 1201 369 1201 369 1139 c 2,34,-1
 369 561 l 2,35,36
 369 306 369 306 475 187 c 128,-1,37
 581 68 581 68 816 68 c 0,38,39
 1219 68 1219 68 1219 532 c 2,40,-1
 1219 1108 l 2,41,42
 1219 1176 1219 1176 1184 1207 c 0,43,44
 1156 1233 1156 1233 1086 1245 c 0,45,46
 1031 1255 1031 1255 1031 1282 c 0,47,48
 1031 1313 1031 1313 1047 1318 c 0,49,50
 1053 1320 1053 1320 1094 1319 c 0,51,52
 1372 1308 1372 1308 1477 1319 c 0,53,54
 1517 1323 1517 1323 1521 1303 c 0,55,56
 1522 1296 1522 1296 1522 1282 c 0,0,1
EndSplineSet
EndChar

StartChar: V
Encoding: 86 86 57
Width: 1553
Flags: HW
LayerCount: 2
Fore
SplineSet
1528 1290 m 0,0,1
 1528 1268 1528 1268 1517 1259 c 128,-1,2
 1506 1250 1506 1250 1463 1237 c 0,3,4
 1411 1221 1411 1221 1346 1100 c 0,5,6
 1103 646 1103 646 850 23 c 0,7,8
 833 -20 833 -20 776 -35 c 0,9,10
 774 -36 774 -36 770 -37 c 1,11,12
 747 -37 747 -37 731 23 c 0,13,14
 698 148 698 148 532 507 c 128,-1,15
 366 866 366 866 215 1135 c 0,16,17
 163 1229 163 1229 74 1247 c 0,18,19
 25 1257 25 1257 25 1276 c 0,20,21
 25 1322 25 1322 68 1317 c 0,22,23
 251 1297 251 1297 496 1335 c 0,24,25
 532 1341 532 1341 541 1339 c 0,26,27
 557 1334 557 1334 557 1305 c 0,28,29
 557 1282 557 1282 506 1264 c 0,30,31
 406 1227 406 1227 406 1186 c 0,32,33
 406 1169 406 1169 418 1145 c 0,34,35
 520 945 520 945 809 276 c 0,36,37
 819 254 819 254 828 254 c 0,38,39
 836 254 836 254 846 276 c 0,40,41
 929 468 929 468 1215 1102 c 0,42,43
 1225 1126 1225 1126 1225 1146 c 0,44,45
 1225 1209 1225 1209 1104 1251 c 0,46,47
 1059 1267 1059 1267 1061 1298 c 0,48,49
 1064 1333 1064 1333 1127 1325 c 0,50,51
 1326 1301 1326 1301 1483 1321 c 0,52,53
 1528 1327 1528 1327 1528 1290 c 0,0,1
EndSplineSet
EndChar

StartChar: W
Encoding: 87 87 58
Width: 2182
Flags: HW
LayerCount: 2
Fore
SplineSet
2157 1274 m 0,0,1
 2157 1240 2157 1240 2093 1221 c 0,2,3
 2024 1200 2024 1200 1977 1083 c 0,4,5
 1752 529 1752 529 1559 23 c 0,6,7
 1543 -19 1543 -19 1485 -35 c 1,8,9
 1482 -37 1482 -37 1478 -37 c 0,10,11
 1450 -37 1450 -37 1438 23 c 0,12,13
 1392 241 1392 241 1104 891 c 1,14,15
 979 577 979 577 772 23 c 0,16,17
 757 -19 757 -19 701 -35 c 0,18,19
 697 -36 697 -36 693 -37 c 1,20,21
 665 -37 665 -37 654 23 c 0,22,23
 616 224 616 224 215 1118 c 0,24,25
 174 1210 174 1210 74 1233 c 0,26,27
 25 1244 25 1244 25 1262 c 0,28,29
 25 1304 25 1304 68 1300 c 0,30,31
 223 1286 223 1286 455 1321 c 0,32,33
 494 1327 494 1327 504 1322 c 0,34,35
 513 1317 513 1317 516 1292 c 1,36,37
 521 1272 521 1272 467 1245 c 0,38,39
 403 1213 403 1213 403 1172 c 0,40,41
 403 1154 403 1154 412 1130 c 0,42,43
 512 865 512 865 731 287 c 0,44,45
 738 268 738 268 750 268 c 0,46,47
 761 268 761 268 768 287 c 2,48,-1
 1045 1024 l 1,49,50
 1029 1057 1029 1057 1000 1118 c 0,51,52
 964 1193 964 1193 873 1235 c 0,53,54
 827 1256 827 1256 830 1276 c 0,55,56
 835 1321 835 1321 875 1315 c 0,57,58
 1052 1286 1052 1286 1272 1309 c 0,59,60
 1312 1313 1312 1313 1321.5 1307.5 c 128,-1,61
 1331 1302 1331 1302 1331 1276 c 0,62,63
 1331 1251 1331 1251 1280 1235 c 0,64,65
 1182 1204 1182 1204 1182 1170 c 0,66,67
 1182 1157 1182 1157 1192 1130 c 2,68,-1
 1514 287 l 2,69,70
 1521 267 1521 267 1534 267 c 0,71,72
 1545 267 1545 267 1553 287 c 2,73,-1
 1852 1085 l 2,74,75
 1860 1109 1860 1109 1860 1128 c 0,76,77
 1860 1197 1860 1197 1741 1237 c 0,78,79
 1696 1252 1696 1252 1698 1282 c 0,80,81
 1700 1304 1700 1304 1709 1309 c 0,82,83
 1720 1314 1720 1314 1764 1309 c 0,84,85
 1950 1287 1950 1287 2114 1305 c 0,86,87
 2157 1309 2157 1309 2157 1274 c 0,0,1
EndSplineSet
EndChar

StartChar: X
Encoding: 88 88 59
Width: 1412
Flags: HW
LayerCount: 2
Fore
SplineSet
1387 33 m 0,0,1
 1384 -10 1384 -10 1344 -4 c 0,2,3
 1164 24 1164 24 932 -2 c 0,4,5
 899 -6 899 -6 891 -3 c 0,6,7
 875 3 875 3 877 31 c 0,8,9
 878 56 878 56 927 72 c 128,-1,10
 976 88 976 88 976 130 c 0,11,12
 976 153 976 153 959 176 c 0,13,14
 818 363 818 363 672 567 c 1,15,16
 464 321 464 321 406 221 c 0,17,18
 380 177 380 177 380 144 c 0,19,20
 380 95 380 95 441 72 c 0,21,22
 484 55 484 55 481 25 c 1,23,24
 479 -10 479 -10 418 -2 c 0,25,26
 234 21 234 21 66 2 c 0,27,28
 40 -1 40 -1 32.5 4 c 128,-1,29
 25 9 25 9 25 33 c 0,30,31
 25 67 25 67 84 86 c 0,32,33
 180 116 180 116 266 223 c 0,34,35
 308 274 308 274 621 641 c 1,36,37
 495 823 495 823 447 889 c 0,38,39
 345 1031 345 1031 266 1124 c 0,40,41
 194 1210 194 1210 80 1237 c 0,42,43
 33 1248 33 1248 33 1266 c 0,44,45
 33 1308 33 1308 74 1305 c 0,46,47
 250 1288 250 1288 486 1325 c 0,48,49
 520 1330 520 1330 529 1328 c 0,50,51
 545 1323 545 1323 545 1294 c 0,52,53
 545 1270 545 1270 496 1251 c 1,54,55
 441 1231 441 1231 441 1197 c 0,56,57
 441 1173 441 1173 469 1135 c 0,58,59
 628 913 628 913 723 770 c 1,60,61
 933 1022 933 1022 973 1102 c 0,62,63
 995 1146 995 1146 995 1179 c 0,64,65
 995 1230 995 1230 940 1251 c 0,66,67
 895 1269 895 1269 897 1298 c 0,68,69
 900 1333 900 1333 959 1325 c 0,70,71
 1156 1300 1156 1300 1313 1321 c 0,72,73
 1356 1327 1356 1327 1356 1290 c 0,74,75
 1356 1258 1356 1258 1290 1233 c 0,76,77
 1189 1194 1189 1194 1112 1100 c 0,78,79
 914 857 914 857 778 694 c 1,80,81
 990 383 990 383 1161 188 c 0,82,83
 1249 89 1249 89 1342 63 c 0,84,85
 1388 51 1388 51 1387 33 c 0,0,1
EndSplineSet
EndChar

StartChar: Y
Encoding: 89 89 60
Width: 1509
Flags: HW
LayerCount: 2
Fore
SplineSet
1484 1290 m 0,0,1
 1484 1256 1484 1256 1420 1237 c 0,2,3
 1347 1215 1347 1215 1258 1100 c 0,4,5
 1083 872 1083 872 1040 814 c 0,6,7
 939 676 939 676 863 551 c 1,8,-1
 863 197 l 2,9,10
 863 126 863 126 890 100 c 0,11,12
 912 80 912 80 992 61 c 1,13,14
 1052 48 1052 48 1045 12 c 0,15,16
 1041 -11 1041 -11 1021 -13 c 0,17,18
 1019 -14 1019 -14 980 -10 c 0,19,20
 781 7 781 7 589 -8 c 1,21,22
 529 -19 529 -19 523 16 c 0,23,24
 517 49 517 49 558 59 c 0,25,26
 640 81 640 81 664.5 112.5 c 128,-1,27
 689 144 689 144 689 225 c 2,28,-1
 689 498 l 1,29,30
 553 764 553 764 238 1135 c 0,31,32
 157 1230 157 1230 74 1247 c 0,33,34
 25 1257 25 1257 25 1276 c 0,35,36
 25 1322 25 1322 68 1317 c 0,37,38
 249 1295 249 1295 509 1335 c 0,39,40
 545 1341 545 1341 554 1339 c 0,41,42
 570 1334 570 1334 570 1305 c 0,43,44
 570 1283 570 1283 519 1264 c 0,45,46
 432 1231 432 1231 432 1193 c 0,47,48
 432 1174 432 1174 453 1145 c 0,49,50
 580 975 580 975 785 657 c 0,51,52
 797 639 797 639 804 639 c 0,53,54
 812 639 812 639 824 657 c 0,55,56
 868 723 868 723 974.5 873 c 128,-1,57
 1081 1023 1081 1023 1133 1102 c 0,58,59
 1159 1140 1159 1140 1159 1168 c 0,60,61
 1159 1221 1159 1221 1068 1251 c 0,62,63
 1019 1268 1019 1268 1023 1298 c 0,64,65
 1027 1333 1027 1333 1090 1325 c 0,66,67
 1287 1301 1287 1301 1441 1321 c 0,68,69
 1484 1326 1484 1326 1484 1290 c 0,0,1
EndSplineSet
EndChar

StartChar: Z
Encoding: 90 90 61
Width: 1212
Flags: HW
LayerCount: 2
Fore
SplineSet
1187.03 309 m 0,0,1
 1191.03 126 1191.03 126 1158.03 2 c 0,2,3
 1152.03 -21 1152.03 -21 1097.03 -16 c 0,4,5
 886.025 2 886.025 2 615.025 2 c 0,6,7
 224.025 2 224.025 2 95.0254 -8 c 0,8,9
 40.0254 -13 40.0254 -13 28.0254 6 c 1,10,11
 17.0254 30 17.0254 30 46.0254 68 c 0,12,13
 533.025 692 533.025 692 869.025 1182 c 0,14,15
 882.025 1201 882.025 1201 882.025 1207 c 0,16,17
 882.025 1223 882.025 1223 794.025 1223 c 2,18,-1
 550.025 1223 l 2,19,20
 356.025 1223 356.025 1223 272.025 1166 c 0,21,22
 205.025 1121 205.025 1121 150.025 987 c 0,23,24
 134.025 947 134.025 947 101.025 961 c 1,25,26
 69.0254 968 69.0254 968 77.0254 997 c 0,27,28
 112.025 1137 112.025 1137 112.025 1303 c 0,29,30
 112.025 1325 112.025 1325 175.025 1321 c 0,31,32
 390.025 1307 390.025 1307 675.025 1307 c 0,33,34
 951.025 1307 951.025 1307 1105.03 1317 c 0,35,36
 1157.03 1320 1157.03 1320 1164.03 1305 c 0,37,38
 1173.03 1286 1173.03 1286 1146.03 1251 c 0,39,40
 694.025 679 694.025 679 339.025 166 c 0,41,42
 321.025 140 321.025 140 321.025 126 c 0,43,44
 321.025 103 321.025 103 376.025 98 c 0,45,46
 509.025 88 509.025 88 720.025 88 c 0,47,48
 933.025 88 933.025 88 1008.03 136 c 0,49,50
 1072.03 177 1072.03 177 1115.03 315 c 0,51,52
 1127.03 353 1127.03 353 1162.03 344 c 0,53,54
 1186.03 338 1186.03 338 1187.03 309 c 0,0,1
EndSplineSet
EndChar

StartChar: bracketleft
Encoding: 91 91 62
Width: 655
Flags: HW
LayerCount: 2
Fore
SplineSet
629.429 -309 m 0,0,1
 628.429 -323 628.429 -323 624.429 -329 c 0,2,3
 618.429 -340 618.429 -340 582.429 -336 c 0,4,5
 517.429 -329 517.429 -329 328.429 -323 c 0,6,7
 153.429 -318 153.429 -318 99.4287 -319 c 1,8,9
 53.4287 -321 53.4287 -321 40.4287 -312 c 0,10,11
 22.4287 -300 22.4287 -300 25.4287 -260 c 0,12,13
 42.4287 -16 42.4287 -16 42.4287 582 c 0,14,15
 42.4287 1182 42.4287 1182 25.4287 1425 c 0,16,17
 22.4287 1466 22.4287 1466 40.4287 1477 c 0,18,19
 53.4287 1486 53.4287 1486 99.4287 1485 c 0,20,21
 153.429 1483 153.429 1483 328.429 1488 c 0,22,23
 517.429 1494 517.429 1494 582.429 1501 c 0,24,25
 627.429 1506 627.429 1506 629.429 1475 c 0,26,27
 632.429 1441 632.429 1441 601.429 1438 c 0,28,29
 401.429 1419 401.429 1419 263.429 1395 c 0,30,31
 215.429 1386 215.429 1386 201.429 1357 c 0,32,33
 192.429 1339 192.429 1339 191.429 1307 c 0,34,35
 187.429 1171 187.429 1171 187.429 584 c 0,36,37
 187.429 -6 187.429 -6 191.429 -141 c 0,38,39
 192.429 -182 192.429 -182 207.429 -202 c 128,-1,40
 222.429 -222 222.429 -222 263.429 -229 c 0,41,42
 401.429 -254 401.429 -254 601.429 -272 c 0,43,44
 632.429 -275 632.429 -275 629.429 -309 c 0,0,1
EndSplineSet
EndChar

StartChar: backslash
Encoding: 92 92 63
Width: 1079
Flags: HW
LayerCount: 2
Fore
SplineSet
1051.24 -293 m 2,0,1
 1054.24 -300 1054.24 -300 1054.24 -305 c 0,2,3
 1054.24 -318 1054.24 -318 1020.24 -338 c 0,4,5
 977.24 -363 977.24 -363 965.24 -340 c 0,6,7
 462.241 621 462.241 621 27.2412 1438 c 1,8,9
 16.2412 1464 16.2412 1464 59.2412 1486 c 128,-1,10
 102.241 1508 102.241 1508 113.241 1487 c 2,11,-1
 1051.24 -293 l 2,0,1
EndSplineSet
EndChar

StartChar: bracketright
Encoding: 93 93 64
Width: 655
Flags: HW
LayerCount: 2
Fore
SplineSet
630.121 -260 m 0,0,1
 632.121 -300 632.121 -300 616.621 -310.5 c 128,-1,2
 601.121 -321 601.121 -321 556.121 -319 c 1,3,4
 502.121 -318 502.121 -318 326.121 -323 c 0,5,6
 137.121 -329 137.121 -329 72.1211 -336 c 0,7,8
 27.1211 -341 27.1211 -341 25.1211 -309 c 0,9,10
 23.1211 -275 23.1211 -275 54.1211 -272 c 0,11,12
 253.121 -254 253.121 -254 392.121 -229 c 0,13,14
 440.121 -221 440.121 -221 454.121 -192 c 0,15,16
 463.121 -174 463.121 -174 464.121 -141 c 0,17,18
 468.121 -6 468.121 -6 468.121 584 c 0,19,20
 468.121 1171 468.121 1171 464.121 1307 c 0,21,22
 462.121 1348 462.121 1348 447.621 1367.5 c 128,-1,23
 433.121 1387 433.121 1387 392.121 1395 c 0,24,25
 253.121 1419 253.121 1419 54.1211 1438 c 0,26,27
 23.1211 1441 23.1211 1441 25.1211 1475 c 0,28,29
 26.1211 1488 26.1211 1488 30.1211 1494 c 0,30,31
 37.1211 1505 37.1211 1505 72.1211 1501 c 0,32,33
 137.121 1494 137.121 1494 326.121 1488 c 0,34,35
 502.121 1483 502.121 1483 556.121 1485 c 0,36,37
 601.121 1486 601.121 1486 616.621 1476 c 128,-1,38
 632.121 1466 632.121 1466 630.121 1425 c 0,39,40
 613.121 1182 613.121 1182 613.121 582 c 0,41,42
 613.121 -16 613.121 -16 630.121 -260 c 0,0,1
EndSplineSet
EndChar

StartChar: asciicircum
Encoding: 94 94 65
Width: 829
Flags: HW
LayerCount: 2
Fore
SplineSet
798.173 825 m 0,0,1
 810.173 810 810.173 810 792.173 801 c 0,2,3
 750.173 779 750.173 779 731.173 795 c 0,4,5
 540.173 956 540.173 956 413.173 1096 c 1,6,7
 294.173 961 294.173 961 92.1729 793 c 0,8,9
 72.1729 776 72.1729 776 37.1729 801 c 0,10,11
 19.1729 813 19.1729 813 30.1729 827 c 0,12,13
 245.173 1099 245.173 1099 358.173 1307 c 0,14,15
 373.173 1333 373.173 1333 413.173 1333 c 0,16,17
 456.173 1333 456.173 1333 469.173 1309 c 0,18,19
 542.173 1162 542.173 1162 798.173 825 c 0,0,1
EndSplineSet
EndChar

StartChar: underscore
Encoding: 95 95 66
Width: 901
Flags: HW
LayerCount: 2
Fore
SplineSet
870 -295 m 1,0,-1
 31 -295 l 1,1,-1
 31 -174 l 1,2,-1
 870 -174 l 1,3,-1
 870 -295 l 1,0,-1
EndSplineSet
EndChar

StartChar: grave
Encoding: 96 96 67
Width: 404
Flags: HW
LayerCount: 2
Fore
SplineSet
372 952 m 0,0,1
 383 938 383 938 360 924 c 0,2,3
 327 904 327 904 306 922 c 0,4,5
 169 1041 169 1041 50 1186 c 1,6,7
 28 1220 28 1220 28 1239 c 0,8,9
 28 1256 28 1256 71.5 1281.5 c 128,-1,10
 115 1307 115 1307 155 1307 c 0,11,12
 177 1307 177 1307 204 1278 c 0,13,14
 216 1265 216 1265 263 1152 c 0,15,16
 313 1031 313 1031 372 952 c 0,0,1
EndSplineSet
EndChar

StartChar: a
Encoding: 97 97 68
Width: 825
Flags: HW
LayerCount: 2
Fore
SplineSet
800 96 m 0,0,1
 800 75 800 75 723.5 32.5 c 128,-1,2
 647 -10 647 -10 601 -10 c 0,3,4
 562 -10 562 -10 532 28 c 128,-1,5
 502 66 502 66 490 66 c 0,6,7
 481 66 481 66 395 25 c 128,-1,8
 309 -16 309 -16 222 -16 c 0,9,10
 140 -16 140 -16 85 32 c 0,11,12
 25 85 25 85 25 176 c 0,13,14
 25 349 25 349 421 424 c 0,15,16
 489 437 489 437 490 479 c 2,17,-1
 492 543 l 2,18,19
 498 707 498 707 347 707 c 0,20,21
 304 707 304 707 265.5 630 c 128,-1,22
 227 553 227 553 155 547 c 1,23,24
 73 539 73 539 73 616 c 0,25,26
 73 664 73 664 195 728 c 0,27,28
 323 795 323 795 441 795 c 0,29,30
 644 795 644 795 642 602 c 2,31,-1
 638 190 l 2,32,33
 637 125 637 125 693 125 c 0,34,35
 704 125 704 125 735 130 c 128,-1,36
 766 135 766 135 771 135 c 0,37,38
 800 135 800 135 800 96 c 0,0,1
492 324 m 2,39,40
 493 349 493 349 480.5 357 c 128,-1,41
 468 365 468 365 441 360 c 0,42,43
 200 317 200 317 200 203 c 0,44,45
 200 88 200 88 325 88 c 0,46,47
 375 88 375 88 428 107 c 0,48,49
 490 129 490 129 490 160 c 2,50,-1
 492 324 l 2,39,40
EndSplineSet
EndChar

StartChar: b
Encoding: 98 98 69
Width: 961
Flags: HW
LayerCount: 2
Fore
SplineSet
936 449 m 0,0,1
 936 251 936 251 798 117 c 0,2,3
 666 -12 666 -12 484 -12 c 0,4,5
 381 -12 381 -12 269 22 c 0,6,7
 161 55 161 55 160 82 c 0,8,9
 159 105 159 105 161 243 c 0,10,11
 164 412 164 412 164 489 c 0,12,13
 164 605 164 605 162 825.5 c 128,-1,14
 160 1046 160 1046 160 1118 c 128,-1,15
 160 1190 160 1190 138 1217 c 0,16,17
 118 1241 118 1241 51 1255 c 1,18,19
 25 1264 25 1264 25 1288 c 0,20,21
 25 1309 25 1309 64 1323 c 0,22,23
 120 1343 120 1343 203 1390 c 0,24,25
 269 1427 269 1427 285 1427 c 0,26,27
 316 1427 316 1427 316 1376 c 0,28,29
 316 1372 316 1372 313 1272 c 0,30,31
 311 1178 311 1178 312 1081 c 2,32,-1
 314 735 l 2,33,34
 314 686 314 686 348 707 c 1,35,36
 468 776 468 776 598 776 c 0,37,38
 748 776 748 776 842 685.5 c 128,-1,39
 936 595 936 595 936 449 c 0,0,1
776 360 m 0,40,41
 776 497 776 497 700 585 c 0,42,43
 628 668 628 668 525 668 c 0,44,45
 454 668 454 668 385 631 c 128,-1,46
 316 594 316 594 316 553 c 2,47,-1
 316 285 l 2,48,49
 316 92 316 92 529 92 c 0,50,51
 640 92 640 92 708 163.5 c 128,-1,52
 776 235 776 235 776 360 c 0,40,41
EndSplineSet
EndChar

StartChar: c
Encoding: 99 99 70
Width: 765
Flags: HW
LayerCount: 2
Fore
SplineSet
740 129 m 0,0,1
 740 92 740 92 637 39 c 0,2,3
 525 -18 525 -18 416 -18 c 0,4,5
 246 -18 246 -18 138 78 c 1,6,7
 25 180 25 180 25 354 c 0,8,9
 25 541 25 541 155 665 c 0,10,11
 282 786 282 786 467 786 c 0,12,13
 579 786 579 786 662 754 c 0,14,15
 738 724 738 724 738 690 c 0,16,17
 738 667 738 667 700.5 620 c 128,-1,18
 663 573 663 573 639 573 c 0,19,20
 624 573 624 573 570 616 c 0,21,22
 469 696 469 696 412 696 c 0,23,24
 322 696 322 696 264 628 c 1,25,26
 203 554 203 554 203 424 c 0,27,28
 203 267 203 267 291 173 c 0,29,30
 371 88 371 88 484 88 c 0,31,32
 596 88 596 88 695 150 c 0,33,34
 704 156 704 156 719 156 c 0,35,36
 740 156 740 156 740 129 c 0,0,1
EndSplineSet
EndChar

StartChar: d
Encoding: 100 100 71
Width: 998
Flags: HW
LayerCount: 2
Fore
SplineSet
969 98 m 0,0,1
 973 89 973 89 973 85 c 0,2,3
 973 64 973 64 871 16 c 0,4,5
 753 -39 753 -39 732 -39 c 0,6,7
 714 -39 714 -39 690.5 21.5 c 128,-1,8
 667 82 667 82 658 82 c 1,9,10
 659 82 659 82 544.5 29.5 c 128,-1,11
 430 -23 430 -23 371 -23 c 0,12,13
 239 -23 239 -23 142 72 c 0,14,15
 25 185 25 185 25 389 c 0,16,17
 25 560 25 560 163 684 c 0,18,19
 285 793 285 793 412 793 c 0,20,21
 502 793 502 793 627 770 c 0,22,23
 666 763 666 763 666 793 c 2,24,-1
 666 1135 l 2,25,26
 666 1193 666 1193 638 1217 c 0,27,28
 620 1233 620 1233 553 1255 c 1,29,30
 521 1267 521 1267 521 1294 c 0,31,32
 521 1319 521 1319 564 1331 c 1,33,34
 623 1349 623 1349 705 1391 c 1,35,36
 773 1427 773 1427 789 1427 c 0,37,38
 826 1427 826 1427 826 1376 c 1,39,40
 826 1377 826 1377 823 1276.5 c 128,-1,41
 820 1176 820 1176 820 1081 c 2,42,-1
 820 172 l 2,43,44
 820 115 820 115 871 115 c 0,45,46
 890 115 890 115 922 121 c 0,47,48
 957 127 957 127 969 98 c 0,0,1
660 197 m 2,49,-1
 660 555 l 2,50,51
 660 599 660 599 582 646 c 0,52,53
 499 696 499 696 402 696 c 0,54,55
 193 696 193 696 193 438 c 0,56,57
 193 300 193 300 276 202 c 128,-1,58
 359 104 359 104 471 104 c 0,59,60
 522 104 522 104 591 138 c 128,-1,61
 660 172 660 172 660 197 c 2,49,-1
EndSplineSet
EndChar

StartChar: e
Encoding: 101 101 72
Width: 801
Flags: HW
LayerCount: 2
Fore
SplineSet
776 168 m 0,0,1
 776 125 776 125 660 61 c 1,2,3
 528 -10 528 -10 389 -10 c 0,4,5
 238 -10 238 -10 135 89 c 0,6,7
 25 194 25 194 25 369 c 0,8,9
 25 567 25 567 148 687 c 0,10,11
 263 799 263 799 430 799 c 0,12,13
 529 799 529 799 615 736 c 0,14,15
 692 680 692 680 717 608 c 0,16,17
 726 583 726 583 744 580 c 0,18,19
 770 575 770 575 770 545 c 0,20,21
 770 504 770 504 672 475 c 2,22,-1
 211 338 l 1,23,24
 256 100 256 100 455 100 c 0,25,26
 570 100 570 100 717 184 c 0,27,28
 739 197 739 197 760 197 c 0,29,30
 776 197 776 197 776 168 c 0,0,1
539 569 m 0,31,32
 539 624 539 624 494.5 665.5 c 128,-1,33
 450 707 450 707 385 707 c 0,34,35
 201 707 201 707 201 442 c 2,36,-1
 201 418 l 1,37,-1
 473 500 l 2,38,39
 539 519 539 519 539 569 c 0,31,32
EndSplineSet
EndChar

StartChar: f
Encoding: 102 102 73
Width: 787
Flags: HW
LayerCount: 2
Fore
SplineSet
762 1364 m 0,0,1
 762 1322 762 1322 724 1266 c 128,-1,2
 686 1210 686 1210 664 1210 c 0,3,4
 637 1210 637 1210 607 1237 c 1,5,6
 544 1282 544 1282 496 1282 c 0,7,8
 306 1282 306 1282 306 1016 c 2,9,-1
 306 801 l 2,10,11
 306 751 306 751 392 758 c 2,12,-1
 519 768 l 2,13,14
 594 774 594 774 601 744 c 0,15,16
 603 734 603 734 603 715 c 0,17,18
 603 674 603 674 583 664 c 0,19,20
 571 657 571 657 521 657 c 2,21,-1
 394 657 l 2,22,23
 309 657 309 657 306 621 c 0,24,25
 304 600 304 600 306 186 c 0,26,27
 306 130 306 130 358 106 c 0,28,29
 397 87 397 87 488 80 c 0,30,31
 524 77 524 77 531.5 71.5 c 128,-1,32
 539 66 539 66 539 39 c 0,33,34
 539 8 539 8 530.5 2 c 128,-1,35
 522 -4 522 -4 488 -2 c 0,36,37
 267 10 267 10 91 -8 c 0,38,39
 45 -13 45 -13 35 -8 c 256,40,41
 25 -3 25 -3 25 27 c 0,42,43
 25 52 25 52 83 68 c 0,44,45
 152 87 152 87 152 168 c 2,46,-1
 152 557 l 2,47,48
 152 618 152 618 133 642 c 0,49,50
 120 658 120 658 83 670 c 0,51,52
 25 688 25 688 25 727 c 0,53,54
 25 754 25 754 49 761 c 0,55,56
 57 763 57 763 99 764 c 0,57,58
 135 765 135 765 144 780 c 0,59,60
 150 791 150 791 150 834 c 2,61,-1
 150 993 l 2,62,63
 150 1183 150 1183 306 1304 c 0,64,65
 455 1419 455 1419 672 1419 c 0,66,67
 762 1419 762 1419 762 1364 c 0,0,1
EndSplineSet
EndChar

StartChar: g
Encoding: 103 103 74
Width: 928
Flags: HW
LayerCount: 2
Fore
SplineSet
901 664 m 0,0,1
 891 590 891 590 849 590 c 0,2,3
 834 590 834 590 793 596 c 0,4,5
 775 598 775 598 768 598 c 0,6,7
 754 597 754 597 754 580 c 0,8,9
 754 575 754 575 756 549 c 128,-1,10
 758 523 758 523 758 496 c 0,11,12
 758 279 758 279 477 201 c 0,13,14
 311 155 311 155 311 127 c 0,15,16
 311 98 311 98 434 82 c 2,17,-1
 590 61 l 2,18,19
 721 44 721 44 782 12 c 0,20,21
 879 -39 879 -39 879 -145 c 0,22,23
 879 -294 879 -294 708 -399 c 0,24,25
 542 -500 542 -500 322 -500 c 0,26,27
 186 -500 186 -500 105.5 -445 c 128,-1,28
 25 -390 25 -390 25 -299 c 0,29,30
 25 -161 25 -161 217 -35 c 1,31,32
 129 1 129 1 129 78 c 0,33,34
 129 150 129 150 293 209 c 1,35,36
 57 272 57 272 57 485 c 0,37,38
 57 618 57 618 153.5 705.5 c 128,-1,39
 250 793 250 793 397 793 c 0,40,41
 502 793 502 793 602 745 c 0,42,43
 668 714 668 714 768 717 c 2,44,-1
 856 719 l 2,45,46
 890 720 890 720 898 710 c 128,-1,47
 906 700 906 700 901 664 c 0,0,1
602 477 m 0,48,49
 602 709 602 709 402 709 c 0,50,51
 232 709 232 709 232 494 c 0,52,53
 232 281 232 281 420 281 c 0,54,55
 498 281 498 281 550 336 c 128,-1,56
 602 391 602 391 602 477 c 0,48,49
760 -205 m 0,57,58
 760 -129 760 -129 576 -102 c 1,59,-1
 377 -74 l 1,60,61
 349 -69 349 -69 299 -59 c 1,62,63
 193 -144 193 -144 193 -270 c 0,64,65
 193 -412 193 -412 385 -412 c 0,66,67
 534 -412 534 -412 651 -341 c 0,68,69
 760 -276 760 -276 760 -205 c 0,57,58
EndSplineSet
EndChar

StartChar: h
Encoding: 104 104 75
Width: 1101
Flags: HW
LayerCount: 2
Fore
SplineSet
1076 23 m 0,0,1
 1076 -10 1076 -10 1031 -8 c 0,2,3
 780 1 780 1 705 -4 c 0,4,5
 668 -7 668 -7 661 -5 c 0,6,7
 642 0 642 0 642 27 c 0,8,9
 642 46 642 46 699 63 c 0,10,11
 737 75 737 75 747 100 c 0,12,13
 752 114 752 114 752 164 c 2,14,-1
 752 434 l 2,15,16
 752 668 752 668 554 668 c 0,17,18
 466 668 466 668 389 626 c 0,19,20
 316 586 316 586 316 547 c 2,21,-1
 316 166 l 2,22,23
 316 70 316 70 439 57 c 0,24,25
 486 53 486 53 486 27 c 0,26,27
 486 7 486 7 479 1 c 128,-1,28
 472 -5 472 -5 439 -4 c 0,29,30
 280 2 280 2 115 -12 c 0,31,32
 79 -15 79 -15 70 -13 c 0,33,34
 50 -9 50 -9 50 18 c 0,35,36
 50 40 50 40 107 55 c 1,37,38
 160 70 160 70 160 164 c 2,39,-1
 160 1069 l 2,40,41
 160 1148 160 1148 144 1184 c 1,42,43
 121 1232 121 1232 52 1255 c 0,44,45
 25 1264 25 1264 25 1288 c 0,46,47
 25 1305 25 1305 66 1323 c 0,48,49
 121 1348 121 1348 206 1396 c 0,50,51
 261 1427 261 1427 281 1427 c 0,52,53
 318 1427 318 1427 318 1376 c 1,54,55
 318 1377 318 1377 315 1276.5 c 128,-1,56
 312 1176 312 1176 312 1081 c 2,57,-1
 312 739 l 2,58,59
 312 684 312 684 328 684 c 1,60,61
 319 684 319 684 428.5 741.5 c 128,-1,62
 538 799 538 799 636 799 c 0,63,64
 902 799 902 799 904 504 c 2,65,-1
 906 166 l 2,66,67
 907 65 907 65 1031 53 c 0,68,69
 1076 49 1076 49 1076 23 c 0,0,1
EndSplineSet
EndChar

StartChar: i
Encoding: 105 105 76
Width: 502
Flags: HW
LayerCount: 2
Fore
SplineSet
365 1157 m 0,0,1
 365 1111 365 1111 330.5 1071.5 c 128,-1,2
 296 1032 296 1032 255 1032 c 0,3,4
 208 1032 208 1032 178 1060 c 128,-1,5
 148 1088 148 1088 148 1133 c 0,6,7
 148 1177 148 1177 184.5 1215 c 128,-1,8
 221 1253 221 1253 263 1253 c 0,9,10
 365 1253 365 1253 365 1157 c 0,0,1
476 25 m 0,11,12
 471 -4 471 -4 452 -8 c 0,13,14
 447 -9 447 -9 404 -6 c 0,15,16
 255 4 255 4 111 -10 c 0,17,18
 72 -14 72 -14 62 -7 c 128,-1,19
 52 0 52 0 52 25 c 0,20,21
 52 48 52 48 105 63 c 0,22,23
 163 80 163 80 163 174 c 2,24,-1
 163 436 l 2,25,26
 163 515 163 515 147 547 c 0,27,28
 125 591 125 591 56 614 c 0,29,30
 25 625 25 625 25 647 c 0,31,32
 25 676 25 676 70 690 c 0,33,34
 154 716 154 716 219 759 c 1,35,36
 271 795 271 795 283 795 c 0,37,38
 323 795 323 795 322 743 c 0,39,40
 318 481 318 481 318 209 c 0,41,42
 318 144 318 144 337 116 c 0,43,44
 358 85 358 85 417 72 c 0,45,46
 482 57 482 57 476 25 c 0,11,12
EndSplineSet
EndChar

StartChar: j
Encoding: 106 106 77
Width: 433
Flags: HW
LayerCount: 2
Fore
SplineSet
408 1184 m 0,0,1
 408 1140 408 1140 371 1100.5 c 128,-1,2
 334 1061 334 1061 293 1061 c 0,3,4
 190 1061 190 1061 190 1159 c 0,5,6
 190 1205 190 1205 225 1244.5 c 128,-1,7
 260 1284 260 1284 301 1284 c 0,8,9
 408 1284 408 1284 408 1184 c 0,0,1
375 743 m 1,10,11
 375 744 375 744 372 643.5 c 128,-1,12
 369 543 369 543 369 449 c 2,13,-1
 369 -51 l 2,14,15
 369 -403 369 -403 72 -520 c 0,16,17
 55 -527 55 -527 40 -521 c 256,18,19
 25 -515 25 -515 25 -500 c 0,20,21
 25 -472 25 -472 82 -432 c 0,22,23
 153 -383 153 -383 181 -314 c 0,24,25
 213 -233 213 -233 213 -72 c 2,26,-1
 213 436 l 2,27,28
 213 517 213 517 197 550 c 0,29,30
 176 592 176 592 111 614 c 0,31,32
 84 624 84 624 84 645 c 0,33,34
 84 678 84 678 123 690 c 0,35,36
 207 716 207 716 273 760 c 0,37,38
 326 795 326 795 338 795 c 0,39,40
 375 795 375 795 375 743 c 1,10,11
EndSplineSet
EndChar

StartChar: k
Encoding: 107 107 78
Width: 1056
Flags: HW
LayerCount: 2
Fore
SplineSet
1031 35 m 0,0,1
 1031 0 1031 0 984 -2 c 1,2,3
 914 -3 914 -3 801 -12 c 1,4,5
 745 -23 745 -23 721 2 c 0,6,7
 563 172 563 172 453 358 c 0,8,9
 444 374 444 374 430 374 c 0,10,11
 413 374 413 374 371 344 c 1,12,13
 324 318 324 318 324 270 c 0,14,15
 324 236 324 236 326 172 c 128,-1,16
 328 108 328 108 358 88 c 0,17,18
 379 74 379 74 455 66 c 1,19,20
 502 60 502 60 502 31 c 0,21,22
 502 8 502 8 494.5 2.5 c 128,-1,23
 487 -3 487 -3 455 0 c 0,24,25
 355 9 355 9 117 -10 c 0,26,27
 57 -15 57 -15 52 5 c 0,28,29
 50 12 50 12 50 25 c 0,30,31
 50 56 50 56 111 72 c 0,32,33
 166 86 166 86 166 201 c 2,34,-1
 166 1075 l 2,35,36
 166 1157 166 1157 150 1189 c 1,37,38
 128 1230 128 1230 58 1253 c 0,39,40
 25 1264 25 1264 25 1284 c 0,41,42
 25 1313 25 1313 72 1329 c 0,43,44
 147 1354 147 1354 215 1398 c 0,45,46
 270 1434 270 1434 283 1434 c 0,47,48
 324 1434 324 1434 324 1382 c 1,49,50
 324 1389 324 1389 323 1283 c 0,51,52
 322 1210 322 1210 322 1087 c 2,53,-1
 324 461 l 2,54,55
 324 435 324 435 338 435 c 0,56,57
 353 435 353 435 384 461 c 1,58,59
 467 526 467 526 588 631 c 1,60,61
 612 656 612 656 612 671 c 0,62,63
 612 698 612 698 531 709 c 0,64,65
 496 713 496 713 498 748 c 0,66,67
 501 783 501 783 533 778 c 0,68,69
 605 768 605 768 743 767 c 0,70,71
 839 766 839 766 934 766 c 1,72,73
 965 765 965 765 965 729 c 0,74,75
 965 695 965 695 916 692 c 1,76,77
 839 689 839 689 771 657 c 1,78,79
 676 614 676 614 568 506 c 1,80,81
 560 500 560 500 560 491 c 0,82,83
 560 477 560 477 594 424 c 0,84,85
 719 234 719 234 830 137 c 0,86,87
 901 76 901 76 963 76 c 0,88,89
 1009 76 1009 76 1020 69.5 c 128,-1,90
 1031 63 1031 63 1031 35 c 0,0,1
EndSplineSet
EndChar

StartChar: l
Encoding: 108 108 79
Width: 525
Flags: HW
LayerCount: 2
Fore
SplineSet
500 29 m 0,0,1
 500 -11 500 -11 455 -6 c 0,2,3
 317 7 317 7 113 -10 c 0,4,5
 72 -14 72 -14 62.5 -8 c 128,-1,6
 53 -2 53 -2 53 25 c 0,7,8
 53 49 53 49 107.5 65.5 c 128,-1,9
 162 82 162 82 162 164 c 2,10,-1
 162 1069 l 2,11,12
 162 1150 162 1150 138.5 1188 c 128,-1,13
 115 1226 115 1226 56 1247 c 0,14,15
 25 1258 25 1258 25 1278 c 0,16,17
 25 1308 25 1308 70 1323 c 0,18,19
 138 1345 138 1345 211 1391 c 1,20,21
 271 1427 271 1427 287 1427 c 0,22,23
 324 1427 324 1427 324 1376 c 1,24,25
 324 1380 324 1380 320 1276 c 0,26,27
 317 1177 317 1177 318 1081 c 2,28,-1
 322 188 l 2,29,30
 322 127 322 127 352 99.5 c 128,-1,31
 382 72 382 72 455 63 c 0,32,33
 500 58 500 58 500 29 c 0,0,1
EndSplineSet
EndChar

StartChar: m
Encoding: 109 109 80
Width: 1684
Flags: HW
LayerCount: 2
Fore
SplineSet
1659 27 m 0,0,1
 1659 -6 1659 -6 1628 -4 c 0,2,3
 1424 11 1424 11 1248 -4 c 0,4,5
 1209 -7 1209 -7 1209 31 c 0,6,7
 1209 61 1209 61 1262 63 c 1,8,9
 1329 67 1329 67 1329 172 c 2,10,-1
 1329 438 l 2,11,12
 1329 662 1329 662 1147 662 c 0,13,14
 1051 662 1051 662 971 627 c 0,15,16
 898 596 898 596 897 565 c 2,17,-1
 893 168 l 2,18,19
 893 106 893 106 908 86 c 0,20,21
 919 72 919 72 957 66 c 0,22,23
 1045 51 1045 51 1045 29 c 0,24,25
 1045 10 1045 10 1040 3 c 0,26,27
 1034 -7 1034 -7 1004 -6 c 0,28,29
 890 -2 890 -2 672 -10 c 0,30,31
 641 -11 641 -11 632 -5 c 128,-1,32
 623 1 623 1 623 23 c 0,33,34
 623 49 623 49 680 55 c 0,35,36
 742 62 742 62 742 168 c 2,37,-1
 742 440 l 2,38,39
 742 550 742 550 692 610 c 0,40,41
 648 664 648 664 580 664 c 0,42,43
 480 664 480 664 400 623.5 c 128,-1,44
 320 583 320 583 320 537 c 2,45,-1
 320 172 l 2,46,47
 320 110 320 110 352 86 c 0,48,49
 381 64 381 64 457 59 c 0,50,51
 498 57 498 57 498 31 c 0,52,53
 498 2 498 2 465 2 c 0,54,55
 215 2 215 2 103 -12 c 0,56,57
 65 -17 65 -17 54 -12 c 0,58,59
 45 -7 45 -7 45 12 c 0,60,61
 45 37 45 37 119 55 c 1,62,63
 164 67 164 67 164 172 c 2,64,-1
 164 479 l 2,65,66
 164 596 164 596 101 614 c 0,67,68
 48 629 48 629 36.5 636 c 128,-1,69
 25 643 25 643 25 659 c 0,70,71
 25 677 25 677 129 735 c 0,72,73
 239 797 239 797 264 797 c 0,74,75
 285 797 285 797 299.5 736.5 c 128,-1,76
 314 676 314 676 322 676 c 0,77,78
 333 676 333 676 383 707 c 0,79,80
 445 746 445 746 495 765 c 0,81,82
 577 797 577 797 664 797 c 0,83,84
 734 797 734 797 786 767 c 0,85,86
 822 747 822 747 851 712 c 0,87,88
 875 682 875 682 875 682 c 257,89,90
 875 682 875 682 927 712 c 0,91,92
 988 747 988 747 1046 767 c 0,93,94
 1131 797 1131 797 1211 797 c 0,95,96
 1485 797 1485 797 1485 496 c 2,97,-1
 1485 172 l 2,98,99
 1485 115 1485 115 1512 91 c 0,100,101
 1536 71 1536 71 1606 57 c 0,102,103
 1659 47 1659 47 1659 27 c 0,0,1
EndSplineSet
EndChar

StartChar: n
Encoding: 110 110 81
Width: 1099
Flags: HW
LayerCount: 2
Fore
SplineSet
1074 18 m 0,0,1
 1074 -13 1074 -13 1029 -10 c 0,2,3
 814 1 814 1 703 -6 c 0,4,5
 646 -10 646 -10 641 8 c 0,6,7
 639 14 639 14 639 25 c 0,8,9
 639 45 639 45 697 61 c 0,10,11
 750 76 750 76 750 164 c 2,12,-1
 750 430 l 2,13,14
 750 659 750 659 551 659 c 0,15,16
 462 659 462 659 386 617 c 1,17,18
 314 576 314 576 314 532 c 2,19,-1
 314 166 l 2,20,21
 314 72 314 72 437 61 c 0,22,23
 484 57 484 57 484 31 c 0,24,25
 484 6 484 6 471 1 c 0,26,27
 465 -1 465 -1 437 0 c 0,28,29
 280 6 280 6 113 -16 c 0,30,31
 77 -21 77 -21 68 -19 c 0,32,33
 48 -15 48 -15 48 12 c 0,34,35
 48 36 48 36 105 53 c 0,36,37
 158 69 158 69 158 186 c 2,38,-1
 158 489 l 2,39,40
 158 566 158 566 138 587 c 0,41,42
 124 602 124 602 45 629 c 0,43,44
 25 636 25 636 25 657 c 0,45,46
 25 677 25 677 66 692 c 0,47,48
 122 713 122 713 189 759 c 0,49,50
 245 797 245 797 261 797 c 0,51,52
 288 797 288 797 297 735.5 c 128,-1,53
 306 674 306 674 322 674 c 1,54,55
 314 674 314 674 424 732.5 c 128,-1,56
 534 791 534 791 641 791 c 0,57,58
 900 791 900 791 902 496 c 2,59,-1
 904 174 l 2,60,61
 904 112 904 112 936 85 c 0,62,63
 960 65 960 65 1029 51 c 0,64,65
 1074 42 1074 42 1074 18 c 0,0,1
EndSplineSet
EndChar

StartChar: o
Encoding: 111 111 82
Width: 908
Flags: HW
LayerCount: 2
Back
SplineSet
938 403 m 256,0,1
 938 229 938 229 809 108.5 c 128,-1,2
 680 -12 680 -12 489 -12 c 256,3,4
 298 -12 298 -12 187 94 c 1,5,6
 80 198 80 198 80 369 c 0,7,8
 80 546 80 546 215 667 c 0,9,10
 346 784 346 784 528 784 c 0,11,12
 723 784 723 784 832 679 c 0,13,14
 938 577 938 577 938 403 c 256,0,1
762 342 m 0,15,16
 762 499 762 499 686 597 c 0,17,18
 612 692 612 692 498 692 c 0,19,20
 392 692 392 692 325 617.5 c 128,-1,21
 258 543 258 543 258 436 c 0,22,23
 258 264 258 264 336 168 c 0,24,25
 408 80 408 80 524 80 c 0,26,27
 634 80 634 80 698 153 c 128,-1,28
 762 226 762 226 762 342 c 0,15,16
EndSplineSet
Fore
SplineSet
883 403 m 256,0,1
 883 229 883 229 754 108.5 c 128,-1,2
 625 -12 625 -12 434 -12 c 256,3,4
 243 -12 243 -12 132 94 c 1,5,6
 25 198 25 198 25 369 c 0,7,8
 25 546 25 546 160 667 c 0,9,10
 291 784 291 784 473 784 c 0,11,12
 668 784 668 784 777 679 c 0,13,14
 883 577 883 577 883 403 c 256,0,1
707 342 m 0,15,16
 707 499 707 499 631 597 c 0,17,18
 557 692 557 692 443 692 c 0,19,20
 337 692 337 692 270 617.5 c 128,-1,21
 203 543 203 543 203 436 c 0,22,23
 203 264 203 264 281 168 c 0,24,25
 353 80 353 80 469 80 c 0,26,27
 579 80 579 80 643 153 c 128,-1,28
 707 226 707 226 707 342 c 0,15,16
EndSplineSet
EndChar

StartChar: p
Encoding: 112 112 83
Width: 956
Flags: HW
LayerCount: 2
Fore
SplineSet
931 430 m 0,0,1
 931 243 931 243 805.5 112.5 c 128,-1,2
 680 -18 680 -18 513 -18 c 0,3,4
 412 -18 412 -18 318 18 c 0,5,6
 308 22 308 22 308 -31 c 2,7,-1
 308 -332 l 2,8,9
 308 -405 308 -405 427 -426 c 0,10,11
 482 -436 482 -436 496.5 -444.5 c 128,-1,12
 511 -453 511 -453 511 -473 c 0,13,14
 511 -507 511 -507 466 -504 c 0,15,16
 256 -490 256 -490 97 -514 c 0,17,18
 64 -519 64 -519 56 -514 c 128,-1,19
 48 -509 48 -509 48 -487 c 0,20,21
 48 -470 48 -470 105 -446 c 0,22,23
 154 -426 154 -426 154 -350 c 2,24,-1
 154 532 l 2,25,26
 154 639 154 639 95 666 c 0,27,28
 25 697 25 697 25 717 c 0,29,30
 25 739 25 739 66 750 c 0,31,32
 119 763 119 763 175 796 c 0,33,34
 222 823 222 823 232 823 c 0,35,36
 262 823 262 823 281 768 c 0,37,38
 309 688 309 688 318 688 c 0,39,40
 320 688 320 688 404 735 c 0,41,42
 496 786 496 786 584 786 c 0,43,44
 727 786 727 786 820 705 c 1,45,46
 931 610 931 610 931 430 c 0,0,1
761 350 m 0,47,48
 761 513 761 513 680 604 c 1,49,50
 614 680 614 680 525 680 c 0,51,52
 456 680 456 680 393 632 c 0,53,54
 310 570 310 570 310 459 c 2,55,-1
 310 176 l 2,56,57
 310 149 310 149 386 119 c 0,58,59
 468 86 468 86 564 86 c 0,60,61
 761 86 761 86 761 350 c 0,47,48
EndSplineSet
EndChar

StartChar: q
Encoding: 113 113 84
Width: 976
Flags: HW
LayerCount: 2
Fore
SplineSet
951 -473 m 0,0,1
 951 -498 951 -498 928 -502 c 0,2,3
 924 -502 924 -502 883 -500 c 0,4,5
 808 -495 808 -495 539 -504 c 0,6,7
 507 -505 507 -505 497.5 -499.5 c 128,-1,8
 488 -494 488 -494 488 -473 c 0,9,10
 488 -447 488 -447 539 -442 c 0,11,12
 676 -430 676 -430 676 -330 c 2,13,-1
 676 -8 l 2,14,15
 676 76 676 76 660 76 c 0,16,17
 651 76 651 76 573 33 c 128,-1,18
 495 -10 495 -10 414 -10 c 0,19,20
 247 -10 247 -10 137 91 c 1,21,22
 25 196 25 196 25 360 c 0,23,24
 25 565 25 565 162 688 c 0,25,26
 287 801 287 801 465 801 c 0,27,28
 564 801 564 801 650 779.5 c 128,-1,29
 736 758 736 758 727 758 c 1,30,31
 743 758 743 758 773.5 793.5 c 128,-1,32
 804 829 804 829 813 829 c 256,33,34
 822 829 822 829 837.5 817 c 128,-1,35
 853 805 853 805 852 797 c 0,36,37
 829 571 829 571 830 354 c 2,38,-1
 832 -295 l 2,39,40
 832 -380 832 -380 889 -416 c 0,41,42
 951 -454 951 -454 951 -473 c 0,0,1
676 217 m 2,43,-1
 676 559 l 2,44,45
 676 601 676 601 605 652 c 0,46,47
 524 709 524 709 426 709 c 0,48,49
 331 709 331 709 268 644 c 0,50,51
 195 568 195 568 195 422 c 0,52,53
 195 279 195 279 280.5 197 c 128,-1,54
 366 115 366 115 512 115 c 0,55,56
 578 115 578 115 627 146 c 128,-1,57
 676 177 676 177 676 217 c 2,43,-1
EndSplineSet
EndChar

StartChar: r
Encoding: 114 114 85
Width: 685
Flags: HW
LayerCount: 2
Fore
SplineSet
660 709 m 0,0,1
 660 588 660 588 590 588 c 0,2,3
 579 588 579 588 517 602 c 128,-1,4
 455 616 455 616 426 616 c 0,5,6
 314 616 314 616 314 465 c 2,7,-1
 314 170 l 2,8,9
 314 118 314 118 350 96 c 0,10,11
 371 83 371 83 455 61 c 0,12,13
 500 50 500 50 500 27 c 0,14,15
 500 0 500 0 492.5 -5.5 c 128,-1,16
 485 -11 485 -11 455 -8 c 0,17,18
 235 15 235 15 107 -6 c 0,19,20
 67 -13 67 -13 56 -6 c 0,21,22
 47 0 47 0 47 29 c 0,23,24
 47 56 47 56 102.5 72 c 128,-1,25
 158 88 158 88 158 168 c 2,26,-1
 158 489 l 2,27,28
 158 552 158 552 141.5 574 c 128,-1,29
 125 596 125 596 51 633 c 2,30,-1
 45 636 l 2,31,32
 25 646 25 646 25 664 c 0,33,34
 25 684 25 684 66 698 c 0,35,36
 135 722 135 722 192 766 c 0,37,38
 239 803 239 803 252 803 c 0,39,40
 288 803 288 803 295 741 c 0,41,42
 304 662 304 662 316 662 c 0,43,44
 317 662 317 662 428 737 c 0,45,46
 501 786 501 786 588 786 c 0,47,48
 660 786 660 786 660 709 c 0,0,1
EndSplineSet
EndChar

StartChar: s
Encoding: 115 115 86
Width: 644
Flags: HW
LayerCount: 2
Fore
SplineSet
619 215 m 0,0,1
 619 109 619 109 537.5 46.5 c 128,-1,2
 456 -16 456 -16 315 -16 c 0,3,4
 221 -16 221 -16 127 4 c 0,5,6
 46 22 46 22 33 37 c 1,7,8
 25 51 25 51 25 174 c 0,9,10
 25 227 25 227 49 229 c 0,11,12
 73 232 73 232 90 203 c 0,13,14
 165 72 165 72 332 72 c 0,15,16
 473 72 473 72 473 170 c 0,17,18
 473 213 473 213 441 242 c 0,19,20
 406 275 406 275 305 319 c 0,21,22
 159 384 159 384 110 433 c 0,23,24
 57 485 57 485 57 573 c 0,25,26
 57 681 57 681 140 741 c 1,27,28
 217 799 217 799 346 799 c 0,29,30
 427 799 427 799 494 786 c 0,31,32
 566 773 566 773 569 754 c 0,33,34
 577 698 577 698 602 592 c 0,35,36
 605 579 605 579 574 571 c 1,37,38
 541 564 541 564 530 582 c 0,39,40
 451 711 451 711 330 711 c 0,41,42
 193 711 193 711 193 623 c 0,43,44
 193 574 193 574 230 545 c 0,45,46
 263 520 263 520 385 467 c 0,47,48
 513 412 513 412 559 368 c 0,49,50
 619 311 619 311 619 215 c 0,0,1
EndSplineSet
EndChar

StartChar: t
Encoding: 116 116 87
Width: 613
Flags: HW
LayerCount: 2
Fore
SplineSet
588 94 m 0,0,1
 588 46 588 46 500 12 c 0,2,3
 422 -18 422 -18 342 -18 c 0,4,5
 125 -18 125 -18 125 213 c 2,6,-1
 125 575 l 2,7,8
 125 644 125 644 114 659.5 c 128,-1,9
 103 675 103 675 41 690 c 0,10,11
 25 694 25 694 25 721 c 0,12,13
 25 750 25 750 37 756 c 0,14,15
 145 809 145 809 225 946 c 0,16,17
 236 965 236 965 268 958 c 1,18,19
 290 951 290 951 291 932 c 2,20,-1
 295 807 l 2,21,22
 295 793 295 793 300 787 c 0,23,24
 307 778 307 778 332 778 c 2,25,-1
 555 778 l 2,26,27
 574 778 574 778 555 731 c 0,28,29
 532 674 532 674 487 674 c 2,30,-1
 336 674 l 2,31,32
 297 674 297 674 288 661 c 0,33,34
 281 652 281 652 281 612 c 2,35,-1
 281 285 l 2,36,37
 281 161 281 161 303 128 c 0,38,39
 332 86 332 86 438 86 c 0,40,41
 473 86 473 86 523 97.5 c 128,-1,42
 573 109 573 109 576 109 c 0,43,44
 588 109 588 109 588 94 c 0,0,1
EndSplineSet
EndChar

StartChar: u
Encoding: 117 117 88
Width: 1013
Flags: HW
LayerCount: 2
Fore
SplineSet
988 84 m 0,0,1
 988 64 988 64 894 23 c 0,2,3
 814 -12 814 -12 814 -12 c 1,4,5
 801 -12 801 -12 758.5 33 c 128,-1,6
 716 78 716 78 699 78 c 0,7,8
 690 78 690 78 596 36 c 128,-1,9
 502 -6 502 -6 431 -6 c 0,10,11
 281 -6 281 -6 222 51 c 0,12,13
 158 112 158 112 158 272 c 2,14,-1
 158 473 l 2,15,16
 158 557 158 557 141 591 c 1,17,18
 118 633 118 633 48 655 c 0,19,20
 25 662 25 662 25 680 c 0,21,22
 25 700 25 700 64 715 c 0,23,24
 138 744 138 744 211 774 c 0,25,26
 262 795 262 795 285 795 c 0,27,28
 320 795 320 795 320 748 c 1,29,30
 320 748 320 748 317 642.5 c 128,-1,31
 314 537 314 537 314 442 c 2,32,-1
 314 322 l 2,33,34
 314 200 314 200 362 155 c 0,35,36
 405 115 405 115 519 115 c 0,37,38
 695 115 695 115 695 295 c 2,39,-1
 695 473 l 2,40,41
 695 570 695 570 677.5 597.5 c 128,-1,42
 660 625 660 625 584 645 c 1,43,44
 562 654 562 654 562 676 c 0,45,46
 562 699 562 699 589 709 c 0,47,48
 796 784 796 784 816 784 c 0,49,50
 855 784 855 784 855 739 c 1,51,52
 855 740 855 740 852 638.5 c 128,-1,53
 849 537 849 537 849 442 c 2,54,-1
 849 190 l 2,55,56
 849 119 849 119 953 111 c 0,57,58
 988 108 988 108 988 84 c 0,0,1
EndSplineSet
EndChar

StartChar: v
Encoding: 118 118 89
Width: 1025
Flags: HW
LayerCount: 2
Fore
SplineSet
1000 737 m 0,0,1
 1000 718 1000 718 937 698 c 0,2,3
 896 686 896 686 867 616 c 0,4,5
 818 498 818 498 696 270 c 0,6,7
 593 77 593 77 537 -12 c 1,8,9
 534 -19 534 -19 524 -18 c 256,10,11
 514 -17 514 -17 509 -10 c 0,12,13
 297 295 297 295 146 614 c 0,14,15
 114 682 114 682 83 690 c 1,16,17
 25 713 25 713 25 731 c 0,18,19
 25 771 25 771 64 766 c 0,20,21
 125 758 125 758 245 762 c 0,22,23
 361 765 361 765 408 774 c 0,24,25
 437 780 437 780 437 752 c 0,26,27
 437 717 437 717 396 707 c 1,28,29
 318 686 318 686 318 653 c 0,30,31
 318 638 318 638 328 610 c 1,32,33
 362 526 362 526 450 367.5 c 128,-1,34
 538 209 538 209 550 209 c 0,35,36
 559 209 559 209 635 361 c 0,37,38
 715 522 715 522 750 621 c 1,39,40
 755 632 755 632 755 643 c 0,41,42
 755 682 755 682 707 707 c 1,43,44
 660 726 660 726 660 743 c 0,45,46
 660 778 660 778 691 772 c 0,47,48
 731 765 731 765 832 760 c 128,-1,49
 933 755 933 755 963 758 c 1,50,51
 1000 765 1000 765 1000 737 c 0,0,1
EndSplineSet
EndChar

StartChar: w
Encoding: 119 119 90
Width: 1502
Flags: HW
LayerCount: 2
Fore
SplineSet
1477 735 m 0,0,1
 1477 717 1477 717 1408 698 c 0,2,3
 1363 686 1363 686 1332 616 c 0,4,5
 1152 216 1152 216 1010 -29 c 0,6,7
 1007 -35 1007 -35 995 -34 c 0,8,9
 984 -33 984 -33 980 -27 c 0,10,11
 956 9 956 9 857 224 c 0,12,13
 766 422 766 422 759 422 c 0,14,15
 748 422 748 422 652 231 c 1,16,17
 543 18 543 18 523 -12 c 1,18,19
 520 -19 520 -19 509 -18 c 0,20,21
 498 -18 498 -18 492 -10 c 0,22,23
 419 104 419 104 156 614 c 0,24,25
 126 674 126 674 89 690 c 0,26,27
 25 718 25 718 25 731 c 0,28,29
 25 770 25 770 68 766 c 0,30,31
 261 746 261 746 406 774 c 0,32,33
 439 780 439 780 439 752 c 0,34,35
 439 713 439 713 394 702 c 0,36,37
 335 688 335 688 335 658 c 0,38,39
 335 639 335 639 349 602 c 0,40,41
 385 509 385 509 457 366 c 128,-1,42
 529 223 529 223 541 223 c 0,43,44
 549 223 549 223 626 372 c 128,-1,45
 703 521 703 521 703 537 c 0,46,47
 703 576 703 576 677 621 c 1,48,49
 646 687 646 687 605 700 c 1,50,51
 539 723 539 723 539 745 c 0,52,53
 539 785 539 785 584 778 c 0,54,55
 738 757 738 757 910 786 c 0,56,57
 943 792 943 792 943 766 c 0,58,59
 943 728 943 728 894 719 c 0,60,61
 836 708 836 708 836 660 c 0,62,63
 836 637 836 637 849 606 c 0,64,65
 1003 229 1003 229 1027 229 c 0,66,67
 1036 229 1036 229 1107 376 c 0,68,69
 1183 533 1183 533 1213 629 c 0,70,71
 1215 634 1215 634 1215 640 c 0,72,73
 1215 683 1215 683 1148 707 c 1,74,75
 1096 724 1096 724 1096 745 c 0,76,77
 1096 780 1096 780 1129 772 c 0,78,79
 1174 762 1174 762 1291 757 c 0,80,81
 1401 753 1401 753 1436 758 c 0,82,83
 1477 763 1477 763 1477 735 c 0,0,1
EndSplineSet
EndChar

StartChar: x
Encoding: 120 120 91
Width: 1004
Flags: HW
LayerCount: 2
Fore
SplineSet
979 31 m 0,0,1
 979 7 979 7 966 1 c 0,2,3
 959 -2 959 -2 928 -2 c 0,4,5
 704 -2 704 -2 656 -10 c 0,6,7
 645 -12 645 -12 636 -12 c 0,8,9
 597 -12 597 -12 597 15 c 0,10,11
 597 25 597 25 605 37 c 0,12,13
 632 76 632 76 609 113 c 0,14,15
 505 279 505 279 482 279 c 0,16,17
 452 279 452 279 326 94 c 1,18,19
 320 88 320 88 320 80 c 0,20,21
 320 51 320 51 373 39 c 0,22,23
 413 30 413 30 406 2 c 0,24,25
 401 -18 401 -18 382 -20 c 256,26,27
 363 -22 363 -22 289 -10 c 0,28,29
 238 -2 238 -2 76 -2 c 0,30,31
 45 -2 45 -2 38 1 c 0,32,33
 25 7 25 7 25 31 c 0,34,35
 25 52 25 52 37.5 59 c 128,-1,36
 50 66 50 66 99 66 c 0,37,38
 155 66 155 66 234 141 c 1,39,40
 293 199 293 199 356 272 c 0,41,42
 422 350 422 350 422 365 c 0,43,44
 422 389 422 389 228 621 c 0,45,46
 171 689 171 689 119 692 c 0,47,48
 77 695 77 695 66 700.5 c 128,-1,49
 55 706 55 706 54 727 c 0,50,51
 52 754 52 754 61.5 761 c 128,-1,52
 71 768 71 768 105 762 c 0,53,54
 189 746 189 746 338 772 c 1,55,56
 404 790 404 790 406 758 c 0,57,58
 406 751 406 751 401 694 c 1,59,60
 396 653 396 653 408 631 c 0,61,62
 428 593 428 593 465.5 543.5 c 128,-1,63
 503 494 503 494 510 494 c 0,64,65
 520 494 520 494 562.5 544 c 128,-1,66
 605 594 605 594 627 631 c 0,67,68
 645 661 645 661 645 686 c 0,69,70
 645 713 645 713 621 713 c 0,71,72
 592 713 592 713 592 743 c 0,73,74
 592 770 592 770 644 764 c 0,75,76
 686 759 686 759 727 759 c 0,77,78
 763 759 763 759 823 765 c 0,79,80
 874 770 874 770 897 768 c 0,81,82
 947 764 947 764 947 735 c 0,83,84
 947 715 947 715 937.5 709.5 c 128,-1,85
 928 704 928 704 887 698 c 0,86,87
 805 687 805 687 740 614 c 0,88,89
 570 425 570 425 570 412 c 0,90,91
 570 394 570 394 744 186 c 0,92,93
 834 78 834 78 914 66 c 0,94,95
 935 62 935 62 957 59 c 1,96,97
 979 53 979 53 979 31 c 0,0,1
EndSplineSet
EndChar

StartChar: y
Encoding: 121 121 92
Width: 1035
Flags: HW
LayerCount: 2
Fore
SplineSet
1010 748 m 0,0,1
 1010 721 1010 721 966.5 701 c 128,-1,2
 923 681 923 681 900 625 c 0,3,4
 798 381 798 381 636 66 c 1,5,6
 599 -1 599 -1 533.5 -131.5 c 128,-1,7
 468 -262 468 -262 334 -473 c 0,8,9
 290 -543 290 -543 214 -530 c 1,10,11
 148 -520 148 -520 103.5 -492.5 c 128,-1,12
 59 -465 59 -465 64 -440 c 0,13,14
 73 -398 73 -398 124 -393 c 0,15,16
 212 -385 212 -385 239 -377 c 0,17,18
 272 -366 272 -366 296 -336 c 0,19,20
 347 -270 347 -270 421 -139 c 0,21,22
 490 -17 490 -17 490 -2 c 0,23,24
 490 8 490 8 365 239 c 0,25,26
 196 551 196 551 160 618 c 1,27,28
 127 682 127 682 89 692 c 0,29,30
 25 709 25 709 25 735 c 0,31,32
 25 773 25 773 66 770 c 0,33,34
 277 754 277 754 453 782 c 0,35,36
 484 787 484 787 484 762 c 0,37,38
 484 727 484 727 435 715 c 0,39,40
 361 697 361 697 361 650 c 0,41,42
 361 641 361 641 365 631 c 0,43,44
 414 516 414 516 497 354 c 0,45,46
 575 201 575 201 582 201 c 0,47,48
 591 201 591 201 648 326 c 0,49,50
 714 472 714 472 771 633 c 0,51,52
 772 637 772 637 772 642 c 0,53,54
 772 690 772 690 724 709 c 0,55,56
 668 730 668 730 668 745 c 0,57,58
 668 779 668 779 703 774 c 0,59,60
 846 752 846 752 969 770 c 0,61,62
 998 774 998 774 1004 770 c 128,-1,63
 1010 766 1010 766 1010 748 c 0,0,1
EndSplineSet
EndChar

StartChar: z
Encoding: 122 122 93
Width: 859
Flags: HW
LayerCount: 2
Fore
SplineSet
826 158 m 0,0,1
 813 144 813 144 732 -66 c 0,2,3
 722 -91 722 -91 689 -84 c 0,4,5
 659 -78 659 -78 666 -43 c 0,6,7
 672 -16 672 -16 617 -8 c 0,8,9
 512 6 512 6 52 6 c 0,10,11
 25 6 25 6 25 44 c 0,12,13
 25 52 25 52 29 55 c 0,14,15
 248 278 248 278 568 612 c 1,16,17
 580 626 580 626 580 632 c 0,18,19
 580 639 580 639 560 639 c 0,20,21
 549 639 549 639 287 633 c 0,22,23
 191 631 191 631 144 578 c 0,24,25
 95 522 95 522 70 530 c 0,26,27
 39 541 39 541 54 565 c 0,28,29
 73 595 73 595 152 801 c 0,30,31
 162 825 162 825 187 825 c 0,32,33
 218 825 218 825 228 803 c 0,34,35
 239 778 239 778 314 774 c 0,36,37
 464 767 464 767 762 764 c 0,38,39
 775 764 775 764 786 748.5 c 128,-1,40
 797 733 797 733 797 721 c 0,41,42
 797 717 797 717 795 715 c 0,43,44
 557 473 557 473 255 168 c 0,45,46
 241 154 241 154 241 147 c 0,47,48
 242 137 242 137 273 137 c 0,49,50
 547 137 547 137 605 139 c 0,51,52
 692 142 692 142 744 167 c 128,-1,53
 796 192 796 192 799 192 c 0,54,55
 806 192 806 192 816 188 c 0,56,57
 845 179 845 179 826 158 c 0,0,1
EndSplineSet
EndChar

StartChar: braceleft
Encoding: 123 123 94
Width: 794
Flags: HW
LayerCount: 2
Fore
SplineSet
766 -334 m 0,0,1
 759 -362 759 -362 713 -354 c 0,2,3
 240 -270 240 -270 240 -2 c 0,4,5
 240 52 240 52 277 172 c 0,6,7
 318 306 318 306 318 348 c 0,8,9
 318 455 318 455 229 500 c 0,10,11
 172 529 172 529 44 541 c 0,12,13
 25 542 25 542 25 573 c 0,14,15
 25 605 25 605 44 606 c 0,16,17
 172 618 172 618 229 646 c 0,18,19
 318 691 318 691 318 799 c 0,20,21
 318 841 318 841 277 975 c 0,22,23
 240 1095 240 1095 240 1149 c 0,24,25
 240 1417 240 1417 713 1501 c 0,26,27
 759 1509 759 1509 766 1481 c 0,28,29
 778 1439 778 1439 746 1432 c 0,30,31
 555 1386 555 1386 483.5 1333 c 128,-1,32
 412 1280 412 1280 412 1182 c 0,33,34
 412 1140 412 1140 447 1020 c 0,35,36
 484 893 484 893 484 819 c 0,37,38
 484 718 484 718 427 659 c 0,39,40
 380 609 380 609 277 573 c 1,41,42
 380 538 380 538 427 488 c 0,43,44
 484 428 484 428 484 328 c 0,45,46
 484 254 484 254 447 127 c 0,47,48
 412 7 412 7 412 -35 c 0,49,50
 412 -133 412 -133 483.5 -186 c 128,-1,51
 555 -239 555 -239 746 -285 c 0,52,53
 778 -292 778 -292 766 -334 c 0,0,1
EndSplineSet
EndChar

StartChar: bar
Encoding: 124 124 95
Width: 149
Flags: HW
LayerCount: 2
Fore
SplineSet
124 -330 m 2,0,1
 124 -354 124 -354 74 -354 c 0,2,3
 25 -354 25 -354 25 -330 c 2,4,-1
 25 1552 l 1,5,6
 28 1577 28 1577 76 1577 c 0,7,8
 96 1577 96 1577 108 1575 c 0,9,10
 124 1571 124 1571 124 1552 c 2,11,-1
 124 -330 l 2,0,1
EndSplineSet
EndChar

StartChar: braceright
Encoding: 125 125 96
Width: 794
Flags: HW
LayerCount: 2
Fore
SplineSet
769.272 573 m 0,0,1
 769.272 542 769.272 542 751.272 541 c 0,2,3
 622.272 529 622.272 529 566.272 500 c 0,4,5
 476.272 455 476.272 455 476.272 348 c 0,6,7
 476.272 306 476.272 306 517.272 172 c 0,8,9
 554.272 52 554.272 52 554.272 -2 c 0,10,11
 554.272 -270 554.272 -270 81.2725 -354 c 0,12,13
 35.2725 -362 35.2725 -362 28.2725 -334 c 0,14,15
 16.2725 -292 16.2725 -292 48.2725 -285 c 0,16,17
 239.272 -239 239.272 -239 310.772 -186 c 128,-1,18
 382.272 -133 382.272 -133 382.272 -35 c 0,19,20
 382.272 7 382.272 7 347.272 127 c 0,21,22
 310.272 254 310.272 254 310.272 328 c 0,23,24
 310.272 428 310.272 428 367.272 488 c 0,25,26
 414.272 538 414.272 538 517.272 573 c 1,27,28
 414.272 609 414.272 609 367.272 659 c 0,29,30
 310.272 718 310.272 718 310.272 819 c 0,31,32
 310.272 893 310.272 893 347.272 1020 c 0,33,34
 382.272 1140 382.272 1140 382.272 1182 c 0,35,36
 382.272 1280 382.272 1280 310.772 1333 c 128,-1,37
 239.272 1386 239.272 1386 48.2725 1432 c 0,38,39
 16.2725 1439 16.2725 1439 28.2725 1481 c 0,40,41
 35.2725 1509 35.2725 1509 81.2725 1501 c 0,42,43
 554.272 1417 554.272 1417 554.272 1149 c 0,44,45
 554.272 1095 554.272 1095 517.272 975 c 0,46,47
 476.272 841 476.272 841 476.272 799 c 0,48,49
 476.272 691 476.272 691 566.272 646 c 0,50,51
 622.272 618 622.272 618 751.272 606 c 0,52,53
 769.272 605 769.272 605 769.272 573 c 0,0,1
EndSplineSet
EndChar

StartChar: asciitilde
Encoding: 126 126 97
Width: 754
Flags: HW
LayerCount: 2
Fore
SplineSet
724.025 647 m 1,0,1
 644.025 541 644.025 541 617.025 510 c 0,2,3
 566.025 451 566.025 451 513.025 451 c 0,4,5
 484.025 451 484.025 451 365.025 485.5 c 128,-1,6
 246.025 520 246.025 520 234.025 520 c 0,7,8
 209.025 520 209.025 520 181.025 502 c 1,9,-1
 87.0254 420 l 2,10,11
 73.0254 408 73.0254 408 42.0254 434 c 0,12,13
 17.0254 454 17.0254 454 31.0254 465 c 1,14,15
 96.0254 556 96.0254 556 136.025 602 c 0,16,17
 189.025 664 189.025 664 240.025 664 c 0,18,19
 269.025 664 269.025 664 389.025 628 c 128,-1,20
 509.025 592 509.025 592 519.025 592 c 0,21,22
 548.025 592 548.025 592 572.025 612 c 0,23,24
 627.025 658 627.025 658 668.025 694 c 0,25,26
 680.025 705 680.025 705 711.025 678 c 1,27,28
 737.025 661 737.025 661 724.025 647 c 1,0,1
EndSplineSet
EndChar

StartChar: dagger
Encoding: 8224 8224 130
Width: 698
Flags: HW
LayerCount: 2
Fore
SplineSet
672.36 950 m 0,0,1
 674.36 936 674.36 936 670.36 929 c 128,-1,2
 666.36 922 666.36 922 656.36 924 c 1,3,4
 636.36 924 636.36 924 595.36 940 c 0,5,6
 520.36 970 520.36 970 382.36 973 c 1,7,8
 388.36 926 388.36 926 412.36 825 c 1,9,10
 442.36 740 442.36 740 437.36 711 c 0,11,12
 430.36 670 430.36 670 369.36 168 c 0,13,14
 367.36 151 367.36 151 345.36 145 c 1,15,16
 333.36 143 333.36 143 330.36 168 c 2,17,-1
 263.36 711 l 2,18,19
 256.36 765 256.36 765 283.36 838 c 0,20,21
 309.36 908 309.36 908 318.36 973 c 1,22,23
 155.36 973 155.36 973 97.3604 940 c 0,24,25
 72.3604 926 72.3604 926 46.3604 926 c 0,26,27
 22.3604 926 22.3604 926 25.3604 952 c 0,28,29
 32.3604 1013 32.3604 1013 25.3604 1059 c 0,30,31
 22.3604 1083 22.3604 1083 44.3604 1083 c 0,32,33
 58.3604 1083 58.3604 1083 85.3604 1071 c 0,34,35
 157.36 1038 157.36 1038 320.36 1032 c 1,36,37
 309.36 1170 309.36 1170 239.36 1261 c 0,38,39
 226.36 1279 226.36 1279 226.36 1290 c 0,40,41
 226.36 1311 226.36 1311 255.36 1309 c 0,42,43
 336.36 1301 336.36 1301 455.36 1324 c 1,44,45
 476.36 1327 476.36 1327 476.36 1303 c 0,46,47
 476.36 1292 476.36 1292 455.36 1268 c 0,48,49
 392.36 1192 392.36 1192 380.36 1032 c 1,50,51
 527.36 1032 527.36 1032 605.36 1063 c 0,52,53
 636.36 1075 636.36 1075 648.36 1075 c 0,54,55
 671.36 1075 671.36 1075 668.36 1044 c 0,56,57
 666.36 1023 666.36 1023 672.36 950 c 0,0,1
EndSplineSet
EndChar

StartChar: degree
Encoding: 176 176 131
Width: 617
Flags: HW
LayerCount: 2
Fore
SplineSet
591 1053 m 0,0,1
 591 934 591 934 507 849 c 128,-1,2
 423 764 423 764 304 764 c 0,3,4
 186 764 186 764 106 845 c 128,-1,5
 26 926 26 926 26 1044 c 0,6,7
 26 1163 26 1163 110 1247 c 128,-1,8
 194 1331 194 1331 313 1331 c 0,9,10
 431 1331 431 1331 511 1251 c 128,-1,11
 591 1171 591 1171 591 1053 c 0,0,1
481 1044 m 0,12,13
 481 1124 481 1124 429.5 1178.5 c 128,-1,14
 378 1233 378 1233 304 1233 c 0,15,16
 232 1233 232 1233 184.5 1182.5 c 128,-1,17
 137 1132 137 1132 137 1053 c 0,18,19
 137 973 137 973 188.5 917.5 c 128,-1,20
 240 862 240 862 313 862 c 256,21,22
 386 862 386 862 433.5 913.5 c 128,-1,23
 481 965 481 965 481 1044 c 0,12,13
EndSplineSet
EndChar

StartChar: cent
Encoding: 162 162 132
Width: 773
Flags: HW
LayerCount: 2
Fore
SplineSet
748 692 m 0,0,1
 748 582 748 582 660 582 c 0,2,3
 597 582 597 582 545 657 c 0,4,5
 516 700 516 700 492 715 c 1,6,-1
 430 94 l 1,7,8
 459 90 459 90 477 90 c 0,9,10
 584 90 584 90 695 162 c 0,11,12
 707 170 707 170 719 170 c 0,13,14
 740 170 740 170 740 141 c 0,15,16
 740 105 740 105 638 52 c 0,17,18
 528 -5 528 -5 420 -6 c 1,19,20
 413 -80 413 -80 400 -209 c 0,21,22
 397 -236 397 -236 367 -219 c 1,23,24
 317 -199 317 -199 322 -152 c 0,25,26
 327 -102 327 -102 336 0 c 1,27,28
 195 21 195 21 113 114 c 0,29,30
 25 214 25 214 25 379 c 0,31,32
 25 562 25 562 139 684 c 0,33,34
 248 802 248 802 418 819 c 1,35,36
 425 905 425 905 432 967 c 0,37,38
 436 999 436 999 471 985 c 0,39,40
 517 966 517 966 512 918 c 0,41,42
 509 886 509 886 502 821 c 1,43,44
 611 815 611 815 679.5 780.5 c 128,-1,45
 748 746 748 746 748 692 c 0,0,1
408 735 m 1,46,47
 308 734 308 734 249 661 c 0,48,49
 185 582 185 582 185 440 c 0,50,51
 185 195 185 195 348 119 c 1,52,-1
 408 735 l 1,46,47
EndSplineSet
EndChar

StartChar: sterling
Encoding: 163 163 133
Width: 827
Flags: HW
LayerCount: 2
Fore
SplineSet
800 193 m 0,0,1
 755 92 755 92 739 40 c 128,-1,2
 723 -12 723 -12 612 -12 c 0,3,4
 561 -12 561 -12 444.5 13.5 c 128,-1,5
 328 39 328 39 286 39 c 0,6,7
 186 39 186 39 63 -8 c 0,8,9
 54 -11 54 -11 40 10.5 c 128,-1,10
 26 32 26 32 26 45 c 0,11,12
 26 50 26 50 28 51 c 0,13,14
 209 138 209 138 209 309 c 0,15,16
 209 332 209 332 204 369 c 1,17,-1
 86 369 l 2,18,19
 71 369 71 369 75 412 c 0,20,21
 80 459 80 459 98 459 c 2,22,-1
 182 459 l 1,23,24
 155 542 155 542 155 588 c 0,25,26
 155 693 155 693 243 756 c 128,-1,27
 331 819 331 819 479 819 c 0,28,29
 612 819 612 819 683 785 c 0,30,31
 745 756 745 756 745 709 c 0,32,33
 745 606 745 606 659 606 c 0,34,35
 601 606 601 606 546.5 671.5 c 128,-1,36
 492 737 492 737 428 737 c 0,37,38
 317 737 317 737 317 608 c 0,39,40
 317 551 317 551 348 459 c 1,41,-1
 546 459 l 2,42,43
 567 459 567 459 561 414 c 0,44,45
 554 369 554 369 536 369 c 2,46,-1
 362 369 l 1,47,48
 364 362 364 362 364 348 c 0,49,50
 364 220 364 220 206 115 c 1,51,52
 284 150 284 150 379 150 c 0,53,54
 417 150 417 150 487 139.5 c 128,-1,55
 557 129 557 129 591 129 c 0,56,57
 650 129 650 129 679 144.5 c 128,-1,58
 708 160 708 160 739 211 c 0,59,60
 744 218 744 218 775 211 c 0,61,62
 805 204 805 204 800 193 c 0,0,1
EndSplineSet
EndChar

StartChar: section
Encoding: 167 167 134
Width: 724
Flags: HW
LayerCount: 2
Fore
SplineSet
699 242 m 0,0,1
 699 94 699 94 537 23 c 1,2,3
 625 -37 625 -37 625 -145 c 0,4,5
 625 -245 625 -245 546.5 -305 c 128,-1,6
 468 -365 468 -365 346 -365 c 0,7,8
 216 -365 216 -365 143 -326.5 c 128,-1,9
 70 -288 70 -288 70 -223 c 0,10,11
 70 -141 70 -141 148 -141 c 0,12,13
 215 -141 215 -141 250 -217 c 0,14,15
 271 -263 271 -263 294 -279 c 0,16,17
 321 -297 321 -297 377 -297 c 0,18,19
 432 -297 432 -297 467 -268.5 c 128,-1,20
 502 -240 502 -240 502 -195 c 0,21,22
 502 -144 502 -144 463 -114 c 0,23,24
 420 -81 420 -81 282.5 -29.5 c 128,-1,25
 145 22 145 22 88 73 c 0,26,27
 25 130 25 130 25 215 c 0,28,29
 25 363 25 363 187 434 c 1,30,31
 98 494 98 494 98 602 c 0,32,33
 98 702 98 702 178 762 c 0,34,35
 255 821 255 821 377 821 c 0,36,37
 508 821 508 821 580.5 783 c 128,-1,38
 653 745 653 745 653 680 c 0,39,40
 653 598 653 598 576 598 c 0,41,42
 508 598 508 598 473 674 c 0,43,44
 452 719 452 719 429 735 c 0,45,46
 402 754 402 754 346 754 c 0,47,48
 291 754 291 754 256 725.5 c 128,-1,49
 221 697 221 697 221 651 c 0,50,51
 221 601 221 601 262 569 c 128,-1,52
 303 537 303 537 443 485 c 0,53,54
 579 435 579 435 635 384 c 0,55,56
 699 327 699 327 699 242 c 0,0,1
567 193 m 0,57,58
 567 276 567 276 363 352 c 0,59,60
 290 379 290 379 258 395 c 1,61,62
 156 350 156 350 156 264 c 0,63,64
 156 181 156 181 361 104 c 0,65,66
 433 78 433 78 465 61 c 1,67,68
 567 107 567 107 567 193 c 0,57,58
EndSplineSet
EndChar

StartChar: bullet
Encoding: 8226 8226 135
Width: 540
Flags: HW
LayerCount: 2
Fore
SplineSet
514 637 m 0,0,1
 514 518 514 518 444.5 437 c 128,-1,2
 375 356 375 356 270 356 c 0,3,4
 26 356 26 356 26 625 c 0,5,6
 26 740 26 740 99.5 817.5 c 128,-1,7
 173 895 173 895 278 895 c 0,8,9
 514 895 514 895 514 637 c 0,0,1
EndSplineSet
EndChar

StartChar: paragraph
Encoding: 182 182 136
Width: 925
Flags: HW
LayerCount: 2
Fore
SplineSet
897 834 m 0,0,1
 900 817 900 817 900 807 c 0,2,3
 900 775 900 775 848 762 c 0,4,5
 783 745 783 745 763 733 c 0,6,7
 725 710 725 710 725 662 c 0,8,9
 725 336 725 336 686 43 c 0,10,11
 628 -397 628 -397 365 -397 c 0,12,13
 270 -397 270 -397 179 -364.5 c 128,-1,14
 88 -332 88 -332 88 -299 c 0,15,16
 88 -248 88 -248 134 -202 c 128,-1,17
 180 -156 180 -156 225 -156 c 0,18,19
 251 -156 251 -156 310.5 -232.5 c 128,-1,20
 370 -309 370 -309 410 -309 c 0,21,22
 466 -309 466 -309 512 -214 c 0,23,24
 555 -125 555 -125 565 -8 c 0,25,26
 567 7 567 7 567 19 c 0,27,28
 567 86 567 86 508 104 c 0,29,30
 247 185 247 185 142 265 c 0,31,32
 25 355 25 355 25 498 c 0,33,34
 25 690 25 690 157 757 c 1,35,36
 259 810 259 810 547 821 c 0,37,38
 746 829 746 829 821 852 c 0,39,40
 851 861 851 861 866 861 c 0,41,42
 891 861 891 861 897 834 c 0,0,1
EndSplineSet
EndChar

StartChar: germandbls
Encoding: 223 223 137
Width: 1072
Flags: HW
LayerCount: 2
Fore
SplineSet
1047 231 m 0,0,1
 1047 123 1047 123 977 56 c 1,2,3
 900 -16 900 -16 765 -16 c 0,4,5
 590 -16 590 -16 549 37 c 0,6,7
 539 50 539 50 539 174 c 0,8,9
 539 227 539 227 564 229 c 0,10,11
 590 232 590 232 607 203 c 0,12,13
 679 74 679 74 779 74 c 0,14,15
 896 74 896 74 896 195 c 0,16,17
 896 243 896 243 860 282.5 c 128,-1,18
 824 322 824 322 726 379 c 0,19,20
 601 451 601 451 556 506 c 0,21,22
 506 566 506 566 506 659 c 0,23,24
 506 735 506 735 621 934 c 0,25,26
 695 1062 695 1062 695 1155 c 0,27,28
 695 1230 695 1230 645.5 1275.5 c 128,-1,29
 596 1321 596 1321 519 1321 c 0,30,31
 427 1321 427 1321 368 1241 c 0,32,33
 306 1156 306 1156 306 1016 c 2,34,-1
 306 150 l 2,35,36
 306 103 306 103 355 84 c 0,37,38
 394 69 394 69 394 37 c 0,39,40
 394 9 394 9 380 3 c 0,41,42
 371 -1 371 -1 343 0 c 0,43,44
 228 6 228 6 91 -8 c 0,45,46
 45 -13 45 -13 35 -8 c 256,47,48
 25 -3 25 -3 25 27 c 0,49,50
 25 52 25 52 83 68 c 0,51,52
 152 87 152 87 152 168 c 2,53,-1
 152 557 l 2,54,55
 152 618 152 618 133 642 c 0,56,57
 120 658 120 658 83 670 c 0,58,59
 25 688 25 688 25 727 c 0,60,61
 25 754 25 754 49 761 c 0,62,63
 57 763 57 763 99 764 c 0,64,65
 135 765 135 765 144 780 c 0,66,67
 150 791 150 791 150 834 c 2,68,-1
 150 993 l 2,69,70
 150 1184 150 1184 274 1304 c 0,71,72
 393 1419 393 1419 574 1419 c 0,73,74
 869 1419 869 1419 869 1212 c 0,75,76
 869 1150 869 1150 835 1079 c 0,77,78
 812 1031 812 1031 730 901 c 0,79,80
 652 778 652 778 652 700 c 0,81,82
 652 644 652 644 690 605 c 0,83,84
 720 575 720 575 818 518 c 0,85,86
 953 439 953 439 997 387 c 0,87,88
 1047 328 1047 328 1047 231 c 0,0,1
EndSplineSet
EndChar

StartChar: registered
Encoding: 174 174 138
Width: 1012
Flags: HW
LayerCount: 2
Fore
SplineSet
987 852 m 0,0,1
 987 653 987 653 846 513 c 128,-1,2
 705 373 705 373 506 373 c 0,3,4
 306 373 306 373 165.5 512.5 c 128,-1,5
 25 652 25 652 25 852 c 0,6,7
 25 1050 25 1050 165.5 1191.5 c 128,-1,8
 306 1333 306 1333 506 1333 c 0,9,10
 704 1333 704 1333 845.5 1191.5 c 128,-1,11
 987 1050 987 1050 987 852 c 0,0,1
934 852 m 256,12,13
 934 1028 934 1028 807.5 1154 c 128,-1,14
 681 1280 681 1280 506 1280 c 0,15,16
 329 1280 329 1280 203.5 1154.5 c 128,-1,17
 78 1029 78 1029 78 852 c 256,18,19
 78 675 78 675 203.5 549.5 c 128,-1,20
 329 424 329 424 506 424 c 0,21,22
 681 424 681 424 807.5 550 c 128,-1,23
 934 676 934 676 934 852 c 256,12,13
766 614 m 1,24,25
 766 596 766 596 741 596 c 0,26,27
 598 596 598 596 479 836 c 1,28,29
 451 831 451 831 438 829 c 1,30,-1
 438 676 l 2,31,32
 438 654 438 654 479 649 c 1,33,34
 508 642 508 642 508 627 c 0,35,36
 508 606 508 606 477 606 c 0,37,38
 379 608 379 608 319 602 c 0,39,40
 297 600 297 600 297 623 c 0,41,42
 297 641 297 641 317 643 c 1,43,44
 350 643 350 643 350 676 c 2,45,-1
 350 1044 l 2,46,47
 350 1077 350 1077 313 1083 c 0,48,49
 287 1088 287 1088 287 1102 c 0,50,51
 287 1129 287 1129 319 1124 c 1,52,53
 319 1124 319 1124 506 1124 c 0,54,55
 690 1124 690 1124 690 993 c 0,56,57
 690 886 690 886 569 850 c 1,58,59
 659 647 659 647 745 635 c 1,60,61
 764 629 764 629 766 614 c 1,24,25
596 983 m 0,62,63
 596 1085 596 1085 479 1085 c 0,64,65
 438 1085 438 1085 438 1051 c 2,66,-1
 438 872 l 1,67,68
 596 887 596 887 596 983 c 0,62,63
EndSplineSet
EndChar

StartChar: copyright
Encoding: 169 169 139
Width: 1426
Flags: HW
LayerCount: 2
Fore
SplineSet
1401 655 m 256,0,1
 1401 372 1401 372 1198.5 170.5 c 128,-1,2
 996 -31 996 -31 713 -31 c 0,3,4
 429 -31 429 -31 227 170 c 128,-1,5
 25 371 25 371 25 655 c 0,6,7
 25 938 25 938 227 1140.5 c 128,-1,8
 429 1343 429 1343 713 1343 c 0,9,10
 996 1343 996 1343 1198.5 1140.5 c 128,-1,11
 1401 938 1401 938 1401 655 c 256,0,1
1332 655 m 256,12,13
 1332 914 1332 914 1151 1098 c 128,-1,14
 970 1282 970 1282 713 1282 c 0,15,16
 455 1282 455 1282 275 1098.5 c 128,-1,17
 95 915 95 915 95 655 c 256,18,19
 95 395 95 395 274.5 213 c 128,-1,20
 454 31 454 31 713 31 c 0,21,22
 971 31 971 31 1151.5 213.5 c 128,-1,23
 1332 396 1332 396 1332 655 c 256,12,13
1030 477 m 1,24,25
 1025 434 1025 434 1006 354 c 1,26,27
 995 325 995 325 919 300 c 0,28,29
 834 272 834 272 727 272 c 0,30,31
 550 272 550 272 431 378.5 c 128,-1,32
 312 485 312 485 312 653 c 0,33,34
 312 824 312 824 435 937 c 0,35,36
 554 1047 554 1047 723 1047 c 0,37,38
 846 1047 846 1047 923.5 1020.5 c 128,-1,39
 1001 994 1001 994 1004 965 c 0,40,41
 1008 928 1008 928 1008 825 c 0,42,43
 1008 800 1008 800 971 799 c 1,44,45
 941 797 941 797 934 819 c 0,46,47
 906 909 906 909 859.5 944 c 128,-1,48
 813 979 813 979 721 979 c 0,49,50
 604 979 604 979 533 900 c 0,51,52
 457 816 457 816 457 666 c 0,53,54
 457 518 457 518 537 429 c 128,-1,55
 617 340 617 340 746 340 c 0,56,57
 893 340 893 340 951 487 c 1,58,59
 960 522 960 522 1002 512 c 0,60,61
 1030 505 1030 505 1030 477 c 1,24,25
EndSplineSet
EndChar

StartChar: trademark
Encoding: 8482 8482 140
Width: 1695
Flags: HW
LayerCount: 2
Fore
SplineSet
1668.83 664 m 0,0,1
 1668.83 634 1668.83 634 1625.83 637 c 0,2,3
 1495.83 646 1495.83 646 1424.83 637 c 0,4,5
 1389.83 632 1389.83 632 1389.83 664 c 0,6,7
 1389.83 686 1389.83 686 1420.83 692 c 0,8,9
 1476.83 704 1476.83 704 1475.83 733 c 0,10,11
 1470.83 845 1470.83 845 1459.83 1135 c 0,12,13
 1458.83 1144 1458.83 1144 1454.83 1144 c 256,14,15
 1450.83 1144 1450.83 1144 1446.83 1137 c 0,16,17
 1363.83 967 1363.83 967 1236.83 680 c 1,18,19
 1217.83 626 1217.83 626 1199.83 623 c 1,20,21
 1165.83 624 1165.83 624 1160.83 657 c 1,22,23
 1128.83 771 1128.83 771 943.828 1157 c 1,24,25
 933.828 974 933.828 974 926.828 762 c 0,26,27
 925.828 709 925.828 709 982.828 696 c 0,28,29
 1020.83 688 1020.83 688 1020.83 664 c 0,30,31
 1020.83 634 1020.83 634 977.828 637 c 0,32,33
 863.828 645 863.828 645 801.828 637 c 0,34,35
 767.828 632 767.828 632 767.828 664 c 0,36,37
 767.828 686 767.828 686 797.828 692 c 0,38,39
 850.828 703 850.828 703 853.828 756 c 2,40,-1
 871.828 1198 l 2,41,42
 873.828 1243 873.828 1243 818.828 1264 c 0,43,44
 788.828 1275 788.828 1275 791.828 1300 c 256,45,46
 794.828 1325 794.828 1325 826.828 1319 c 0,47,48
 888.828 1307 888.828 1307 955.828 1315 c 0,49,50
 999.828 1320 999.828 1320 1012.83 1290 c 0,51,52
 1089.83 1116 1089.83 1116 1211.83 831 c 0,53,54
 1218.83 815 1218.83 815 1227.83 836 c 1,55,56
 1261.83 906 1261.83 906 1440.83 1276 c 0,57,58
 1457.83 1311 1457.83 1311 1481.83 1311 c 0,59,60
 1532.83 1311 1532.83 1311 1610.83 1321 c 0,61,62
 1653.83 1327 1653.83 1327 1653.83 1294 c 0,63,64
 1653.83 1269 1653.83 1269 1618.83 1264 c 0,65,66
 1564.83 1255 1564.83 1255 1565.83 1227 c 2,67,-1
 1584.83 743 l 2,68,69
 1585.83 707 1585.83 707 1631.83 696 c 0,70,71
 1668.83 688 1668.83 688 1668.83 664 c 0,0,1
699.828 1149 m 0,72,73
 699.828 1125 699.828 1125 678.828 1120 c 0,74,75
 650.828 1113 650.828 1113 642.828 1141 c 0,76,77
 622.828 1203 622.828 1203 593.828 1224 c 0,78,79
 554.828 1251 554.828 1251 457.828 1251 c 0,80,81
 420.828 1251 420.828 1251 420.828 1233 c 2,82,-1
 420.828 745 l 2,83,84
 420.828 705 420.828 705 486.828 688 c 0,85,86
 526.828 678 526.828 678 521.828 653 c 256,87,88
 516.828 628 516.828 628 478.828 633 c 0,89,90
 368.828 647 368.828 647 263.828 633 c 0,91,92
 223.828 628 223.828 628 218.828 653 c 0,93,94
 212.828 682 212.828 682 244.828 690 c 0,95,96
 310.828 707 310.828 707 310.828 760 c 2,97,-1
 310.828 1233 l 2,98,99
 310.828 1251 310.828 1251 273.828 1251 c 0,100,101
 190.828 1251 190.828 1251 152.828 1227.5 c 128,-1,102
 114.828 1204 114.828 1204 81.8281 1131 c 0,103,104
 70.8281 1108 70.8281 1108 46.8281 1114 c 0,105,106
 19.8281 1120 19.8281 1120 27.8281 1149 c 0,107,108
 44.8281 1205 44.8281 1205 44.8281 1296 c 0,109,110
 44.8281 1317 44.8281 1317 85.8281 1319 c 1,111,112
 181.828 1309 181.828 1309 324.828 1309 c 0,113,114
 567.828 1309 567.828 1309 644.828 1319 c 0,115,116
 682.828 1324 682.828 1324 687.828 1305 c 0,117,118
 699.828 1253 699.828 1253 699.828 1149 c 0,72,73
EndSplineSet
EndChar

StartChar: acute
Encoding: 180 180 141
Width: 404
Flags: HW
LayerCount: 2
Fore
SplineSet
375.559 1239 m 0,0,1
 375.559 1220 375.559 1220 353.559 1186 c 1,2,3
 234.559 1041 234.559 1041 97.5586 922 c 0,4,5
 76.5586 904 76.5586 904 43.5586 924 c 0,6,7
 20.5586 938 20.5586 938 31.5586 952 c 0,8,9
 90.5586 1031 90.5586 1031 140.559 1152 c 0,10,11
 187.559 1265 187.559 1265 199.559 1278 c 0,12,13
 226.559 1307 226.559 1307 248.559 1307 c 0,14,15
 288.559 1307 288.559 1307 333.559 1281 c 0,16,17
 375.559 1256 375.559 1256 375.559 1239 c 0,0,1
EndSplineSet
EndChar

StartChar: dieresis
Encoding: 168 168 142
Width: 627
Flags: HW
LayerCount: 2
Fore
SplineSet
598 1065 m 0,0,1
 598 1010 598 1010 566.5 973 c 128,-1,2
 535 936 535 936 488 936 c 0,3,4
 391 936 391 936 391 1047 c 0,5,6
 391 1098 391 1098 425 1133.5 c 128,-1,7
 459 1169 459 1169 506 1169 c 0,8,9
 598 1169 598 1169 598 1065 c 0,0,1
236 1065 m 0,10,11
 236 1010 236 1010 203.5 973 c 128,-1,12
 171 936 171 936 125 936 c 0,13,14
 29 936 29 936 29 1047 c 0,15,16
 29 1098 29 1098 63 1133.5 c 128,-1,17
 97 1169 97 1169 143 1169 c 0,18,19
 236 1169 236 1169 236 1065 c 0,10,11
EndSplineSet
EndChar

StartChar: notequal
Encoding: 8800 8800 143
Width: 777
Flags: HW
LayerCount: 2
Fore
SplineSet
751 602 m 0,0,1
 751 576 751 576 733 552 c 128,-1,2
 715 528 715 528 690 528 c 2,3,-1
 65 528 l 2,4,5
 47 528 47 528 47 563 c 0,6,7
 47 621 47 621 104 621 c 2,8,-1
 733 621 l 2,9,10
 751 621 751 621 751 602 c 0,0,1
657 760 m 2,11,-1
 204 33 l 2,12,13
 187 4 187 4 155 4 c 0,14,15
 134 4 134 4 125 16 c 128,-1,16
 116 28 116 28 122 39 c 2,17,-1
 575 766 l 2,18,19
 590 791 590 791 630 791 c 0,20,21
 676 791 676 791 657 760 c 2,11,-1
731 248 m 0,22,23
 731 222 731 222 712.5 198 c 128,-1,24
 694 174 694 174 669 174 c 2,25,-1
 45 174 l 2,26,27
 26 174 26 174 26 211 c 0,28,29
 26 268 26 268 84 268 c 2,30,-1
 712 268 l 2,31,32
 731 268 731 268 731 248 c 0,22,23
EndSplineSet
EndChar

StartChar: AE
Encoding: 198 198 144
Width: 1800
Flags: HW
LayerCount: 2
Fore
SplineSet
1774 250 m 0,0,1
 1742 116 1742 116 1737 10 c 0,2,3
 1736 -10 1736 -10 1675 -6 c 0,4,5
 1299 16 1299 16 871 -8 c 0,6,7
 825 -11 825 -11 825 27 c 0,8,9
 825 52 825 52 871 57 c 0,10,11
 931 64 931 64 949 82 c 128,-1,12
 967 100 967 100 967 164 c 2,13,-1
 967 465 l 1,14,-1
 742 465 l 2,15,16
 601 465 601 465 518 471 c 1,17,-1
 375 215 l 2,18,19
 354 178 354 178 354 153 c 0,20,21
 354 110 354 110 420 86 c 0,22,23
 477 66 477 66 490.5 56 c 128,-1,24
 504 46 504 46 504 23 c 0,25,26
 504 -8 504 -8 426 0 c 0,27,28
 256 17 256 17 62 -12 c 1,29,30
 37 -18 37 -18 31 -13 c 256,31,32
 25 -8 25 -8 25 16 c 0,33,34
 25 39 25 39 96 68 c 1,35,36
 175 98 175 98 248 217 c 0,37,38
 458 560 458 560 785 1143 c 0,39,40
 807 1183 807 1183 807 1198 c 0,41,42
 807 1228 807 1228 719 1251 c 0,43,44
 679 1262 679 1262 688 1300 c 0,45,46
 693 1319 693 1319 704 1321 c 0,47,48
 716 1324 716 1324 760 1317 c 0,49,50
 827 1306 827 1306 1155 1307 c 1,51,52
 1475 1309 1475 1309 1643 1319 c 0,53,54
 1694 1322 1694 1322 1686 1322 c 1,55,56
 1711 1321 1711 1321 1706 1300 c 0,57,58
 1683 1196 1683 1196 1686 1075 c 0,59,60
 1686 1044 1686 1044 1657 1044 c 0,61,62
 1630 1044 1630 1044 1620 1071 c 0,63,64
 1593 1140 1593 1140 1571 1166 c 0,65,66
 1539 1204 1539 1204 1479 1214 c 0,67,68
 1431 1223 1431 1223 1184 1223 c 0,69,70
 1152 1223 1152 1223 1144 1212 c 0,71,72
 1139 1206 1139 1206 1139 1182 c 2,73,-1
 1139 764 l 2,74,75
 1139 739 1139 739 1168 739 c 0,76,77
 1328 742 1328 742 1407 752 c 0,78,79
 1443 756 1443 756 1459 794 c 0,80,81
 1464 805 1464 805 1477 864 c 0,82,83
 1486 907 1486 907 1524 895 c 1,84,85
 1558 888 1558 888 1553 864 c 0,86,87
 1524 728 1524 728 1534 510 c 0,88,89
 1535 486 1535 486 1501 481 c 0,90,91
 1469 477 1469 477 1464 514 c 0,92,93
 1454 592 1454 592 1439 616 c 128,-1,94
 1424 640 1424 640 1381 645 c 0,95,96
 1299 655 1299 655 1155 655 c 0,97,98
 1139 655 1139 655 1139 641 c 2,99,-1
 1139 205 l 2,100,101
 1139 112 1139 112 1225 92 c 0,102,103
 1249 86 1249 86 1389 86 c 0,104,105
 1635 86 1635 86 1700 260 c 0,106,107
 1715 301 1715 301 1749 287 c 1,108,109
 1781 279 1781 279 1774 250 c 0,0,1
967 545 m 1,110,-1
 967 1171 l 2,111,112
 967 1201 967 1201 954 1201 c 0,113,114
 942 1201 942 1201 926 1174 c 0,115,116
 821 996 821 996 563 549 c 1,117,118
 662 543 662 543 766 543 c 0,119,120
 790 543 790 543 862.5 544 c 128,-1,121
 935 545 935 545 967 545 c 1,110,-1
EndSplineSet
EndChar

StartChar: infinity
Encoding: 8734 8734 146
Width: 1449
Flags: HW
LayerCount: 2
Fore
SplineSet
1423 408 m 0,0,1
 1423 251 1423 251 1324 138 c 0,2,3
 1219 18 1219 18 1056 18 c 0,4,5
 827 18 827 18 704 260 c 1,6,7
 576 23 576 23 370 23 c 0,8,9
 216 23 216 23 119 134 c 0,10,11
 26 241 26 241 26 403 c 0,12,13
 26 560 26 560 125 673 c 0,14,15
 230 793 230 793 393 793 c 0,16,17
 623 793 623 793 745 551 c 1,18,19
 873 788 873 788 1079 788 c 0,20,21
 1234 788 1234 788 1330 677 c 0,22,23
 1423 570 1423 570 1423 408 c 0,0,1
1327 420 m 0,24,25
 1327 542 1327 542 1253.5 620 c 128,-1,26
 1180 698 1180 698 1063 698 c 0,27,28
 904 698 904 698 788 455 c 1,29,30
 914 158 914 158 1087 158 c 0,31,32
 1200 158 1200 158 1267 242 c 0,33,34
 1327 317 1327 317 1327 420 c 0,24,25
661 356 m 1,35,36
 535 653 535 653 362 653 c 0,37,38
 250 653 250 653 182 569 c 1,39,40
 123 494 123 494 123 391 c 0,41,42
 123 269 123 269 196 191 c 128,-1,43
 269 113 269 113 387 113 c 0,44,45
 545 113 545 113 661 356 c 1,35,36
EndSplineSet
EndChar

StartChar: plusminus
Encoding: 177 177 147
Width: 828
Flags: HW
LayerCount: 2
Fore
SplineSet
803 561 m 0,0,1
 803 542 803 542 785 524 c 128,-1,2
 767 506 767 506 743 506 c 2,3,-1
 475 506 l 1,4,-1
 475 236 l 2,5,6
 475 186 475 186 395 186 c 0,7,8
 350 186 350 186 350 207 c 2,9,-1
 350 506 l 1,10,-1
 43 506 l 2,11,12
 25 506 25 506 25 532 c 0,13,14
 25 578 25 578 82 578 c 2,15,-1
 350 578 l 1,16,-1
 350 852 l 2,17,18
 350 901 350 901 446 901 c 0,19,20
 475 901 475 901 475 887 c 2,21,-1
 475 578 l 1,22,-1
 784 578 l 2,23,24
 803 578 803 578 803 561 c 0,0,1
803 55 m 0,25,26
 803 36 803 36 785 18 c 128,-1,27
 767 0 767 0 743 0 c 2,28,-1
 43 0 l 2,29,30
 25 0 25 0 25 27 c 0,31,32
 25 72 25 72 82 72 c 2,33,-1
 784 72 l 2,34,35
 803 72 803 72 803 55 c 0,25,26
EndSplineSet
EndChar

StartChar: lessequal
Encoding: 8804 8804 148
Width: 672
Flags: HW
LayerCount: 2
Fore
SplineSet
630 190 m 0,0,1
 619 174 619 174 583 195 c 2,2,-1
 65 496 l 2,3,4
 40 510 40 510 40 524 c 256,5,6
 40 538 40 538 65 553 c 2,7,-1
 577 850 l 2,8,9
 618 874 618 874 628 860 c 0,10,11
 635 850 635 850 635 844 c 0,12,13
 635 832 635 832 602 805 c 2,14,-1
 247 524 l 1,15,-1
 608 238 l 2,16,17
 643 209 643 209 630 190 c 0,0,1
647 55 m 0,18,19
 647 36 647 36 629 18 c 128,-1,20
 611 0 611 0 587 0 c 2,21,-1
 45 0 l 2,22,23
 26 0 26 0 26 27 c 0,24,25
 26 72 26 72 84 72 c 2,26,-1
 628 72 l 2,27,28
 647 72 647 72 647 55 c 0,18,19
EndSplineSet
EndChar

StartChar: greaterequal
Encoding: 8805 8805 149
Width: 671
Flags: HW
LayerCount: 2
Fore
SplineSet
605 496 m 2,0,-1
 93 199 l 2,1,2
 52 175 52 175 42 188 c 0,3,4
 34 198 34 198 34 205 c 0,5,6
 34 217 34 217 68 244 c 2,7,-1
 422 524 l 1,8,-1
 62 811 l 2,9,10
 26 839 26 839 39 858 c 0,11,12
 51 875 51 875 87 854 c 2,13,-1
 605 553 l 2,14,15
 630 538 630 538 630 524 c 256,16,17
 630 510 630 510 605 496 c 2,0,-1
646 55 m 0,18,19
 646 36 646 36 628 18 c 128,-1,20
 610 0 610 0 586 0 c 2,21,-1
 44 0 l 2,22,23
 25 0 25 0 25 27 c 0,24,25
 25 72 25 72 83 72 c 2,26,-1
 627 72 l 2,27,28
 646 72 646 72 646 55 c 0,18,19
EndSplineSet
EndChar

StartChar: yen
Encoding: 165 165 150
Width: 971
Flags: HW
LayerCount: 2
Fore
SplineSet
945 772 m 0,0,1
 945 738 945 738 896 725 c 0,2,3
 858 715 858 715 806 651 c 0,4,5
 680 495 680 495 593 362 c 1,6,-1
 853 362 l 2,7,8
 866 362 866 362 866 352 c 0,9,10
 866 331 866 331 849 306 c 128,-1,11
 832 281 832 281 810 281 c 2,12,-1
 575 281 l 1,13,-1
 575 215 l 2,14,15
 575 152 575 152 590 125 c 0,16,17
 609 91 609 91 667 78 c 0,18,19
 703 70 703 70 709 66 c 0,20,21
 726 56 726 56 722 31 c 0,22,23
 718 3 718 3 699 -1 c 0,24,25
 692 -3 692 -3 653 0 c 0,26,27
 526 9 526 9 378 -4 c 0,28,29
 343 -7 343 -7 335 -4 c 0,30,31
 323 2 323 2 323 31 c 0,32,33
 323 55 323 55 374 72 c 1,34,35
 438 92 438 92 438 182 c 2,36,-1
 438 281 l 1,37,-1
 151 281 l 2,38,39
 137 281 137 281 137 303 c 0,40,41
 137 362 137 362 190 362 c 2,42,-1
 403 362 l 1,43,44
 331 478 331 478 161 670 c 0,45,46
 116 721 116 721 67 731 c 0,47,48
 26 740 26 740 26 764 c 0,49,50
 26 805 26 805 69 801 c 0,51,52
 176 790 176 790 333 811 c 1,53,54
 370 820 370 820 379 815 c 0,55,56
 388 811 388 811 388 784 c 0,57,58
 388 760 388 760 345 743 c 0,59,60
 307 729 307 729 307 712 c 0,61,62
 307 705 307 705 315 694 c 0,63,64
 408 576 408 576 509 430 c 0,65,66
 523 410 523 410 534 426 c 0,67,68
 588 503 588 503 704 670 c 0,69,70
 716 688 716 688 716 699 c 0,71,72
 716 721 716 721 666.5 734.5 c 128,-1,73
 617 748 617 748 622 778 c 0,74,75
 627 812 627 812 681 805 c 0,76,77
 787 791 787 791 900 803 c 0,78,79
 945 807 945 807 945 772 c 0,0,1
EndSplineSet
EndChar

StartChar: mu
Encoding: 181 181 151
AltUni2: 0003bc.ffffffff.0
Width: 981
Flags: HW
LayerCount: 2
Fore
SplineSet
968 217 m 0,0,1
 923 123 923 123 864 60 c 0,2,3
 801 -6 801 -6 751 -6 c 0,4,5
 644 -6 644 -6 644 102 c 0,6,7
 644 152 644 152 659 209 c 0,8,9
 661 219 661 219 653 220 c 0,10,11
 644 221 644 221 638 211 c 0,12,13
 585 123 585 123 513 60 c 1,14,15
 424 -16 424 -16 341 -16 c 256,16,17
 258 -16 258 -16 212 39 c 1,18,19
 190 -55 190 -55 190 -113 c 0,20,21
 190 -183 190 -183 231 -238 c 0,22,23
 255 -270 255 -270 255 -287 c 0,24,25
 255 -305 255 -305 213 -322.5 c 128,-1,26
 171 -340 171 -340 128 -340 c 0,27,28
 96 -340 96 -340 69 -310.5 c 128,-1,29
 42 -281 42 -281 42 -256 c 0,30,31
 42 -201 42 -201 81 -74 c 0,32,33
 222 387 222 387 222 627 c 0,34,35
 222 684 222 684 216 743 c 0,36,37
 210 811 210 811 306 811 c 0,38,39
 376 811 376 811 376 753 c 0,40,41
 376 746 376 746 374 737 c 0,42,43
 365 691 365 691 303 462 c 0,44,45
 249 262 249 262 249 233 c 0,46,47
 249 131 249 131 331 131 c 0,48,49
 432 131 432 131 539 275 c 0,50,51
 669 449 669 449 712 737 c 0,52,53
 719 784 719 784 734 801.5 c 128,-1,54
 749 819 749 819 790 819 c 0,55,56
 866 819 866 819 866 775 c 0,57,58
 866 756 866 756 853 725 c 0,59,60
 730 418 730 418 730 256 c 0,61,62
 730 160 730 160 800 160 c 0,63,64
 867 160 867 160 935 256 c 0,65,66
 939 261 939 261 946 261 c 0,67,68
 971 261 971 261 971 232 c 0,69,70
 971 224 971 224 968 217 c 0,0,1
EndSplineSet
EndChar

StartChar: partialdiff
Encoding: 8706 8706 152
Width: 801
Flags: HW
LayerCount: 2
Fore
SplineSet
776 586 m 0,0,1
 776 286 776 286 641 127 c 0,2,3
 523 -12 523 -12 334 -12 c 0,4,5
 193 -12 193 -12 112 73 c 0,6,7
 25 164 25 164 25 334 c 0,8,9
 25 553 25 553 164 690 c 0,10,11
 284 809 284 809 428 809 c 0,12,13
 570 809 570 809 662 686 c 0,14,15
 667 679 667 679 676 680 c 256,16,17
 685 681 685 681 684 692 c 0,18,19
 663 904 663 904 598 1020 c 0,20,21
 556 1095 556 1095 529 1115 c 0,22,23
 497 1139 497 1139 426 1139 c 0,24,25
 395 1139 395 1139 345 1133.5 c 128,-1,26
 295 1128 295 1128 283 1128 c 256,27,28
 271 1128 271 1128 258.5 1150.5 c 128,-1,29
 246 1173 246 1173 246 1192 c 0,30,31
 246 1213 246 1213 332 1252.5 c 128,-1,32
 418 1292 418 1292 471 1292 c 256,33,34
 524 1292 524 1292 551 1266 c 0,35,36
 675 1142 675 1142 728 971 c 0,37,38
 776 816 776 816 776 586 c 0,0,1
600 432 m 0,39,40
 600 563 600 563 549 639 c 128,-1,41
 498 715 498 715 418 715 c 0,42,43
 319 715 319 715 255 628 c 1,44,45
 187 533 187 533 187 369 c 0,46,47
 187 237 187 237 239.5 158.5 c 128,-1,48
 292 80 292 80 377 80 c 0,49,50
 474 80 474 80 535 172 c 0,51,52
 600 269 600 269 600 432 c 0,39,40
EndSplineSet
EndChar

StartChar: summation
Encoding: 8721 8721 153
Width: 1069
Flags: HW
LayerCount: 2
Fore
SplineSet
1043 45 m 0,0,1
 1021 -47 1021 -47 1006 -256 c 0,2,3
 1004 -276 1004 -276 944 -272 c 0,4,5
 789 -264 789 -264 527 -264 c 0,6,7
 260 -264 260 -264 68 -274 c 0,8,9
 25 -277 25 -277 25 -240 c 0,10,11
 25 -225 25 -225 67.5 -195 c 128,-1,12
 110 -165 110 -165 158 -96 c 2,13,-1
 502 395 l 2,14,15
 531 436 531 436 531 453 c 0,16,17
 531 467 531 467 514 494 c 2,18,-1
 156 1065 l 2,19,20
 115 1130 115 1130 62 1169 c 0,21,22
 25 1196 25 1196 31 1219 c 0,23,24
 35 1236 35 1236 46 1238 c 0,25,26
 57 1241 57 1241 101 1235 c 0,27,28
 177 1225 177 1225 490 1225 c 0,29,30
 738 1225 738 1225 932 1237 c 0,31,32
 997 1241 997 1241 997 1228 c 0,33,34
 997 1223 997 1223 996 1219 c 0,35,36
 974 1120 974 1120 977 993 c 0,37,38
 978 963 978 963 948 963 c 0,39,40
 920 963 920 963 910 989 c 0,41,42
 881 1060 881 1060 860 1084 c 0,43,44
 828 1122 828 1122 768 1133 c 0,45,46
 720 1141 720 1141 385 1141 c 0,47,48
 357 1141 357 1141 357 1122 c 0,49,50
 357 1110 357 1110 369 1092 c 2,51,-1
 697 573 l 2,52,53
 719 538 719 538 719 522 c 0,54,55
 719 509 719 509 658 422 c 2,56,-1
 328 -47 l 2,57,58
 303 -83 303 -83 303 -99 c 0,59,60
 303 -119 303 -119 340 -119 c 2,61,-1
 793 -119 l 2,62,63
 867 -119 867 -119 902 -82 c 0,64,65
 933 -49 933 -49 969 55 c 0,66,67
 982 93 982 93 1018 82 c 0,68,69
 1049 72 1049 72 1043 45 c 0,0,1
EndSplineSet
EndChar

StartChar: product
Encoding: 8719 8719 154
Width: 1376
Flags: HW
LayerCount: 2
Fore
SplineSet
1351 -240 m 0,0,1
 1351 -265 1351 -265 1344 -271 c 128,-1,2
 1337 -277 1337 -277 1307 -274 c 0,3,4
 1112 -258 1112 -258 912 -266 c 0,5,6
 873 -268 873 -268 863 -261.5 c 128,-1,7
 853 -255 853 -255 853 -231 c 0,8,9
 853 -200 853 -200 906 -193 c 0,10,11
 990 -181 990 -181 990 -102 c 2,12,-1
 990 1061 l 2,13,14
 990 1104 990 1104 980 1118.5 c 128,-1,15
 970 1133 970 1133 933 1133 c 2,16,-1
 433 1133 l 2,17,18
 389 1133 389 1133 378 1122 c 128,-1,19
 367 1111 367 1111 367 1065 c 2,20,-1
 367 -102 l 2,21,22
 367 -159 367 -159 492 -193 c 1,23,24
 548 -207 548 -207 548 -231 c 0,25,26
 548 -256 548 -256 538.5 -262 c 128,-1,27
 529 -268 529 -268 488 -266 c 0,28,29
 289 -258 289 -258 93 -274 c 0,30,31
 63 -277 63 -277 56.5 -271 c 128,-1,32
 50 -265 50 -265 50 -240 c 0,33,34
 50 -213 50 -213 93 -209 c 0,35,36
 191 -199 191 -199 191 -102 c 2,37,-1
 191 1053 l 2,38,39
 191 1146 191 1146 81 1169 c 0,40,41
 41 1178 41 1178 33 1182.5 c 128,-1,42
 25 1187 25 1187 25 1204 c 0,43,44
 25 1218 25 1218 29 1227 c 0,45,46
 36 1242 36 1242 87 1239 c 0,47,48
 384 1225 384 1225 435 1225 c 2,49,-1
 925 1225 l 2,50,51
 1012 1225 1012 1225 1136.5 1232 c 128,-1,52
 1261 1239 1261 1239 1279 1239 c 0,53,54
 1309 1239 1309 1239 1315.5 1233 c 128,-1,55
 1322 1227 1322 1227 1322 1202 c 0,56,57
 1322 1176 1322 1176 1279 1171 c 0,58,59
 1168 1159 1168 1159 1168 1067 c 2,60,-1
 1168 -102 l 2,61,62
 1168 -151 1168 -151 1204 -174 c 0,63,64
 1231 -192 1231 -192 1307 -209 c 0,65,66
 1351 -218 1351 -218 1351 -240 c 0,0,1
EndSplineSet
EndChar

StartChar: pi
Encoding: 960 960 155
Width: 1145
Flags: HW
LayerCount: 2
Fore
SplineSet
1119 834 m 1,0,1
 1105 763 1105 763 1107 707 c 0,2,3
 1108 664 1108 664 1071 664 c 0,4,5
 1058 664 1058 664 1040.5 671 c 128,-1,6
 1023 678 1023 678 874 678 c 1,7,8
 837 576 837 576 790 356 c 0,9,10
 757 205 757 205 757 129 c 0,11,12
 757 100 757 100 792 100 c 0,13,14
 817 100 817 100 896 190 c 0,15,16
 898 192 898 192 901 192 c 0,17,18
 909 192 909 192 920 179.5 c 128,-1,19
 931 167 931 167 931 157 c 0,20,21
 931 153 931 153 929 150 c 0,22,23
 806 -10 806 -10 702 -10 c 0,24,25
 599 -10 599 -10 599 104 c 0,26,27
 599 170 599 170 642 360 c 0,28,29
 666 467 666 467 724 678 c 1,30,31
 651 677 651 677 505 674 c 1,32,33
 425 374 425 374 269 61 c 0,34,35
 243 9 243 9 202 2 c 0,36,37
 112 -12 112 -12 48 -12 c 0,38,39
 24 -12 24 -12 24 4 c 0,40,41
 24 32 24 32 93 76 c 0,42,43
 191 137 191 137 255 252 c 1,44,45
 326 382 326 382 409 672 c 1,46,47
 218 666 218 666 176 666 c 128,-1,48
 134 666 134 666 134 623 c 256,49,50
 134 580 134 580 169 500 c 0,51,52
 172 494 172 494 158 484 c 128,-1,53
 144 474 144 474 134 474 c 0,54,55
 128 474 128 474 126 477 c 0,56,57
 46 598 46 598 46 694 c 0,58,59
 46 807 46 807 153 807 c 0,60,61
 164 807 164 807 264.5 803 c 128,-1,62
 365 799 365 799 439 799 c 0,63,64
 694 799 694 799 955 811 c 0,65,66
 1016 814 1016 814 1041 850 c 1,67,68
 1059 874 1059 874 1091 874 c 0,69,70
 1128 874 1128 874 1119 834 c 1,0,1
EndSplineSet
EndChar

StartChar: integral
Encoding: 8747 8747 156
Width: 742
Flags: HW
LayerCount: 2
Fore
SplineSet
717 1229 m 0,0,1
 717 1191 717 1191 698 1147.5 c 128,-1,2
 679 1104 679 1104 661 1104 c 0,3,4
 645 1104 645 1104 571 1137 c 0,5,6
 503 1167 503 1167 459 1167 c 0,7,8
 399 1167 399 1167 381 1116 c 0,9,10
 371 1087 371 1087 371 1012 c 0,11,12
 371 883 371 883 405 502 c 0,13,14
 442 98 442 98 442 6 c 0,15,16
 442 -186 442 -186 352 -283 c 0,17,18
 275 -365 275 -365 154 -365 c 0,19,20
 25 -365 25 -365 25 -326 c 0,21,22
 25 -285 25 -285 40 -242 c 128,-1,23
 55 -199 55 -199 68 -199 c 0,24,25
 86 -199 86 -199 141 -231.5 c 128,-1,26
 196 -264 196 -264 229 -264 c 0,27,28
 275 -264 275 -264 286 -208 c 0,29,30
 289 -193 289 -193 289 -115 c 0,31,32
 289 43 289 43 250 457 c 0,33,34
 219 783 219 783 219 901 c 0,35,36
 219 1077 219 1077 313 1176 c 0,37,38
 402 1270 402 1270 551 1270 c 0,39,40
 717 1270 717 1270 717 1229 c 0,0,1
EndSplineSet
EndChar

StartChar: ordfeminine
Encoding: 170 170 157
Width: 671
Flags: HW
LayerCount: 2
Fore
SplineSet
645.571 786 m 0,0,1
 645.571 770 645.571 770 584.071 735 c 128,-1,2
 522.571 700 522.571 700 487.571 700 c 0,3,4
 456.571 700 456.571 700 432.071 731 c 128,-1,5
 407.571 762 407.571 762 397.571 762 c 0,6,7
 390.571 762 390.571 762 322.071 729 c 128,-1,8
 253.571 696 253.571 696 184.571 696 c 0,9,10
 117.571 696 117.571 696 74.5713 734 c 0,11,12
 26.5713 775 26.5713 775 26.5713 850 c 0,13,14
 26.5713 984 26.5713 984 342.571 1044 c 0,15,16
 397.571 1055 397.571 1055 397.571 1087 c 2,17,-1
 397.571 1139 l 2,18,19
 397.571 1270 397.571 1270 282.571 1270 c 0,20,21
 243.571 1270 243.571 1270 217.571 1208 c 1,22,23
 200.571 1180 200.571 1180 188.571 1168 c 0,24,25
 165.571 1146 165.571 1146 129.571 1141 c 1,26,27
 61.5713 1137 61.5713 1137 61.5713 1198 c 0,28,29
 61.5713 1237 61.5713 1237 160.571 1287 c 0,30,31
 263.571 1339 263.571 1339 358.571 1339 c 0,32,33
 522.571 1339 522.571 1339 520.571 1186 c 2,34,-1
 516.571 862 l 2,35,36
 515.571 809 515.571 809 559.571 809 c 0,37,38
 568.571 809 568.571 809 592.571 814 c 128,-1,39
 616.571 819 616.571 819 620.571 819 c 0,40,41
 645.571 819 645.571 819 645.571 786 c 0,0,1
610.571 524 m 1,42,43
 600.571 460 600.571 460 549.571 461 c 0,44,45
 226.571 466 226.571 466 100.571 453 c 0,46,47
 62.5713 449 62.5713 449 46.5713 451 c 0,48,49
 22.5713 454 22.5713 454 26.5713 479 c 1,50,51
 46.5713 554 46.5713 554 90.5713 551 c 0,52,53
 215.571 543 215.571 543 561.571 553 c 0,54,55
 597.571 554 597.571 554 607.071 548 c 128,-1,56
 616.571 542 616.571 542 610.571 524 c 1,42,43
397.571 838 m 2,57,-1
 397.571 965 l 2,58,59
 397.571 1001 397.571 1001 358.571 993 c 0,60,61
 248.571 972 248.571 972 204.571 942 c 0,62,63
 166.571 915 166.571 915 166.571 868 c 0,64,65
 166.571 780 166.571 780 266.571 780 c 0,66,67
 305.571 780 305.571 780 348.571 796 c 0,68,69
 397.571 814 397.571 814 397.571 838 c 2,57,-1
EndSplineSet
EndChar

StartChar: ordmasculine
Encoding: 186 186 158
Width: 735
Flags: HW
LayerCount: 2
Fore
SplineSet
710 1034 m 0,0,1
 710 895 710 895 607.5 797.5 c 128,-1,2
 505 700 505 700 351 700 c 0,3,4
 199 700 199 700 111 787 c 0,5,6
 25 871 25 871 25 1008 c 0,7,8
 25 1149 25 1149 133 1246 c 0,9,10
 238 1339 238 1339 384 1339 c 0,11,12
 539 1339 539 1339 626 1255 c 0,13,14
 710 1174 710 1174 710 1034 c 0,0,1
683 524 m 1,15,16
 673 460 673 460 621 461 c 0,17,18
 257 467 257 467 124 453 c 0,19,20
 86 449 86 449 70 451 c 0,21,22
 46 454 46 454 50 479 c 1,23,24
 70 554 70 554 114 551 c 0,25,26
 254 542 254 542 634 553 c 0,27,28
 670 554 670 554 679.5 548 c 128,-1,29
 689 542 689 542 683 524 c 1,15,16
568 987 m 0,30,31
 568 1113 568 1113 509 1189.5 c 128,-1,32
 450 1266 450 1266 359 1266 c 0,33,34
 274 1266 274 1266 220.5 1206 c 128,-1,35
 167 1146 167 1146 167 1061 c 0,36,37
 167 922 167 922 229 846 c 0,38,39
 286 776 286 776 380 776 c 0,40,41
 467 776 467 776 519 836 c 0,42,43
 568 893 568 893 568 987 c 0,30,31
EndSplineSet
EndChar

StartChar: Omega
Encoding: 937 937 159
AltUni2: 002126.ffffffff.0
Width: 1361
Flags: HW
LayerCount: 2
Fore
SplineSet
1296.95 270 m 0,0,1
 1270.95 161 1270.95 161 1259.95 10 c 0,2,3
 1258.95 -9 1258.95 -9 1198.95 -6 c 0,4,5
 1042.95 2 1042.95 2 968.945 2 c 0,6,7
 902.945 2 902.945 2 806.945 -8 c 0,8,9
 753.945 -14 753.945 -14 745.945 27 c 0,10,11
 733.945 90 733.945 90 772.945 123 c 0,12,13
 915.945 242 915.945 242 981.945 369 c 0,14,15
 1052.95 507 1052.95 507 1052.95 694 c 0,16,17
 1052.95 905 1052.95 905 948.945 1033 c 0,18,19
 833.945 1174 833.945 1174 622.945 1174 c 0,20,21
 444.945 1174 444.945 1174 333.945 1031 c 1,22,23
 229.945 899 229.945 899 229.945 713 c 0,24,25
 229.945 507 229.945 507 300.945 367 c 0,26,27
 363.945 244 363.945 244 509.945 123 c 0,28,29
 549.945 90 549.945 90 536.945 27 c 0,30,31
 528.945 -14 528.945 -14 475.945 -8 c 0,32,33
 379.945 2 379.945 2 313.945 2 c 0,34,35
 239.945 2 239.945 2 84.9453 -6 c 0,36,37
 23.9453 -9 23.9453 -9 22.9453 10 c 0,38,39
 11.9453 161 11.9453 161 -14.0547 270 c 0,40,41
 -20.0547 297 -20.0547 297 10.9453 307 c 0,42,43
 46.9453 318 46.9453 318 59.9453 281 c 0,44,45
 91.9453 188 91.9453 188 118.945 161 c 0,46,47
 152.945 127 152.945 127 235.945 127 c 2,48,-1
 327.945 127 l 2,49,50
 361.945 127 361.945 127 361.945 143 c 256,51,52
 361.945 159 361.945 159 327.945 188 c 0,53,54
 26.9453 451 26.9453 451 26.9453 702 c 0,55,56
 26.9453 914 26.9453 914 203.945 1085 c 0,57,58
 393.945 1270 393.945 1270 669.945 1270 c 0,59,60
 933.945 1270 933.945 1270 1100.95 1104 c 0,61,62
 1255.95 949 1255.95 949 1255.95 729 c 0,63,64
 1255.95 449 1255.95 449 954.945 188 c 0,65,66
 919.945 158 919.945 158 919.945 143 c 0,67,68
 919.945 127 919.945 127 954.945 127 c 2,69,-1
 1046.95 127 l 2,70,71
 1129.95 127 1129.95 127 1164.95 161 c 1,72,73
 1190.95 188 1190.95 188 1222.95 281 c 0,74,75
 1235.95 318 1235.95 318 1271.95 307 c 0,76,77
 1302.95 297 1302.95 297 1296.95 270 c 0,0,1
EndSplineSet
EndChar

StartChar: ae
Encoding: 230 230 160
Width: 1269
Flags: HW
LayerCount: 2
Fore
SplineSet
1244 168 m 0,0,1
 1244 121 1244 121 1138 60 c 0,2,3
 1017 -10 1017 -10 880 -10 c 0,4,5
 670 -10 670 -10 581 150 c 1,6,7
 421 -10 421 -10 234 -10 c 0,8,9
 140 -10 140 -10 85 36 c 0,10,11
 25 86 25 86 25 178 c 0,12,13
 25 359 25 359 388 420 c 1,14,-1
 486 436 l 2,15,16
 527 443 527 443 527 485 c 2,17,-1
 527 549 l 2,18,19
 527 633 527 633 489 668 c 1,20,21
 449 707 449 707 347 707 c 0,22,23
 308 707 308 707 266 630 c 128,-1,24
 224 553 224 553 155 547 c 0,25,26
 73 539 73 539 73 616 c 0,27,28
 73 664 73 664 195 728 c 0,29,30
 323 795 323 795 441 795 c 0,31,32
 612 795 612 795 646 688 c 1,33,34
 739 799 739 799 904 799 c 0,35,36
 1008 799 1008 799 1085 742 c 128,-1,37
 1162 685 1162 685 1185 598 c 0,38,39
 1191 573 1191 573 1211 569 c 1,40,41
 1238 562 1238 562 1238 532 c 0,42,43
 1238 484 1238 484 1138 467 c 2,44,-1
 675 387 l 1,45,46
 684 253 684 253 755 176.5 c 128,-1,47
 826 100 826 100 943 100 c 0,48,49
 1101 100 1101 100 1185 184 c 1,50,51
 1201 197 1201 197 1228 197 c 0,52,53
 1244 197 1244 197 1244 168 c 0,0,1
1015 582 m 256,54,55
 1015 637 1015 637 971 672 c 128,-1,56
 927 707 927 707 859 707 c 0,57,58
 686 707 686 707 677 467 c 1,59,-1
 951 516 l 2,60,61
 1015 527 1015 527 1015 582 c 256,54,55
548 225 m 1,62,63
 533 274 533 274 527 313 c 0,64,65
 521 356 521 356 501 356 c 0,66,67
 477 356 477 356 408 344 c 0,68,69
 191 305 191 305 191 205 c 0,70,71
 191 94 191 94 302 94 c 0,72,73
 429 94 429 94 548 225 c 1,62,63
EndSplineSet
EndChar

StartChar: questiondown
Encoding: 191 191 162
Width: 679
Flags: HW
LayerCount: 2
Fore
SplineSet
597 1221 m 0,0,1
 597 1166 597 1166 561 1129 c 128,-1,2
 525 1092 525 1092 476 1092 c 0,3,4
 376 1092 376 1092 376 1202 c 0,5,6
 376 1259 376 1259 410 1298 c 128,-1,7
 444 1337 444 1337 492 1337 c 0,8,9
 597 1337 597 1337 597 1221 c 0,0,1
654 72 m 0,10,11
 654 31 654 31 601 2 c 0,12,13
 545 -29 545 -29 454 -29 c 0,14,15
 273 -29 273 -29 147 97 c 0,16,17
 25 218 25 218 25 383 c 0,18,19
 25 532 25 532 116 603 c 1,20,21
 183 654 183 654 382 709 c 0,22,23
 419 719 419 719 427 760 c 0,24,25
 433 793 433 793 449 868 c 1,26,27
 458 901 458 901 497 915 c 0,28,29
 509 920 509 920 517 920 c 0,30,31
 535 919 535 919 535 891 c 0,32,33
 535 707 535 707 546 623 c 0,34,35
 554 555 554 555 497 555 c 0,36,37
 275 555 275 555 197 511 c 0,38,39
 132 475 132 475 132 383 c 0,40,41
 132 257 132 257 206 177 c 0,42,43
 277 100 277 100 384 100 c 0,44,45
 441 100 441 100 494 174 c 0,46,47
 524 215 524 215 566 215 c 0,48,49
 604 215 604 215 629 175.5 c 128,-1,50
 654 136 654 136 654 72 c 0,10,11
EndSplineSet
EndChar

StartChar: exclamdown
Encoding: 161 161 163
Width: 271
Flags: HW
LayerCount: 2
Fore
SplineSet
246 1221 m 0,0,1
 246 1166 246 1166 209.5 1129 c 128,-1,2
 173 1092 173 1092 123 1092 c 0,3,4
 25 1092 25 1092 25 1202 c 0,5,6
 25 1259 25 1259 59.5 1298 c 128,-1,7
 94 1337 94 1337 141 1337 c 0,8,9
 246 1337 246 1337 246 1221 c 0,0,1
227 137 m 0,10,11
 234 102 234 102 234 82 c 0,12,13
 234 15 234 15 119 -12 c 0,14,15
 92 -19 92 -19 75 -19 c 0,16,17
 27 -19 27 -19 27 46 c 0,18,19
 27 75 27 75 35 123 c 0,20,21
 82 423 82 423 82 776 c 0,22,23
 82 839 82 839 87 858 c 0,24,25
 98 894 98 894 139 915 c 0,26,27
 152 922 152 922 160 922 c 0,28,29
 174 922 174 922 174 891 c 0,30,31
 174 445 174 445 227 137 c 0,10,11
EndSplineSet
EndChar

StartChar: logicalnot
Encoding: 172 172 164
Width: 861
Flags: HW
LayerCount: 2
Fore
SplineSet
835 154 m 2,0,1
 835 104 835 104 755 104 c 0,2,3
 710 104 710 104 710 125 c 2,4,-1
 710 424 l 1,5,-1
 45 424 l 2,6,7
 26 424 26 424 26 451 c 0,8,9
 26 496 26 496 84 496 c 2,10,-1
 801 496 l 2,11,12
 835 496 835 496 835 463 c 2,13,-1
 835 154 l 2,0,1
EndSplineSet
EndChar

StartChar: radical
Encoding: 8730 8730 165
Width: 1219
Flags: HW
LayerCount: 2
Fore
SplineSet
1185 1307 m 0,0,1
 1194 1305 1194 1305 1194 1286 c 0,2,3
 1194 1247 1194 1247 1168 1243 c 0,4,5
 1068 1229 1068 1229 1017 1212 c 0,6,7
 984 1202 984 1202 968 1137 c 0,8,9
 847 643 847 643 595 0 c 0,10,11
 584 -29 584 -29 565 -29 c 0,12,13
 550 -29 550 -29 536 -8 c 0,14,15
 389 210 389 210 241 487 c 0,16,17
 220 526 220 526 183 518 c 0,18,19
 124 505 124 505 56 479 c 0,20,21
 46 475 46 475 35.5 491 c 128,-1,22
 25 507 25 507 25 523 c 0,23,24
 25 534 25 534 32 537 c 0,25,26
 161 583 161 583 276 657 c 0,27,28
 302 674 302 674 318 674 c 0,29,30
 336 674 336 674 345 653 c 0,31,32
 460 384 460 384 556 254 c 0,33,34
 575 228 575 228 585 256 c 0,35,36
 804 894 804 894 859 1274 c 0,37,38
 865 1314 865 1314 873 1325 c 0,39,40
 885 1341 885 1341 921 1341 c 1,41,42
 918 1341 918 1341 1185 1307 c 0,0,1
EndSplineSet
EndChar

StartChar: florin
Encoding: 402 402 166
Width: 951
Flags: HW
LayerCount: 2
Fore
SplineSet
926 778 m 0,0,1
 926 740 926 740 907.5 696.5 c 128,-1,2
 889 653 889 653 871 653 c 0,3,4
 848 653 848 653 781 686 c 0,5,6
 718 717 718 717 668 717 c 0,7,8
 600 717 600 717 572 656 c 0,9,10
 548 605 548 605 535 461 c 2,11,-1
 531 414 l 1,12,-1
 752 416 l 2,13,14
 775 416 775 416 778 401 c 0,15,16
 779 395 779 395 775 365 c 1,17,18
 762 322 762 322 672 326 c 2,19,-1
 523 332 l 1,20,-1
 496 61 l 2,21,22
 474 -161 474 -161 371 -271 c 0,23,24
 284 -365 284 -365 156 -365 c 0,25,26
 25 -365 25 -365 25 -326 c 0,27,28
 25 -285 25 -285 40.5 -242 c 128,-1,29
 56 -199 56 -199 68 -199 c 0,30,31
 87 -199 87 -199 142 -231.5 c 128,-1,32
 197 -264 197 -264 232 -264 c 0,33,34
 281 -264 281 -264 301 -209 c 0,35,36
 323 -149 323 -149 345 55 c 2,37,-1
 367 268 l 2,38,39
 375 338 375 338 318 342 c 2,40,-1
 234 348 l 2,41,42
 208 350 208 350 218 375 c 1,43,44
 228 412 228 412 337 412 c 2,45,-1
 380 412 l 1,46,-1
 386 455 l 2,47,48
 407 600 407 600 505 705 c 1,49,50
 613 819 613 819 761 819 c 0,51,52
 926 819 926 819 926 778 c 0,0,1
EndSplineSet
EndChar

StartChar: approxequal
Encoding: 8776 8776 167
Width: 823
Flags: HW
LayerCount: 2
Fore
SplineSet
792.9 664 m 1,0,1
 752.9 615 752.9 615 685.9 539 c 1,2,3
 650.9 502 650.9 502 636.9 493 c 0,4,5
 613.9 479 613.9 479 570.9 479 c 0,6,7
 540.9 479 540.9 479 407.4 516 c 128,-1,8
 273.9 553 273.9 553 259.9 553 c 0,9,10
 233.9 553 233.9 553 202.9 535 c 1,11,12
 156.9 496 156.9 496 87.9004 440 c 0,13,14
 71.9004 428 71.9004 428 42.9004 451 c 0,15,16
 16.9004 471 16.9004 471 30.9004 481 c 1,17,18
 100.9 570 100.9 570 135.9 607 c 128,-1,19
 170.9 644 170.9 644 183.9 652 c 0,20,21
 207.9 668 207.9 668 249.9 668 c 0,22,23
 280.9 668 280.9 668 414.9 630 c 128,-1,24
 548.9 592 548.9 592 560.9 592 c 0,25,26
 590.9 592 590.9 592 618.9 612 c 0,27,28
 651.9 637 651.9 637 734.9 707 c 1,29,30
 746.9 714 746.9 714 777.9 694 c 0,31,32
 805.9 677 805.9 677 792.9 664 c 1,0,1
792.9 309 m 1,33,34
 752.9 261 752.9 261 685.9 184 c 1,35,36
 650.9 148 650.9 148 636.9 139 c 0,37,38
 613.9 125 613.9 125 570.9 125 c 0,39,40
 540.9 125 540.9 125 407.4 162 c 128,-1,41
 273.9 199 273.9 199 259.9 199 c 0,42,43
 233.9 199 233.9 199 202.9 180 c 1,44,45
 156.9 142 156.9 142 87.9004 86 c 0,46,47
 71.9004 74 71.9004 74 44.4004 95 c 128,-1,48
 16.9004 116 16.9004 116 30.9004 127 c 1,49,50
 100.9 216 100.9 216 135.9 253 c 128,-1,51
 170.9 290 170.9 290 183.9 298 c 0,52,53
 207.9 313 207.9 313 249.9 313 c 0,54,55
 280.9 313 280.9 313 414.9 275.5 c 128,-1,56
 548.9 238 548.9 238 560.9 238 c 0,57,58
 590.9 238 590.9 238 618.9 258 c 0,59,60
 651.9 283 651.9 283 734.9 352 c 1,61,62
 746.9 360 746.9 360 777.9 340 c 0,63,64
 805.9 322 805.9 322 792.9 309 c 1,33,34
EndSplineSet
EndChar

StartChar: Delta
Encoding: 916 916 168
AltUni2: 002206.ffffffff.0
Width: 1309
Flags: HW
LayerCount: 2
Fore
SplineSet
1260.06 12 m 1,0,1
 1249.06 -13 1249.06 -13 1217.06 -8 c 0,2,3
 1107.06 8 1107.06 8 588.064 8 c 0,4,5
 167.064 8 167.064 8 46.0645 -10 c 0,6,7
 10.0645 -16 10.0645 -16 1.06445 18 c 0,8,9
 -3.93555 38 -3.93555 38 38.0645 86 c 0,10,11
 52.0645 103 52.0645 103 109.064 207 c 1,12,13
 340.064 690 340.064 690 360.064 733 c 0,14,15
 499.064 1038 499.064 1038 556.064 1227 c 0,16,17
 565.064 1259 565.064 1259 636.064 1280 c 1,18,19
 652.064 1287 652.064 1287 679.064 1227 c 0,20,21
 867.064 796 867.064 796 1162.06 174 c 0,22,23
 1193.06 108 1193.06 108 1236.06 66 c 1,24,25
 1267.06 34 1267.06 34 1260.06 12 c 1,0,1
990.064 121 m 0,26,27
 828.064 467 828.064 467 599.064 954 c 0,28,29
 591.064 971 591.064 971 581.064 971 c 256,30,31
 571.064 971 571.064 971 564.064 954 c 0,32,33
 421.064 640 421.064 640 197.064 137 c 0,34,35
 181.064 99 181.064 99 236.064 96 c 0,36,37
 423.064 86 423.064 86 613.064 86 c 0,38,39
 877.064 86 877.064 86 951.064 84 c 0,40,41
 995.064 83 995.064 83 995.064 103 c 0,42,43
 995.064 111 995.064 111 990.064 121 c 0,26,27
EndSplineSet
EndChar

StartChar: guillemotleft
Encoding: 171 171 169
Width: 956
Flags: HW
LayerCount: 2
Fore
SplineSet
925 -16 m 0,0,1
 917 -32 917 -32 894 -12 c 2,2,-1
 476 348 l 2,3,4
 454 367 454 367 454 381 c 0,5,6
 454 394 454 394 476 414 c 2,7,-1
 892 772 l 2,8,9
 918 794 918 794 923 776 c 0,10,11
 933 738 933 738 906 705 c 2,12,-1
 648 381 l 1,13,-1
 909 53 l 2,14,15
 940 14 940 14 925 -16 c 0,0,1
497 -16 m 0,16,17
 489 -32 489 -32 466 -12 c 2,18,-1
 48 348 l 2,19,20
 26 367 26 367 26 381 c 0,21,22
 26 394 26 394 48 414 c 2,23,-1
 464 772 l 2,24,25
 490 794 490 794 495 776 c 0,26,27
 505 738 505 738 478 705 c 2,28,-1
 220 381 l 1,29,-1
 480 53 l 2,30,31
 512 14 512 14 497 -16 c 0,16,17
EndSplineSet
EndChar

StartChar: guillemotright
Encoding: 187 187 170
Width: 955
Flags: HW
LayerCount: 2
Fore
SplineSet
906.892 348 m 2,0,-1
 490.892 -10 l 2,1,2
 465.892 -32 465.892 -32 460.892 -14 c 0,3,4
 449.892 24 449.892 24 476.892 57 c 2,5,-1
 734.892 381 l 1,6,-1
 474.892 709 l 2,7,8
 443.892 748 443.892 748 458.892 778 c 0,9,10
 465.892 794 465.892 794 488.892 774 c 2,11,-1
 906.892 414 l 2,12,13
 928.892 394 928.892 394 928.892 381 c 0,14,15
 928.892 367 928.892 367 906.892 348 c 2,0,-1
478.892 348 m 2,16,-1
 62.8916 -10 l 2,17,18
 37.8916 -32 37.8916 -32 32.8916 -14 c 0,19,20
 21.8916 24 21.8916 24 48.8916 57 c 2,21,-1
 306.892 381 l 1,22,-1
 46.8916 709 l 2,23,24
 15.8916 748 15.8916 748 30.8916 778 c 0,25,26
 37.8916 794 37.8916 794 60.8916 774 c 2,27,-1
 478.892 414 l 2,28,29
 500.892 394 500.892 394 500.892 381 c 0,30,31
 500.892 367 500.892 367 478.892 348 c 2,16,-1
EndSplineSet
EndChar

StartChar: ellipsis
Encoding: 8230 8230 171
Width: 1336
Flags: HW
LayerCount: 2
Fore
SplineSet
1309 111 m 0,0,1
 1309 52 1309 52 1269.5 11.5 c 128,-1,2
 1230 -29 1230 -29 1178 -29 c 0,3,4
 1067 -29 1067 -29 1067 94 c 0,5,6
 1067 154 1067 154 1105 198 c 128,-1,7
 1143 242 1143 242 1194 242 c 0,8,9
 1309 242 1309 242 1309 111 c 0,0,1
791 119 m 0,10,11
 791 56 791 56 758 13.5 c 128,-1,12
 725 -29 725 -29 672 -29 c 0,13,14
 547 -29 547 -29 547 102 c 0,15,16
 547 162 547 162 581.5 202 c 128,-1,17
 616 242 616 242 668 242 c 0,18,19
 791 242 791 242 791 119 c 0,10,11
271 119 m 0,20,21
 271 57 271 57 233 14 c 128,-1,22
 195 -29 195 -29 142 -29 c 0,23,24
 27 -29 27 -29 27 102 c 0,25,26
 27 161 27 161 67 201.5 c 128,-1,27
 107 242 107 242 160 242 c 0,28,29
 271 242 271 242 271 119 c 0,20,21
EndSplineSet
EndChar

StartChar: OE
Encoding: 338 338 176
Width: 1749
Flags: HW
LayerCount: 2
Fore
SplineSet
1723 250 m 0,0,1
 1693 109 1693 109 1688 10 c 0,2,3
 1687 -10 1687 -10 1626 -6 c 0,4,5
 1448 4 1448 4 1057 4 c 0,6,7
 1028 4 1028 4 921 -3 c 128,-1,8
 814 -10 814 -10 727 -10 c 0,9,10
 419 -10 419 -10 225 166 c 1,11,12
 25 349 25 349 25 653 c 0,13,14
 25 942 25 942 238 1135 c 0,15,16
 443 1321 443 1321 727 1321 c 0,17,18
 781 1321 781 1321 904 1313 c 128,-1,19
 1027 1305 1027 1305 1108 1305 c 0,20,21
 1399 1305 1399 1305 1614 1319 c 0,22,23
 1681 1323 1681 1323 1681 1308 c 0,24,25
 1681 1304 1681 1304 1680 1300 c 0,26,27
 1657 1205 1657 1205 1659 1075 c 0,28,29
 1660 1044 1660 1044 1631 1044 c 0,30,31
 1605 1044 1605 1044 1594 1071 c 0,32,33
 1565 1142 1565 1142 1544 1166 c 0,34,35
 1512 1204 1512 1204 1450 1214 c 1,36,37
 1402 1223 1402 1223 1153 1223 c 0,38,39
 1120 1223 1120 1223 1111 1212 c 0,40,41
 1106 1206 1106 1206 1106 1182 c 2,42,-1
 1106 764 l 2,43,44
 1106 739 1106 739 1135 739 c 0,45,46
 1218 741 1218 741 1381 752 c 0,47,48
 1411 755 1411 755 1425 781 c 0,49,50
 1437 802 1437 802 1448 864 c 1,51,52
 1458 898 1458 898 1480 898 c 0,53,54
 1487 898 1487 898 1495 895 c 1,55,56
 1529 889 1529 889 1524 864 c 0,57,58
 1496 728 1496 728 1506 510 c 0,59,60
 1507 486 1507 486 1473 481 c 0,61,62
 1443 477 1443 477 1438 514 c 0,63,64
 1428 591 1428 591 1412.5 615.5 c 128,-1,65
 1397 640 1397 640 1354 645 c 0,66,67
 1272 655 1272 655 1125 655 c 0,68,69
 1106 655 1106 655 1106 641 c 2,70,-1
 1106 205 l 2,71,72
 1106 113 1106 113 1183 92 c 0,73,74
 1206 86 1206 86 1338 86 c 0,75,76
 1586 86 1586 86 1651 260 c 0,77,78
 1666 300 1666 300 1698 287 c 1,79,80
 1729 280 1729 280 1723 250 c 0,0,1
934 186 m 2,81,-1
 934 1085 l 2,82,83
 934 1165 934 1165 883 1195 c 128,-1,84
 832 1225 832 1225 682 1225 c 0,85,86
 494 1225 494 1225 364 1083 c 0,87,88
 228 933 228 933 228 694 c 0,89,90
 228 398 228 398 372 239 c 1,91,92
 514 84 514 84 770 84 c 0,93,94
 934 84 934 84 934 186 c 2,81,-1
EndSplineSet
EndChar

StartChar: oe
Encoding: 339 339 177
Width: 1406
Flags: HW
LayerCount: 2
Fore
SplineSet
1381 168 m 0,0,1
 1381 124 1381 124 1271 61 c 0,2,3
 1147 -10 1147 -10 1010 -10 c 0,4,5
 821 -10 821 -10 719 162 c 1,6,7
 621 -12 621 -12 406 -12 c 0,8,9
 225 -12 225 -12 123 94 c 0,10,11
 25 197 25 197 25 369 c 0,12,13
 25 544 25 544 146.5 664 c 128,-1,14
 268 784 268 784 441 784 c 0,15,16
 664 784 664 784 756 625 c 1,17,18
 854 786 854 786 1045 786 c 0,19,20
 1143 786 1143 786 1225 725 c 1,21,22
 1296 670 1296 670 1321 598 c 0,23,24
 1330 572 1330 572 1348 569 c 1,25,26
 1375 562 1375 562 1375 532 c 0,27,28
 1375 499 1375 499 1274 467 c 2,29,-1
 832 326 l 1,30,31
 851 227 851 227 913 165 c 1,32,33
 980 100 980 100 1073 100 c 0,34,35
 1174 100 1174 100 1321 184 c 0,36,37
 1343 197 1343 197 1364 197 c 0,38,39
 1381 197 1381 197 1381 168 c 0,0,1
1147 559 m 0,40,41
 1147 616 1147 616 1106.5 655 c 128,-1,42
 1066 694 1066 694 1000 694 c 0,43,44
 921 694 921 694 874 629 c 0,45,46
 824 559 824 559 824 430 c 2,47,-1
 824 408 l 1,48,-1
 1082 492 l 2,49,50
 1147 513 1147 513 1147 559 c 0,40,41
666 342 m 0,51,52
 666 498 666 498 592.5 595 c 128,-1,53
 519 692 519 692 410 692 c 0,54,55
 314 692 314 692 255.5 614.5 c 128,-1,56
 197 537 197 537 197 424 c 0,57,58
 197 262 197 262 260 171 c 128,-1,59
 323 80 323 80 437 80 c 0,60,61
 536 80 536 80 601 154.5 c 128,-1,62
 666 229 666 229 666 342 c 0,51,52
EndSplineSet
EndChar

StartChar: endash
Encoding: 8211 8211 178
Width: 894
Flags: HW
LayerCount: 2
Fore
SplineSet
786 500 m 0,0,1
 351 511 351 511 122 489 c 0,2,3
 26 480 26 480 26 510 c 0,4,5
 26 543 26 543 49 578 c 0,6,7
 75 618 75 618 106 616 c 0,8,9
 295 607 295 607 802 618 c 0,10,11
 867 620 867 620 868 597 c 1,12,13
 868 564 868 564 843 531.5 c 128,-1,14
 818 499 818 499 786 500 c 0,0,1
EndSplineSet
EndChar

StartChar: emdash
Encoding: 8212 8212 179
Width: 1697
Flags: HW
LayerCount: 2
Fore
SplineSet
1589 500 m 0,0,1
 1480 503 1480 503 855 500 c 0,2,3
 195 496 195 496 122 489 c 0,4,5
 26 480 26 480 26 510 c 0,6,7
 26 543 26 543 49 578 c 0,8,9
 75 618 75 618 106 616 c 0,10,11
 191 612 191 612 857 614 c 0,12,13
 1486 616 1486 616 1605 618 c 0,14,15
 1670 620 1670 620 1671 597 c 1,16,17
 1671 564 1671 564 1646 531.5 c 128,-1,18
 1621 499 1621 499 1589 500 c 0,0,1
EndSplineSet
EndChar

StartChar: quotedblleft
Encoding: 8220 8220 180
Width: 744
Flags: HW
LayerCount: 2
Fore
SplineSet
714 1294 m 0,0,1
 718 1284 718 1284 718 1277 c 0,2,3
 718 1260 718 1260 661 1221 c 0,4,5
 563 1153 563 1153 563 1085 c 0,6,7
 563 1046 563 1046 618 1010 c 0,8,9
 700 956 700 956 700 885 c 0,10,11
 700 836 700 836 667.5 803 c 128,-1,12
 635 770 635 770 579 770 c 0,13,14
 513 770 513 770 476.5 818.5 c 128,-1,15
 440 867 440 867 440 944 c 0,16,17
 440 1078 440 1078 500 1168 c 0,18,19
 547 1238 547 1238 659 1315 c 0,20,21
 678 1327 678 1327 687 1327 c 0,22,23
 702 1327 702 1327 714 1294 c 0,0,1
301 1294 m 0,24,25
 305 1284 305 1284 305 1277 c 0,26,27
 305 1260 305 1260 248 1221 c 0,28,29
 149 1153 149 1153 149 1085 c 0,30,31
 149 1046 149 1046 205 1010 c 1,32,33
 286 956 286 956 286 885 c 0,34,35
 286 836 286 836 253.5 803 c 128,-1,36
 221 770 221 770 166 770 c 0,37,38
 100 770 100 770 63 818.5 c 128,-1,39
 26 867 26 867 26 944 c 0,40,41
 26 1078 26 1078 86 1168 c 0,42,43
 133 1238 133 1238 245 1315 c 0,44,45
 264 1327 264 1327 274 1327 c 0,46,47
 289 1327 289 1327 301 1294 c 0,24,25
EndSplineSet
EndChar

StartChar: quotedblright
Encoding: 8221 8221 181
Width: 744
Flags: HW
LayerCount: 2
Fore
SplineSet
718 1163 m 0,0,1
 718 1029 718 1029 658 940 c 0,2,3
 611 869 611 869 498 793 c 0,4,5
 480 780 480 780 470 780 c 0,6,7
 455 780 455 780 443 813 c 0,8,9
 439 824 439 824 439 830 c 0,10,11
 439 848 439 848 496 887 c 0,12,13
 595 954 595 954 595 1022 c 0,14,15
 595 1061 595 1061 539 1098 c 0,16,17
 458 1152 458 1152 458 1223 c 0,18,19
 458 1272 458 1272 490.5 1304.5 c 128,-1,20
 523 1337 523 1337 578 1337 c 0,21,22
 644 1337 644 1337 681 1289 c 128,-1,23
 718 1241 718 1241 718 1163 c 0,0,1
304 1163 m 0,24,25
 304 1029 304 1029 244 940 c 0,26,27
 197 869 197 869 85 793 c 0,28,29
 66 780 66 780 57 780 c 0,30,31
 42 780 42 780 29 813 c 1,32,33
 26 824 26 824 26 830 c 0,34,35
 26 848 26 848 83 887 c 0,36,37
 181 954 181 954 181 1022 c 0,38,39
 181 1061 181 1061 126 1098 c 0,40,41
 44 1152 44 1152 44 1223 c 0,42,43
 44 1272 44 1272 76.5 1304.5 c 128,-1,44
 109 1337 109 1337 165 1337 c 0,45,46
 231 1337 231 1337 267.5 1289 c 128,-1,47
 304 1241 304 1241 304 1163 c 0,24,25
EndSplineSet
EndChar

StartChar: quoteleft
Encoding: 8216 8216 182
Width: 331
Flags: HW
LayerCount: 2
Fore
SplineSet
301 1294 m 0,0,1
 305 1284 305 1284 305 1277 c 0,2,3
 305 1260 305 1260 248 1221 c 0,4,5
 149 1153 149 1153 149 1085 c 0,6,7
 149 1046 149 1046 205 1010 c 1,8,9
 286 956 286 956 286 885 c 0,10,11
 286 836 286 836 253.5 803 c 128,-1,12
 221 770 221 770 166 770 c 0,13,14
 100 770 100 770 63 818.5 c 128,-1,15
 26 867 26 867 26 944 c 0,16,17
 26 1078 26 1078 86 1168 c 0,18,19
 133 1238 133 1238 245 1315 c 0,20,21
 264 1327 264 1327 274 1327 c 0,22,23
 289 1327 289 1327 301 1294 c 0,0,1
EndSplineSet
EndChar

StartChar: quoteright
Encoding: 8217 8217 183
Width: 330
Flags: HW
LayerCount: 2
Fore
SplineSet
304 1163 m 0,0,1
 304 1029 304 1029 244 940 c 0,2,3
 197 869 197 869 85 793 c 0,4,5
 66 780 66 780 57 780 c 0,6,7
 42 780 42 780 29 813 c 1,8,9
 26 824 26 824 26 830 c 0,10,11
 26 848 26 848 83 887 c 0,12,13
 181 954 181 954 181 1022 c 0,14,15
 181 1061 181 1061 126 1098 c 0,16,17
 44 1152 44 1152 44 1223 c 0,18,19
 44 1272 44 1272 76.5 1304.5 c 128,-1,20
 109 1337 109 1337 165 1337 c 0,21,22
 231 1337 231 1337 267.5 1289 c 128,-1,23
 304 1241 304 1241 304 1163 c 0,0,1
EndSplineSet
EndChar

StartChar: divide
Encoding: 247 247 184
Width: 931
Flags: HW
LayerCount: 2
Fore
SplineSet
568 725 m 0,0,1
 568 671 568 671 536 633.5 c 128,-1,2
 504 596 504 596 458 596 c 0,3,4
 361 596 361 596 361 709 c 0,5,6
 361 760 361 760 395.5 794.5 c 128,-1,7
 430 829 430 829 476 829 c 0,8,9
 568 829 568 829 568 725 c 0,0,1
906 418 m 0,10,11
 906 398 906 398 888 380 c 128,-1,12
 870 362 870 362 847 362 c 2,13,-1
 44 362 l 2,14,15
 25 362 25 362 25 389 c 0,16,17
 25 434 25 434 83 434 c 2,18,-1
 888 434 l 2,19,20
 906 434 906 434 906 418 c 0,10,11
568 100 m 0,21,22
 568 47 568 47 536 9 c 128,-1,23
 504 -29 504 -29 458 -29 c 0,24,25
 361 -29 361 -29 361 84 c 0,26,27
 361 135 361 135 395.5 170 c 128,-1,28
 430 205 430 205 476 205 c 0,29,30
 568 205 568 205 568 100 c 0,21,22
EndSplineSet
EndChar

StartChar: lozenge
Encoding: 9674 9674 185
Width: 818
Flags: HW
LayerCount: 2
Fore
SplineSet
793 574 m 1,0,-1
 446 66 l 1,1,-1
 374 66 l 1,2,-1
 25 574 l 1,3,-1
 374 1082 l 1,4,-1
 446 1082 l 1,5,-1
 793 574 l 1,0,-1
654 574 m 1,6,-1
 409 945 l 1,7,-1
 164 574 l 1,8,-1
 409 203 l 1,9,-1
 654 574 l 1,6,-1
EndSplineSet
EndChar

StartChar: fraction
Encoding: 8260 8260 188
AltUni2: 002215.ffffffff.0
Width: 706
Flags: HW
LayerCount: 2
Fore
SplineSet
705.617 1038 m 0,0,1
 357.611 220 357.611 220 142.611 -303 c 1,2,3
 129.611 -327 129.611 -327 85.6113 -305 c 0,4,5
 44.6113 -285 44.6113 -285 52.6113 -266 c 0,6,7
 160.611 -11 160.611 -11 613.617 1075 c 0,8,9
 624.617 1101 624.617 1101 668.617 1079 c 1,10,11
 716.617 1063 716.617 1063 705.617 1038 c 0,0,1
EndSplineSet
EndChar

StartChar: currency
Encoding: 164 164 189
Width: 834
Flags: HW
LayerCount: 2
Fore
SplineSet
803.538 68 m 2,0,1
 815.538 55 815.538 55 797.538 37 c 0,2,3
 782.538 23 782.538 23 766.538 23 c 0,4,5
 746.538 23 746.538 23 723.538 45 c 2,6,-1
 606.538 160 l 1,7,8
 528.538 98 528.538 98 414.538 98 c 0,9,10
 310.538 98 310.538 98 231.538 158 c 1,11,-1
 86.5381 12 l 1,12,13
 71.5381 0 71.5381 0 53.5381 18 c 0,14,15
 39.5381 32 39.5381 32 39.5381 49 c 0,16,17
 39.5381 70 39.5381 70 61.5381 92 c 2,18,-1
 178.538 209 l 1,19,20
 119.538 288 119.538 288 119.538 391 c 0,21,22
 119.538 509 119.538 509 180.538 590 c 1,23,-1
 33.5381 737 l 2,24,25
 19.5381 751 19.5381 751 31.5381 762 c 0,26,27
 44.5381 775 44.5381 775 68.5381 775 c 0,28,29
 94.5381 776 94.5381 776 110.538 760 c 2,30,-1
 229.538 641 l 1,31,32
 313.538 709 313.538 709 426.538 709 c 0,33,34
 535.538 709 535.538 709 616.538 647 c 1,35,-1
 754.538 784 l 1,36,37
 767.538 795 767.538 795 778.538 784 c 0,38,39
 792.538 771 792.538 771 792.538 747 c 0,40,41
 792.538 721 792.538 721 776.538 705 c 2,42,-1
 665.538 594 l 1,43,44
 719.538 522 719.538 522 719.538 418 c 0,45,46
 719.538 300 719.538 300 657.538 213 c 1,47,-1
 803.538 68 l 2,0,1
645.538 418 m 0,48,49
 645.538 518 645.538 518 585.538 580.5 c 128,-1,50
 525.538 643 525.538 643 426.538 643 c 0,51,52
 324.538 643 324.538 643 258.538 575 c 128,-1,53
 192.538 507 192.538 507 192.538 391 c 0,54,55
 192.538 292 192.538 292 254.038 228 c 128,-1,56
 315.538 164 315.538 164 414.538 164 c 0,57,58
 524.538 164 524.538 164 586.538 237 c 0,59,60
 645.538 306 645.538 306 645.538 418 c 0,48,49
EndSplineSet
EndChar

StartChar: guilsinglleft
Encoding: 8249 8249 190
Width: 528
Flags: HW
LayerCount: 2
Fore
SplineSet
497 -16 m 0,0,1
 489 -32 489 -32 466 -12 c 2,2,-1
 48 348 l 2,3,4
 26 367 26 367 26 381 c 0,5,6
 26 394 26 394 48 414 c 2,7,-1
 464 772 l 2,8,9
 490 794 490 794 495 776 c 0,10,11
 505 738 505 738 478 705 c 2,12,-1
 220 381 l 1,13,-1
 480 53 l 2,14,15
 512 14 512 14 497 -16 c 0,0,1
EndSplineSet
EndChar

StartChar: guilsinglright
Encoding: 8250 8250 191
Width: 527
Flags: HW
LayerCount: 2
Fore
SplineSet
478.892 348 m 2,0,-1
 62.8916 -10 l 2,1,2
 37.8916 -32 37.8916 -32 32.8916 -14 c 0,3,4
 21.8916 24 21.8916 24 48.8916 57 c 2,5,-1
 306.892 381 l 1,6,-1
 46.8916 709 l 2,7,8
 15.8916 748 15.8916 748 30.8916 778 c 0,9,10
 37.8916 794 37.8916 794 60.8916 774 c 2,11,-1
 478.892 414 l 2,12,13
 500.892 394 500.892 394 500.892 381 c 0,14,15
 500.892 367 500.892 367 478.892 348 c 2,0,-1
EndSplineSet
EndChar

StartChar: fi
Encoding: 61441 61441 192
AltUni2: 00fb01.ffffffff.0
Width: 1085
Flags: HW
LayerCount: 2
Fore
SplineSet
1004 25 m 1,0,1
 1000 -4 1000 -4 980 -8 c 0,2,3
 974 -9 974 -9 931 -6 c 0,4,5
 783 4 783 4 640 -10 c 0,6,7
 599 -14 599 -14 590 -9 c 128,-1,8
 581 -4 581 -4 581 23 c 0,9,10
 581 51 581 51 607 59 c 0,11,12
 659 75 659 75 675 96 c 128,-1,13
 691 117 691 117 691 174 c 2,14,-1
 691 547 l 2,15,16
 691 608 691 608 663 632.5 c 128,-1,17
 635 657 635 657 562 657 c 2,18,-1
 339 657 l 2,19,20
 254 657 254 657 251 621 c 0,21,22
 249 600 249 600 251 186 c 0,23,24
 251 133 251 133 284 110 c 0,25,26
 313 89 313 89 390 78 c 0,27,28
 425 73 425 73 433 66 c 128,-1,29
 441 59 441 59 441 33 c 0,30,31
 441 5 441 5 430 -1 c 0,32,33
 424 -4 424 -4 390 -2 c 0,34,35
 196 8 196 8 36 -8 c 0,36,37
 -10 -13 -10 -13 -20 -8 c 256,38,39
 -30 -3 -30 -3 -30 27 c 0,40,41
 -30 52 -30 52 28 68 c 0,42,43
 97 87 97 87 97 168 c 2,44,-1
 97 557 l 2,45,46
 97 618 97 618 78 642 c 0,47,48
 65 658 65 658 28 670 c 0,49,50
 -30 688 -30 688 -30 727 c 0,51,52
 -30 754 -30 754 -6 761 c 0,53,54
 2 763 2 763 44 764 c 0,55,56
 80 765 80 765 89 780 c 0,57,58
 95 791 95 791 95 834 c 2,59,-1
 95 924 l 2,60,61
 95 1143 95 1143 234 1281 c 128,-1,62
 373 1419 373 1419 585 1419 c 0,63,64
 690 1419 690 1419 772.5 1381.5 c 128,-1,65
 855 1344 855 1344 855 1294 c 0,66,67
 855 1253 855 1253 803 1202 c 0,68,69
 755 1155 755 1155 724 1155 c 0,70,71
 684 1155 684 1155 630 1229 c 0,72,73
 563 1319 563 1319 519 1319 c 0,74,75
 251 1319 251 1319 251 938 c 2,76,-1
 251 801 l 2,77,78
 251 755 251 755 337 758 c 2,79,-1
 662 768 l 2,80,81
 700 769 700 769 747 782 c 128,-1,82
 794 795 794 795 812 795 c 0,83,84
 852 795 852 795 851 743 c 0,85,86
 845 547 845 547 845 209 c 0,87,88
 845 143 845 143 866 114 c 128,-1,89
 887 85 887 85 945 72 c 0,90,91
 1010 57 1010 57 1004 25 c 1,0,1
EndSplineSet
EndChar

StartChar: fl
Encoding: 61442 61442 193
AltUni2: 00fb02.ffffffff.0
Width: 1146
Flags: HW
LayerCount: 2
Fore
SplineSet
1066 29 m 0,0,1
 1066 -11 1066 -11 1019 -6 c 0,2,3
 882 7 882 7 679 -10 c 0,4,5
 638 -14 638 -14 628.5 -8 c 128,-1,6
 619 -2 619 -2 619 25 c 0,7,8
 619 49 619 49 673.5 65.5 c 128,-1,9
 728 82 728 82 728 164 c 2,10,-1
 728 981 l 2,11,12
 728 1137 728 1137 675 1209.5 c 128,-1,13
 622 1282 622 1282 499 1282 c 0,14,15
 251 1282 251 1282 251 993 c 2,16,-1
 251 801 l 2,17,18
 251 751 251 751 337 758 c 2,19,-1
 464 768 l 2,20,21
 539 774 539 774 546 744 c 0,22,23
 548 734 548 734 548 715 c 0,24,25
 548 674 548 674 528 664 c 0,26,27
 516 657 516 657 466 657 c 2,28,-1
 339 657 l 2,29,30
 254 657 254 657 251 621 c 0,31,32
 249 600 249 600 251 186 c 0,33,34
 251 93 251 93 413 80 c 0,35,36
 447 77 447 77 453 73 c 0,37,38
 464 67 464 67 464 39 c 0,39,40
 464 13 464 13 458 6 c 0,41,42
 450 -4 450 -4 413 -2 c 0,43,44
 205 9 205 9 36 -8 c 0,45,46
 -10 -13 -10 -13 -20 -8 c 256,47,48
 -30 -3 -30 -3 -30 27 c 0,49,50
 -30 52 -30 52 28 68 c 0,51,52
 97 87 97 87 97 168 c 2,53,-1
 97 557 l 2,54,55
 97 618 97 618 78 642 c 0,56,57
 65 658 65 658 28 670 c 0,58,59
 -30 688 -30 688 -30 727 c 0,60,61
 -30 754 -30 754 -6 761 c 0,62,63
 2 763 2 763 44 764 c 0,64,65
 80 765 80 765 89 780 c 0,66,67
 95 791 95 791 95 834 c 2,68,-1
 95 961 l 2,69,70
 95 1155 95 1155 239 1283 c 0,71,72
 377 1405 377 1405 576 1405 c 0,73,74
 652 1405 652 1405 750 1389 c 0,75,76
 771 1385 771 1385 805.5 1406 c 128,-1,77
 840 1427 840 1427 851 1427 c 0,78,79
 890 1427 890 1427 890 1376 c 1,80,81
 890 1380 890 1380 885 1254 c 0,82,83
 881 1132 881 1132 882 1038 c 2,84,-1
 888 188 l 2,85,86
 888 124 888 124 922 96 c 0,87,88
 950 73 950 73 1019 63 c 1,89,90
 1066 58 1066 58 1066 29 c 0,0,1
EndSplineSet
EndChar

StartChar: daggerdbl
Encoding: 8225 8225 194
Width: 698
Flags: HW
LayerCount: 2
Fore
SplineSet
672.36 950 m 0,0,1
 675.36 920 675.36 920 652.36 920 c 0,2,3
 644.36 920 644.36 920 588.36 942 c 1,4,5
 513.36 973 513.36 973 382.36 977 c 1,6,7
 394.36 828 394.36 828 423.36 743 c 1,8,9
 448.36 666 448.36 666 429.36 588 c 0,10,11
 393.36 446 393.36 446 382.36 311 c 1,12,13
 548.36 318 548.36 318 609.36 350 c 0,14,15
 628.36 360 628.36 360 644.36 360 c 0,16,17
 665.36 360 665.36 360 662.36 342 c 0,18,19
 654.36 287 654.36 287 662.36 221 c 0,20,21
 665.36 197 665.36 197 650.36 197 c 0,22,23
 636.36 197 636.36 197 605.36 213 c 0,24,25
 527.36 254 527.36 254 380.36 260 c 1,26,27
 392.36 90 392.36 90 449.36 37 c 0,28,29
 476.36 12 476.36 12 476.36 4 c 0,30,31
 476.36 -23 476.36 -23 447.36 -16 c 0,32,33
 355.36 6 355.36 6 251.36 -14 c 0,34,35
 226.36 -19 226.36 -19 226.36 4 c 0,36,37
 226.36 9 226.36 9 259.36 61 c 0,38,39
 320.36 160 320.36 160 320.36 260 c 1,40,41
 146.36 260 146.36 260 91.3604 219 c 0,42,43
 74.3604 207 74.3604 207 56.3604 207 c 0,44,45
 39.3604 207 39.3604 207 42.3604 225 c 1,46,47
 46.3604 264 46.3604 264 35.3604 350 c 0,48,49
 33.3604 371 33.3604 371 54.3604 371 c 0,50,51
 65.3604 371 65.3604 371 89.3604 358 c 0,52,53
 169.36 317 169.36 317 318.36 311 c 1,54,55
 305.36 462 305.36 462 273.36 559 c 0,56,57
 246.36 643 246.36 643 265.36 719 c 0,58,59
 301.36 861 301.36 861 318.36 977 c 1,60,61
 144.36 974 144.36 974 89.3604 942 c 0,62,63
 60.3604 926 60.3604 926 48.3604 926 c 0,64,65
 22.3604 926 22.3604 926 25.3604 950 c 0,66,67
 32.3604 1008 32.3604 1008 25.3604 1059 c 0,68,69
 22.3604 1083 22.3604 1083 44.3604 1083 c 0,70,71
 55.3604 1083 55.3604 1083 85.3604 1069 c 0,72,73
 158.36 1034 158.36 1034 320.36 1028 c 1,74,75
 309.36 1171 309.36 1171 239.36 1261 c 0,76,77
 226.36 1279 226.36 1279 226.36 1290 c 0,78,79
 226.36 1311 226.36 1311 255.36 1309 c 0,80,81
 336.36 1301 336.36 1301 455.36 1324 c 1,82,83
 476.36 1327 476.36 1327 476.36 1303 c 0,84,85
 476.36 1292 476.36 1292 455.36 1268 c 0,86,87
 393.36 1193 393.36 1193 380.36 1028 c 1,88,89
 511.36 1032 511.36 1032 603.36 1063 c 0,90,91
 633.36 1073 633.36 1073 650.36 1073 c 0,92,93
 670.36 1073 670.36 1073 668.36 1049.5 c 128,-1,94
 666.36 1026 666.36 1026 672.36 950 c 0,0,1
EndSplineSet
EndChar

StartChar: periodcentered
Encoding: 183 183 195
AltUni2: 002219.ffffffff.0
Width: 296
Flags: HW
LayerCount: 2
Fore
SplineSet
191 575 m 0,0,1
 191 514 191 514 153 470 c 128,-1,2
 115 426 115 426 62 426 c 0,3,4
 -53 426 -53 426 -53 557 c 0,5,6
 -53 616 -53 616 -13 656 c 128,-1,7
 27 696 27 696 80 696 c 0,8,9
 191 696 191 696 191 575 c 0,0,1
EndSplineSet
EndChar

StartChar: quotesinglbase
Encoding: 8218 8218 196
Width: 332
Flags: HW
LayerCount: 2
Fore
SplineSet
305 49 m 0,0,1
 305 -85 305 -85 245 -174 c 0,2,3
 198 -245 198 -245 86 -322 c 0,4,5
 67 -334 67 -334 58 -334 c 0,6,7
 43 -334 43 -334 30 -301 c 0,8,9
 27 -291 27 -291 27 -284 c 0,10,11
 27 -266 27 -266 84 -227 c 0,12,13
 182 -160 182 -160 182 -92 c 0,14,15
 182 -53 182 -53 127 -16 c 0,16,17
 45 38 45 38 45 109 c 0,18,19
 45 158 45 158 77.5 190.5 c 128,-1,20
 110 223 110 223 166 223 c 0,21,22
 232 223 232 223 268.5 175 c 128,-1,23
 305 127 305 127 305 49 c 0,0,1
EndSplineSet
EndChar

StartChar: quotedblbase
Encoding: 8222 8222 197
Width: 746
Flags: HW
LayerCount: 2
Fore
SplineSet
719 49 m 0,0,1
 719 -85 719 -85 659 -174 c 0,2,3
 612 -245 612 -245 499 -322 c 0,4,5
 481 -334 481 -334 471 -334 c 0,6,7
 456 -334 456 -334 444 -301 c 0,8,9
 440 -291 440 -291 440 -284 c 0,10,11
 440 -266 440 -266 497 -227 c 0,12,13
 596 -160 596 -160 596 -92 c 0,14,15
 596 -53 596 -53 540 -16 c 0,16,17
 459 38 459 38 459 109 c 0,18,19
 459 158 459 158 491.5 190.5 c 128,-1,20
 524 223 524 223 579 223 c 0,21,22
 645 223 645 223 682 175 c 128,-1,23
 719 127 719 127 719 49 c 0,0,1
305 49 m 0,24,25
 305 -85 305 -85 245 -174 c 0,26,27
 198 -245 198 -245 86 -322 c 0,28,29
 67 -334 67 -334 58 -334 c 0,30,31
 43 -334 43 -334 30 -301 c 0,32,33
 27 -291 27 -291 27 -284 c 0,34,35
 27 -266 27 -266 84 -227 c 0,36,37
 182 -160 182 -160 182 -92 c 0,38,39
 182 -53 182 -53 127 -16 c 0,40,41
 45 38 45 38 45 109 c 0,42,43
 45 158 45 158 77.5 190.5 c 128,-1,44
 110 223 110 223 166 223 c 0,45,46
 232 223 232 223 268.5 175 c 128,-1,47
 305 127 305 127 305 49 c 0,24,25
EndSplineSet
EndChar

StartChar: perthousand
Encoding: 8240 8240 198
Width: 2206
Flags: HW
LayerCount: 2
Fore
SplineSet
2181 268 m 0,0,1
 2181 136 2181 136 2104 52 c 0,2,3
 2023 -35 2023 -35 1891 -35 c 0,4,5
 1769 -35 1769 -35 1688.5 46.5 c 128,-1,6
 1608 128 1608 128 1608 250 c 0,7,8
 1608 385 1608 385 1695 469 c 0,9,10
 1778 549 1778 549 1901 549 c 0,11,12
 2025 549 2025 549 2103 471 c 128,-1,13
 2181 393 2181 393 2181 268 c 0,0,1
1506 268 m 0,14,15
 1506 136 1506 136 1428 52 c 0,16,17
 1347 -35 1347 -35 1215 -35 c 0,18,19
 1094 -35 1094 -35 1013 46.5 c 128,-1,20
 932 128 932 128 932 250 c 0,21,22
 932 385 932 385 1019 469 c 0,23,24
 1102 549 1102 549 1225 549 c 0,25,26
 1349 549 1349 549 1427.5 471 c 128,-1,27
 1506 393 1506 393 1506 268 c 0,14,15
1082 815 m 0,28,29
 875 497 875 497 510 -80 c 1,30,31
 500 -101 500 -101 464.5 -74.5 c 128,-1,32
 429 -48 429 -48 439 -33 c 0,33,34
 596 214 596 214 1010 860 c 0,35,36
 1023 880 1023 880 1055 856 c 0,37,38
 1091 829 1091 829 1082 815 c 0,28,29
598 555 m 0,39,40
 598 423 598 423 520 339 c 0,41,42
 440 252 440 252 307 252 c 0,43,44
 186 252 186 252 105.5 333.5 c 128,-1,45
 25 415 25 415 25 537 c 0,46,47
 25 672 25 672 112 756 c 0,48,49
 195 836 195 836 318 836 c 0,50,51
 442 836 442 836 520 757.5 c 128,-1,52
 598 679 598 679 598 555 c 0,39,40
2026 256 m 0,53,54
 2026 481 2026 481 1899 481 c 0,55,56
 1764 481 1764 481 1764 264 c 0,57,58
 1764 33 1764 33 1899 33 c 0,59,60
 2026 33 2026 33 2026 256 c 0,53,54
1350 256 m 0,61,62
 1350 481 1350 481 1223 481 c 0,63,64
 1088 481 1088 481 1088 264 c 0,65,66
 1088 33 1088 33 1223 33 c 0,67,68
 1350 33 1350 33 1350 256 c 0,61,62
443 543 m 0,69,70
 443 768 443 768 316 768 c 0,71,72
 181 768 181 768 181 551 c 0,73,74
 181 319 181 319 316 319 c 0,75,76
 443 319 443 319 443 543 c 0,69,70
EndSplineSet
EndChar

StartChar: apple
Encoding: 65539 -1 210
Width: 818
Flags: HW
LayerCount: 2
Fore
SplineSet
25 0 m 1,0,-1
 25 1516 l 1,1,-1
 793 1516 l 1,2,-1
 793 0 l 1,3,-1
 25 0 l 1,0,-1
153 128 m 1,4,-1
 665 128 l 1,5,-1
 665 1388 l 1,6,-1
 153 1388 l 1,7,-1
 153 128 l 1,4,-1
EndSplineSet
EndChar

StartChar: dotlessi
Encoding: 305 305 215
Width: 502
Flags: HW
LayerCount: 2
Fore
SplineSet
476 25 m 0,0,1
 471 -4 471 -4 452 -8 c 0,2,3
 447 -9 447 -9 404 -6 c 0,4,5
 255 4 255 4 111 -10 c 0,6,7
 72 -14 72 -14 62 -7 c 128,-1,8
 52 0 52 0 52 25 c 0,9,10
 52 48 52 48 105 63 c 0,11,12
 163 80 163 80 163 174 c 2,13,-1
 163 436 l 2,14,15
 163 515 163 515 147 547 c 0,16,17
 125 591 125 591 56 614 c 0,18,19
 25 625 25 625 25 647 c 0,20,21
 25 676 25 676 70 690 c 0,22,23
 154 716 154 716 219 759 c 1,24,25
 271 795 271 795 283 795 c 0,26,27
 323 795 323 795 322 743 c 0,28,29
 318 481 318 481 318 209 c 0,30,31
 318 144 318 144 337 116 c 0,32,33
 358 85 358 85 417 72 c 0,34,35
 482 57 482 57 476 25 c 0,0,1
EndSplineSet
EndChar

StartChar: circumflex
Encoding: 710 710 216
Width: 604
Flags: HW
LayerCount: 2
Fore
SplineSet
572.559 952 m 0,0,1
 583.559 938 583.559 938 560.559 924 c 0,2,3
 525.559 903 525.559 903 506.559 918 c 0,4,5
 387.559 1012 387.559 1012 301.559 1110 c 1,6,7
 232.559 1030 232.559 1030 97.5586 918 c 0,8,9
 78.5586 902 78.5586 902 43.5586 924 c 0,10,11
 20.5586 938 20.5586 938 31.5586 952 c 0,12,13
 185.559 1147 185.559 1147 252.559 1278 c 1,14,15
 269.559 1303 269.559 1303 301.559 1303 c 0,16,17
 335.559 1303 335.559 1303 351.559 1278 c 1,18,19
 407.559 1165 407.559 1165 572.559 952 c 0,0,1
EndSplineSet
EndChar

StartChar: tilde
Encoding: 732 732 217
Width: 760
Flags: HW
LayerCount: 2
Fore
SplineSet
727.025 1176 m 1,0,1
 647.025 1070 647.025 1070 620.025 1038 c 0,2,3
 569.025 979 569.025 979 516.025 979 c 0,4,5
 487.025 979 487.025 979 368.025 1014 c 128,-1,6
 249.025 1049 249.025 1049 237.025 1049 c 0,7,8
 212.025 1049 212.025 1049 184.025 1030 c 1,9,-1
 90.0254 948 l 2,10,11
 76.0254 936 76.0254 936 45.0254 963 c 1,12,13
 20.0254 983 20.0254 983 34.0254 993 c 1,14,15
 99.0254 1084 99.0254 1084 139.025 1130 c 0,16,17
 192.025 1192 192.025 1192 243.025 1192 c 0,18,19
 272.025 1192 272.025 1192 392.025 1156 c 128,-1,20
 512.025 1120 512.025 1120 522.025 1120 c 0,21,22
 551.025 1120 551.025 1120 575.025 1141 c 0,23,24
 630.025 1187 630.025 1187 671.025 1223 c 0,25,26
 683.025 1233 683.025 1233 714.025 1206 c 1,27,28
 740.025 1189 740.025 1189 727.025 1176 c 1,0,1
EndSplineSet
EndChar

StartChar: macron
Encoding: 175 175 218
AltUni2: 0002c9.ffffffff.0
Width: 671
Flags: HW
LayerCount: 2
Fore
SplineSet
523 1096 m 0,0,1
 523 1048 523 1048 504 1044 c 0,2,3
 321 1006 321 1006 62 1006 c 0,4,5
 18 1006 18 1006 -63 1010 c 0,6,7
 -88 1011 -88 1011 -88 1049 c 0,8,9
 -88 1095 -88 1095 -69 1100 c 0,10,11
 106 1141 106 1141 373 1141 c 0,12,13
 422 1141 422 1141 498 1137 c 0,14,15
 523 1135 523 1135 523 1096 c 0,0,1
EndSplineSet
EndChar

StartChar: breve
Encoding: 728 728 219
Width: 611
Flags: HW
LayerCount: 2
Fore
SplineSet
582.148 1208 m 1,0,1
 516.148 934 516.148 934 305.148 934 c 0,2,3
 193.148 934 193.148 934 132.148 990 c 0,4,5
 65.1484 1052 65.1484 1052 29.1484 1206 c 1,6,7
 27.1484 1226 27.1484 1226 52.1484 1229 c 0,8,9
 92.1484 1233 92.1484 1233 103.148 1212 c 0,10,11
 175.148 1071 175.148 1071 305.148 1071 c 0,12,13
 439.148 1071 439.148 1071 508.148 1212 c 0,14,15
 519.148 1235 519.148 1235 559.148 1231 c 0,16,17
 585.148 1228 585.148 1228 582.148 1208 c 1,0,1
EndSplineSet
EndChar

StartChar: dotaccent
Encoding: 729 729 220
Width: 267
Flags: HW
LayerCount: 2
Fore
SplineSet
238 1065 m 0,0,1
 238 1010 238 1010 206 973 c 128,-1,2
 174 936 174 936 127 936 c 0,3,4
 29 936 29 936 29 1047 c 0,5,6
 29 1098 29 1098 63 1133.5 c 128,-1,7
 97 1169 97 1169 144 1169 c 0,8,9
 238 1169 238 1169 238 1065 c 0,0,1
EndSplineSet
EndChar

StartChar: ring
Encoding: 730 730 221
Width: 461
Flags: HW
LayerCount: 2
Fore
SplineSet
433 1096 m 256,0,1
 433 1011 433 1011 374 952 c 128,-1,2
 315 893 315 893 230 893 c 0,3,4
 146 893 146 893 87 952 c 128,-1,5
 28 1011 28 1011 28 1096 c 256,6,7
 28 1181 28 1181 87 1242 c 128,-1,8
 146 1303 146 1303 230 1303 c 0,9,10
 315 1303 315 1303 374 1242 c 128,-1,11
 433 1181 433 1181 433 1096 c 256,0,1
351 1096 m 0,12,13
 351 1152 351 1152 316.5 1189.5 c 128,-1,14
 282 1227 282 1227 230 1227 c 0,15,16
 179 1227 179 1227 144.5 1189.5 c 128,-1,17
 110 1152 110 1152 110 1096 c 0,18,19
 110 1039 110 1039 144.5 1003 c 128,-1,20
 179 967 179 967 230 967 c 0,21,22
 282 967 282 967 316.5 1003 c 128,-1,23
 351 1039 351 1039 351 1096 c 0,12,13
EndSplineSet
EndChar

StartChar: cedilla
Encoding: 184 184 222
Width: 456
Flags: HW
LayerCount: 2
Fore
SplineSet
428.667 -233 m 0,0,1
 428.667 -387 428.667 -387 43.667 -397 c 0,2,3
 32.667 -398 32.667 -398 28.667 -376 c 0,4,5
 23.667 -353 23.667 -353 33.667 -352 c 0,6,7
 268.667 -323 268.667 -323 268.667 -244 c 0,8,9
 268.667 -178 268.667 -178 100.667 -145 c 0,10,11
 71.667 -140 71.667 -140 90.667 -113 c 0,12,13
 105.667 -92 105.667 -92 190.667 39 c 1,14,-1
 280.667 39 l 1,15,16
 239.667 -19 239.667 -19 213.667 -63 c 0,17,18
 201.667 -84 201.667 -84 227.667 -90 c 0,19,20
 428.667 -138 428.667 -138 428.667 -233 c 0,0,1
EndSplineSet
EndChar

StartChar: hungarumlaut
Encoding: 733 733 223
Width: 723
Flags: HW
LayerCount: 2
Fore
SplineSet
694.613 1239 m 0,0,1
 694.613 1219 694.613 1219 675.613 1186 c 1,2,3
 567.613 1038 567.613 1038 442.613 922 c 1,4,5
 426.613 903 426.613 903 397.613 924 c 0,6,7
 375.613 939 375.613 939 385.613 952 c 1,8,9
 438.613 1031 438.613 1031 484.613 1152 c 0,10,11
 527.613 1265 527.613 1265 538.613 1278 c 0,12,13
 562.613 1307 562.613 1307 579.613 1307 c 0,14,15
 616.613 1307 616.613 1307 655.613 1281.5 c 128,-1,16
 694.613 1256 694.613 1256 694.613 1239 c 0,0,1
342.613 1239 m 0,17,18
 342.613 1223 342.613 1223 321.613 1186 c 1,19,20
 216.613 1043 216.613 1043 90.6133 922 c 0,21,22
 71.6133 904 71.6133 904 43.6133 924 c 0,23,24
 21.6133 939 21.6133 939 30.6133 952 c 0,25,26
 84.6133 1031 84.6133 1031 130.613 1152 c 0,27,28
 172.613 1265 172.613 1265 184.613 1278 c 0,29,30
 209.613 1307 209.613 1307 225.613 1307 c 0,31,32
 262.613 1307 262.613 1307 302.613 1281.5 c 128,-1,33
 342.613 1256 342.613 1256 342.613 1239 c 0,17,18
EndSplineSet
EndChar

StartChar: ogonek
Encoding: 731 731 224
Width: 359
Flags: HW
LayerCount: 2
Fore
SplineSet
324 -352 m 0,0,1
 335 -356 335 -356 330 -377 c 0,2,3
 326 -398 326 -398 316 -397 c 0,4,5
 27 -373 27 -373 27 -221 c 0,6,7
 27 -84 27 -84 195 39 c 1,8,-1
 277 39 l 1,9,10
 173 -69 173 -69 173 -174 c 0,11,12
 173 -298 173 -298 324 -352 c 0,0,1
EndSplineSet
EndChar

StartChar: caron
Encoding: 711 711 225
Width: 604
Flags: HW
LayerCount: 2
Fore
SplineSet
572.559 1255 m 0,0,1
 433.559 1079 433.559 1079 351.559 930 c 0,2,3
 337.559 905 337.559 905 301.559 905 c 256,4,5
 265.559 905 265.559 905 252.559 930 c 0,6,7
 187.559 1054 187.559 1054 31.5586 1255 c 0,8,9
 20.5586 1270 20.5586 1270 43.5586 1284 c 0,10,11
 74.5586 1303 74.5586 1303 97.5586 1290 c 1,12,13
 211.559 1198 211.559 1198 301.559 1098 c 1,14,15
 380.559 1185 380.559 1185 506.559 1290 c 0,16,17
 524.559 1305 524.559 1305 560.559 1284 c 0,18,19
 583.559 1270 583.559 1270 572.559 1255 c 0,0,1
EndSplineSet
EndChar

StartChar: brokenbar
Encoding: 166 166 232
Width: 149
Flags: HW
LayerCount: 2
Fore
SplineSet
124 633 m 2,0,1
 124 608 124 608 74 608 c 0,2,3
 25 608 25 608 25 633 c 2,4,-1
 25 1552 l 1,5,6
 28 1577 28 1577 76 1577 c 0,7,8
 96 1577 96 1577 108 1575 c 0,9,10
 124 1571 124 1571 124 1552 c 2,11,-1
 124 633 l 2,0,1
124 -330 m 2,12,13
 124 -354 124 -354 74 -354 c 0,14,15
 25 -354 25 -354 25 -330 c 2,16,-1
 25 449 l 1,17,18
 28 473 28 473 76 473 c 0,19,20
 96 473 96 473 108 471 c 0,21,22
 124 467 124 467 124 449 c 2,23,-1
 124 -330 l 2,12,13
EndSplineSet
EndChar

StartChar: eth
Encoding: 240 240 234
Width: 904
Flags: HW
LayerCount: 2
Fore
SplineSet
879 461 m 0,0,1
 879 229 879 229 753 104 c 0,2,3
 635 -12 635 -12 434 -12 c 0,4,5
 243 -12 243 -12 132 94 c 1,6,7
 25 198 25 198 25 369 c 0,8,9
 25 547 25 547 149 668 c 0,10,11
 269 784 269 784 434 784 c 0,12,13
 574 784 574 784 668 713 c 0,14,15
 681 703 681 703 686 708 c 0,16,17
 692 714 692 714 686 733 c 0,18,19
 626 935 626 935 445 1135 c 1,20,21
 398 1089 398 1089 307 993 c 0,22,23
 291 975 291 975 280 975 c 0,24,25
 272 975 272 975 264 989 c 0,26,27
 222 1054 222 1054 244 1075 c 2,28,-1
 375 1202 l 1,29,30
 285 1286 285 1286 205 1333 c 1,31,32
 139 1373 139 1373 144 1393 c 1,33,34
 160 1436 160 1436 172 1432 c 0,35,36
 324 1376 324 1376 455 1282 c 1,37,38
 504 1329 504 1329 594 1423 c 1,39,40
 605 1433 605 1433 611 1433 c 0,41,42
 624 1433 624 1433 649.5 1395 c 128,-1,43
 675 1357 675 1357 658 1341 c 0,44,45
 600 1288 600 1288 533 1221 c 1,46,47
 879 916 879 916 879 461 c 0,0,1
707 342 m 0,48,49
 707 499 707 499 631 597 c 0,50,51
 557 692 557 692 443 692 c 0,52,53
 337 692 337 692 270 617.5 c 128,-1,54
 203 543 203 543 203 436 c 0,55,56
 203 264 203 264 281 168 c 0,57,58
 353 80 353 80 469 80 c 0,59,60
 579 80 579 80 643 153 c 128,-1,61
 707 226 707 226 707 342 c 0,48,49
EndSplineSet
EndChar

StartChar: Thorn
Encoding: 222 222 237
Width: 1066
Flags: HW
LayerCount: 2
Fore
SplineSet
1041 700 m 0,0,1
 1041 524 1041 524 885 418 c 0,2,3
 736 317 736 317 500 317 c 0,4,5
 481 317 481 317 431.5 320.5 c 128,-1,6
 382 324 382 324 377 324 c 0,7,8
 367 324 367 324 367 293 c 2,9,-1
 367 164 l 2,10,11
 367 117 367 117 386.5 103 c 128,-1,12
 406 89 406 89 492 74 c 0,13,14
 547 64 547 64 547 35 c 0,15,16
 547 10 547 10 538 4 c 128,-1,17
 529 -2 529 -2 488 0 c 0,18,19
 307 8 307 8 93 -8 c 0,20,21
 50 -11 50 -11 50 27 c 0,22,23
 50 53 50 53 93 57 c 0,24,25
 191 67 191 67 191 164 c 2,26,-1
 191 1122 l 2,27,28
 191 1217 191 1217 80 1239 c 0,29,30
 25 1250 25 1250 25 1274 c 0,31,32
 25 1305 25 1305 40 1311 c 0,33,34
 50 1315 50 1315 86 1309 c 0,35,36
 154 1297 154 1297 469 1311 c 0,37,38
 521 1313 521 1313 526 1297 c 0,39,40
 529 1290 529 1290 529 1276 c 0,41,42
 529 1248 529 1248 473 1237 c 1,43,44
 408 1223 408 1223 394 1215 c 0,45,46
 367 1198 367 1198 367 1147 c 2,47,-1
 367 1067 l 2,48,49
 367 1029 367 1029 406 1032 c 0,50,51
 477 1038 477 1038 572 1038 c 0,52,53
 785 1038 785 1038 910 952 c 0,54,55
 1041 862 1041 862 1041 700 c 0,0,1
846 678 m 0,56,57
 846 839 846 839 764 905 c 0,58,59
 686 969 686 969 504 969 c 0,60,61
 422 969 422 969 394.5 945 c 128,-1,62
 367 921 367 921 367 860 c 2,63,-1
 367 418 l 2,64,65
 367 389 367 389 510 389 c 0,66,67
 664 389 664 389 755 466 c 128,-1,68
 846 543 846 543 846 678 c 0,56,57
EndSplineSet
EndChar

StartChar: thorn
Encoding: 254 254 238
Width: 961
Flags: HW
LayerCount: 2
Fore
SplineSet
936 440 m 0,0,1
 936 244 936 244 809 110 c 0,2,3
 687 -18 687 -18 518 -18 c 0,4,5
 418 -18 418 -18 324 18 c 0,6,7
 314 22 314 22 314 -31 c 2,8,-1
 314 -332 l 2,9,10
 314 -405 314 -405 432 -426 c 0,11,12
 488 -436 488 -436 502 -444.5 c 128,-1,13
 516 -453 516 -453 516 -473 c 0,14,15
 516 -507 516 -507 471 -504 c 0,16,17
 261 -490 261 -490 103 -514 c 0,18,19
 69 -519 69 -519 61 -514 c 128,-1,20
 53 -509 53 -509 53 -487 c 0,21,22
 53 -470 53 -470 111 -446 c 0,23,24
 142 -434 142 -434 151 -415.5 c 128,-1,25
 160 -397 160 -397 160 -350 c 2,26,-1
 164 489 l 2,27,28
 164 605 164 605 162 825.5 c 128,-1,29
 160 1046 160 1046 160 1118 c 128,-1,30
 160 1190 160 1190 138 1217 c 0,31,32
 118 1241 118 1241 51 1255 c 1,33,34
 25 1264 25 1264 25 1288 c 0,35,36
 25 1309 25 1309 64 1323 c 0,37,38
 120 1343 120 1343 203 1390 c 0,39,40
 269 1427 269 1427 285 1427 c 0,41,42
 316 1427 316 1427 316 1376 c 0,43,44
 316 1372 316 1372 313 1272 c 0,45,46
 311 1178 311 1178 312 1081 c 2,47,-1
 314 735 l 2,48,49
 314 686 314 686 348 707 c 1,50,51
 468 776 468 776 598 776 c 0,52,53
 748 776 748 776 842 683.5 c 128,-1,54
 936 591 936 591 936 440 c 0,0,1
776 360 m 0,55,56
 776 497 776 497 700 585 c 0,57,58
 628 668 628 668 525 668 c 0,59,60
 454 668 454 668 385 631 c 128,-1,61
 316 594 316 594 316 553 c 2,62,-1
 316 176 l 2,63,64
 316 149 316 149 391 119 c 0,65,66
 474 86 474 86 570 86 c 0,67,68
 668 86 668 86 722 159.5 c 128,-1,69
 776 233 776 233 776 360 c 0,55,56
EndSplineSet
EndChar

StartChar: minus
Encoding: 173 173 239
AltUni2: 002212.ffffffff.0
Width: 935
Flags: HW
LayerCount: 2
Fore
SplineSet
853 418 m 0,0,1
 853 398 853 398 835 380 c 128,-1,2
 817 362 817 362 794 362 c 2,3,-1
 -9 362 l 2,4,5
 -28 362 -28 362 -28 389 c 0,6,7
 -28 434 -28 434 30 434 c 2,8,-1
 835 434 l 2,9,10
 853 434 853 434 853 418 c 0,0,1
EndSplineSet
EndChar

StartChar: multiply
Encoding: 215 215 240
Width: 832
Flags: HW
LayerCount: 2
Fore
SplineSet
30.042 762 m 1,0,1
 44.042 775 44.042 775 69.042 775 c 0,2,3
 95.042 775 95.042 775 111.042 759 c 2,4,-1
 420.042 450 l 1,5,-1
 754.042 783 l 2,6,7
 767.042 796 767.042 796 779.042 785 c 0,8,9
 793.042 771 793.042 771 793.042 747 c 0,10,11
 793.042 720 793.042 720 776.042 704 c 2,12,-1
 471.042 399 l 1,13,-1
 802.042 68 l 2,14,15
 815.042 55 815.042 55 796.042 36 c 0,16,17
 782.042 23 782.042 23 767.042 23 c 0,18,19
 746.042 23 746.042 23 724.042 45 c 2,20,-1
 420.042 348 l 1,21,-1
 85.042 13 l 2,22,23
 72.042 0 72.042 0 53.042 19 c 0,24,25
 40.042 33 40.042 33 40.042 49 c 0,26,27
 40.042 69 40.042 69 62.042 91 c 2,28,-1
 370.042 399 l 1,29,-1
 32.042 737 l 2,30,31
 19.042 750 19.042 750 30.042 762 c 1,0,1
EndSplineSet
EndChar

StartChar: glyph247
Encoding: 65540 -1 247
Width: 699
Flags: HW
LayerCount: 2
Fore
SplineSet
671.143 702 m 0,0,1
 650.143 628 650.143 628 624.143 629 c 0,2,3
 394.143 633 394.143 633 374.143 633 c 0,4,5
 239.143 632 239.143 632 50.1426 629 c 0,6,7
 29.1426 628 29.1426 628 27.1426 650 c 0,8,9
 26.1426 658 26.1426 658 32.1426 688 c 0,10,11
 41.1426 731 41.1426 731 65.1426 731 c 0,12,13
 90.1426 731 90.1426 731 222.143 729 c 128,-1,14
 354.143 727 354.143 727 374.143 727 c 0,15,16
 558.143 727 558.143 727 638.143 731 c 0,17,18
 663.143 732 663.143 732 669.643 725.5 c 128,-1,19
 676.143 719 676.143 719 671.143 702 c 0,0,1
EndSplineSet
EndChar

StartChar: glyph248
Encoding: 65541 -1 248
Width: 675
Flags: HW
LayerCount: 2
Fore
SplineSet
642.941 803 m 1,0,1
 656.941 760 656.941 760 635.941 750 c 1,2,3
 490.941 673 490.941 673 78.9414 428 c 0,4,5
 44.9414 407 44.9414 407 35.9414 436 c 0,6,7
 22.9414 482 22.9414 482 26.9414 503 c 0,8,9
 29.9414 518 29.9414 518 39.9414 524 c 0,10,11
 222.941 626 222.941 626 597.941 846 c 0,12,13
 606.941 851 606.941 851 611.941 851 c 0,14,15
 625.941 851 625.941 851 642.941 803 c 1,0,1
EndSplineSet
EndChar

StartChar: glyph249
Encoding: 65542 -1 249
Width: 520
Flags: HW
LayerCount: 2
Fore
SplineSet
488.587 702 m 0,0,1
 502.587 660 502.587 660 482.587 649 c 0,2,3
 217.587 507 217.587 507 78.5869 418 c 0,4,5
 44.5869 396 44.5869 396 35.5869 426 c 0,6,7
 14.5869 501 14.5869 501 39.5869 514 c 0,8,9
 104.587 547 104.587 547 443.587 745 c 0,10,11
 452.587 751 452.587 751 458.587 751 c 0,12,13
 471.587 751 471.587 751 488.587 702 c 0,0,1
EndSplineSet
EndChar

StartChar: glyph250
Encoding: 65543 -1 250
Width: 1186
Flags: HW
LayerCount: 2
Fore
SplineSet
1157 1294 m 1,0,1
 814 868 814 868 117 -29 c 0,2,3
 96 -55 96 -55 55 -27 c 1,4,5
 25 -5 25 -5 25 5 c 0,6,7
 25 12 25 12 31 18 c 0,8,9
 158 178 158 178 1071 1343 c 0,10,11
 1090 1367 1090 1367 1133 1341 c 0,12,13
 1172 1318 1172 1318 1157 1294 c 1,0,1
EndSplineSet
EndChar

StartChar: glyph251
Encoding: 65544 -1 251
Width: 1291
Flags: HW
LayerCount: 2
Fore
SplineSet
1261.96 1364 m 0,0,1
 957.96 959 957.96 959 98.96 -143 c 0,2,3
 85.96 -159 85.96 -159 50.46 -131.5 c 128,-1,4
 14.96 -104 14.96 -104 28.96 -86 c 0,5,6
 69.96 -34 69.96 -34 615.96 672 c 0,7,8
 1153.96 1369 1153.96 1369 1191.96 1419 c 0,9,10
 1205.96 1437 1205.96 1437 1240.46 1408.5 c 128,-1,11
 1274.96 1380 1274.96 1380 1261.96 1364 c 0,0,1
EndSplineSet
EndChar

StartChar: glyph252
Encoding: 65545 -1 252
Width: 831
Flags: HW
LayerCount: 2
Fore
SplineSet
803.083 813 m 1,0,-1
 92.083 -109 l 2,1,2
 80.083 -125 80.083 -125 49.083 -94 c 1,3,4
 15.083 -73 15.083 -73 29.083 -55 c 0,5,6
 265.083 247 265.083 247 738.083 864 c 0,7,8
 751.083 881 751.083 881 782.083 855.5 c 128,-1,9
 813.083 830 813.083 830 803.083 813 c 1,0,-1
EndSplineSet
EndChar

StartChar: glyph253
Encoding: 65546 -1 253
Width: 1379
Flags: HW
LayerCount: 2
Fore
SplineSet
1354 1364 m 0,0,1
 1354 1322 1354 1322 1316 1266 c 128,-1,2
 1278 1210 1278 1210 1256 1210 c 0,3,4
 1229 1210 1229 1210 1199 1237 c 1,5,6
 1136 1282 1136 1282 1088 1282 c 0,7,8
 898 1282 898 1282 898 1016 c 2,9,-1
 898 801 l 2,10,11
 898 751 898 751 984 758 c 2,12,-1
 1111 768 l 2,13,14
 1186 774 1186 774 1193 744 c 0,15,16
 1195 734 1195 734 1195 715 c 0,17,18
 1195 674 1195 674 1175 664 c 0,19,20
 1162 657 1162 657 1113 657 c 2,21,-1
 986 657 l 2,22,23
 901 657 901 657 898 621 c 0,24,25
 896 600 896 600 898 186 c 0,26,27
 898 130 898 130 950 106 c 1,28,29
 988 87 988 87 1080 80 c 0,30,31
 1116 77 1116 77 1123.5 71.5 c 128,-1,32
 1131 66 1131 66 1131 39 c 0,33,34
 1131 8 1131 8 1122.5 2 c 128,-1,35
 1114 -4 1114 -4 1080 -2 c 0,36,37
 872 9 872 9 703 -8 c 0,38,39
 657 -13 657 -13 647 -8 c 0,40,41
 638 -3 638 -3 638 27 c 0,42,43
 638 51 638 51 693 72 c 0,44,45
 744 91 744 91 744 168 c 2,46,-1
 744 557 l 2,47,48
 744 620 744 620 726 641 c 0,49,50
 713 656 713 656 674 659 c 0,51,52
 560 669 560 669 377 659 c 0,53,54
 309 656 309 656 306 621 c 0,55,56
 304 600 304 600 306 186 c 0,57,58
 306 133 306 133 339 110 c 0,59,60
 368 89 368 89 445 78 c 0,61,62
 480 73 480 73 488 66 c 128,-1,63
 496 59 496 59 496 33 c 0,64,65
 496 5 496 5 485 -1 c 0,66,67
 479 -4 479 -4 445 -2 c 0,68,69
 251 8 251 8 91 -8 c 0,70,71
 45 -13 45 -13 35 -8 c 256,72,73
 25 -3 25 -3 25 27 c 0,74,75
 25 52 25 52 83 68 c 0,76,77
 152 87 152 87 152 168 c 2,78,-1
 152 557 l 2,79,80
 152 618 152 618 133 642 c 0,81,82
 120 658 120 658 83 670 c 0,83,84
 25 688 25 688 25 727 c 0,85,86
 25 754 25 754 49 761 c 0,87,88
 57 763 57 763 99 764 c 0,89,90
 135 765 135 765 144 780 c 0,91,92
 150 791 150 791 150 834 c 2,93,-1
 150 883 l 2,94,95
 150 1102 150 1102 289 1240 c 128,-1,96
 428 1378 428 1378 640 1378 c 0,97,98
 763 1378 763 1378 853 1327 c 0,99,100
 895 1303 895 1303 928 1325 c 0,101,102
 1068 1419 1068 1419 1264 1419 c 0,103,104
 1354 1419 1354 1419 1354 1364 c 0,0,1
767 1137 m 0,105,106
 775 1183 775 1183 728 1225 c 0,107,108
 667 1278 667 1278 574 1278 c 0,109,110
 306 1278 306 1278 306 897 c 2,111,-1
 306 801 l 2,112,113
 306 770 306 770 340 763 c 0,114,115
 358 759 358 759 392 758 c 0,116,117
 497 755 497 755 695 768 c 0,118,119
 723 770 723 770 732.5 781.5 c 128,-1,120
 742 793 742 793 742 834 c 0,121,122
 742 1000 742 1000 767 1137 c 0,105,106
EndSplineSet
EndChar

